<?xml version="1.0" encoding="UTF-8" standalone="no"?>
<svg
   height="40"
   viewBox="0 -960 800 800"
   width="40"
   version="1.1"
   id="svg1"
   sodipodi:docname="download_ico.svg"
   inkscape:version="1.3 (0e150ed6c4, 2023-07-21)"
   xmlns:inkscape="http://www.inkscape.org/namespaces/inkscape"
   xmlns:sodipodi="http://sodipodi.sourceforge.net/DTD/sodipodi-0.dtd"
   xmlns="http://www.w3.org/2000/svg"
   xmlns:svg="http://www.w3.org/2000/svg">
  <defs
     id="defs1" />
  <sodipodi:namedview
     id="namedview1"
     pagecolor="#ffffff"
     bordercolor="#000000"
     borderopacity="0.25"
     inkscape:showpageshadow="2"
     inkscape:pageopacity="0.0"
     inkscape:pagecheckerboard="0"
     inkscape:deskcolor="#d1d1d1"
     inkscape:zoom="8.4895835"
     inkscape:cx="7.1263802"
     inkscape:cy="23.263803"
     inkscape:window-width="1698"
     inkscape:window-height="1024"
     inkscape:window-x="0"
     inkscape:window-y="0"
     inkscape:window-maximized="0"
     inkscape:current-layer="svg1" />
  <path
     d="m 230,-360 h 340 q 13,0 21.5,-8.5 8.5,-8.5 8.5,-21.5 0,-13 -8.5,-21.5 Q 583,-420 570,-420 H 230 q -13,0 -21.5,8.5 -8.5,8.5 -8.5,21.5 0,13 8.5,21.5 8.5,8.5 21.5,8.5 z m 138,-241 -64,-63 q -9,-8 -21,-8.5 -12,-0.5 -21,8.5 -9,9 -9,21 0,12 9,21 l 114,115 q 9,9 21,9 12,0 21,-9 l 116,-115 q 9,-9 9,-21 0,-12 -9,-21 -9,-9 -21,-8.5 -12,0.5 -21,8.5 l -64,63 v -169 q 0,-13 -8.5,-21.5 -8.5,-8.5 -21.5,-8.5 -13,0 -21.5,8.5 -8.5,8.5 -8.5,21.5 z m 32,441 q -82,0 -155,-31.5 -73,-31.5 -127.5,-86 Q 63.000003,-332 31.500003,-405 0,-478 0,-560 q 0,-83 31.500003,-156 31.5,-73 85.999997,-127 54.5,-54 127.5,-85.5 73,-31.5 155,-31.5 83,0 156,31.5 73,31.5 127,85.5 54,54 85.5,127 31.5,73 31.5,156 0,82 -31.5,155 -31.5,73 -85.5,127.5 -54,54.5 -127,86 -73,31.5 -156,31.5 z"
     id="path1"
     style="fill:#ffffff;fill-opacity:1" />
</svg>
