<?xml version="1.0" encoding="UTF-8" standalone="no"?>
<svg
   width="600"
   height="528"
   viewBox="0 0 600 528"
   version="1.1"
   id="svg62"
   sodipodi:docname="report_model.svg"
   xml:space="preserve"
   inkscape:version="1.3 (0e150ed6c4, 2023-07-21)"
   xmlns:inkscape="http://www.inkscape.org/namespaces/inkscape"
   xmlns:sodipodi="http://sodipodi.sourceforge.net/DTD/sodipodi-0.dtd"
   xmlns="http://www.w3.org/2000/svg"
   xmlns:svg="http://www.w3.org/2000/svg"><sodipodi:namedview
   id="namedview62"
   pagecolor="#ffffff"
   bordercolor="#000000"
   borderopacity="0.25"
   inkscape:showpageshadow="2"
   inkscape:pageopacity="0.0"
   inkscape:pagecheckerboard="0"
   inkscape:deskcolor="#d1d1d1"
   showgrid="false"
   inkscape:zoom="1.5205224"
   inkscape:cx="272.27484"
   inkscape:cy="303.51411"
   inkscape:window-width="1698"
   inkscape:window-height="1024"
   inkscape:window-x="8"
   inkscape:window-y="0"
   inkscape:window-maximized="0"
   inkscape:current-layer="svg62"
   showguides="true" /><defs
   id="defs12"><linearGradient
     id="linear-gradient"
     x1="99.350044"
     x2="99.350044"
     y2="200.74973"
     gradientUnits="userSpaceOnUse"
     gradientTransform="scale(2.9962645,0.33374891)"
     y1="0.50037616"><stop
       offset="0"
       stop-color="#6200ee"
       id="stop1" /><stop
       offset="1"
       stop-color="#4850ed"
       id="stop2" /></linearGradient><filter
     id="Path_3"
     x="0"
     y="0"
     width="624"
     height="90.830002"
     filterUnits="userSpaceOnUse"><feOffset
       dy="3"
       input="SourceAlpha"
       id="feOffset2" /><feGaussianBlur
       stdDeviation="4"
       result="blur"
       id="feGaussianBlur2" /><feFlood
       flood-opacity="0.161"
       id="feFlood2" /><feComposite
       operator="in"
       in2="blur"
       id="feComposite2" /><feComposite
       in="SourceGraphic"
       id="feComposite3" /></filter><filter
     id="Rectangle_1"
     x="28"
     y="62"
     width="566"
     height="162"
     filterUnits="userSpaceOnUse"><feOffset
       dy="3"
       input="SourceAlpha"
       id="feOffset3" /><feGaussianBlur
       stdDeviation="4"
       result="blur-2"
       id="feGaussianBlur3" /><feFlood
       flood-opacity="0.161"
       id="feFlood3" /><feComposite
       operator="in"
       in2="blur-2"
       id="feComposite4" /><feComposite
       in="SourceGraphic"
       id="feComposite5" /></filter><filter
     id="Rectangle_1-2"
     x="28"
     y="62"
     width="566"
     height="162"
     filterUnits="userSpaceOnUse"><feOffset
       dy="3"
       input="SourceAlpha"
       id="feOffset5" /><feGaussianBlur
       stdDeviation="3"
       result="blur-3"
       id="feGaussianBlur5" /><feFlood
       flood-opacity="0.161"
       result="color"
       id="feFlood5" /><feComposite
       operator="out"
       in="SourceGraphic"
       in2="blur-3"
       id="feComposite6" /><feComposite
       operator="in"
       in="color"
       id="feComposite7" /><feComposite
       operator="in"
       in2="SourceGraphic"
       id="feComposite8" /></filter><filter
     id="Rectangle_3"
     x="17"
     y="216"
     width="590"
     height="301"
     filterUnits="userSpaceOnUse"><feOffset
       dy="3"
       input="SourceAlpha"
       id="feOffset8" /><feGaussianBlur
       stdDeviation="4"
       result="blur-4"
       id="feGaussianBlur8" /><feFlood
       flood-opacity="0.161"
       id="feFlood8" /><feComposite
       operator="in"
       in2="blur-4"
       id="feComposite9" /><feComposite
       in="SourceGraphic"
       id="feComposite10" /></filter><filter
     id="Path_22"
     x="302.5"
     y="217.5"
     width="19"
     height="296"
     filterUnits="userSpaceOnUse"><feOffset
       dy="2"
       input="SourceAlpha"
       id="feOffset10" /><feGaussianBlur
       stdDeviation="3"
       result="blur-5"
       id="feGaussianBlur10" /><feFlood
       flood-color="#ddd"
       id="feFlood10" /><feComposite
       operator="in"
       in2="blur-5"
       id="feComposite11" /><feComposite
       in="SourceGraphic"
       id="feComposite12" /></filter><pattern
     id="pattern"
     preserveAspectRatio="none"
     width="100%"
     height="100%"
     viewBox="0 0 385 366" /></defs><rect
   id="background"
   data-name="Rectangle 2"
   width="600"
   height="527"
   fill="#faf7ff"
   x="0"
   y="0" /><g
   transform="translate(-12,-8)"
   filter="url(#Path_3)"
   id="title"><path
     id="Path_3-2"
     data-name="Path 3"
     d="m -2.321,50.167 v -50 h 600 v 50 L 7.328,57.761 c 0,0 -7.237,5.76 -9.649,9.239"
     transform="translate(14.32,8.83)"
     fill="url(#linear-gradient)"
     style="fill:url(#linear-gradient)" /></g><g
   data-type="innerShadowGroup"
   id="g15"
   transform="matrix(1.0463744,0,0,0.99633431,-10.906441,1.491203)"><g
     transform="translate(-12,-9)"
     filter="url(#Rectangle_1)"
     id="g13"><rect
       id="Rectangle_1-3"
       data-name="Rectangle 1"
       width="542"
       height="138"
       rx="18"
       transform="translate(40,71)"
       fill="#ffffff"
       x="0"
       y="0" /></g><g
     transform="translate(-12,-9)"
     filter="url(#Rectangle_1-2)"
     id="g14"><rect
       id="Rectangle_1-4"
       data-name="Rectangle 1"
       width="542"
       height="138"
       rx="18"
       transform="translate(40,71)"
       fill="#ffffff"
       x="0"
       y="0" /></g></g><path
   id="Path_12"
   data-name="Path 12"
   d="M 144.541,178.001 V 112.915"
   fill="none"
   stroke="#a7a7a7"
   stroke-linecap="round"
   stroke-miterlimit="10"
   stroke-width="1.5" /><g
   id="g1"
   inkscape:label="title"><path
     d="m 336.8837,22.671387 q -1.02539,1.269531 -2.34375,3.125 -0.90332,-0.708008 -1.74561,-1.464844 -0.32959,7.800293 -0.51269,9.423828 -0.18311,1.623535 -1.2085,2.502441 -1.02539,0.891114 -2.86865,0.891114 -2.51465,0 -4.74854,-0.07324 -0.21972,-2.026368 -0.51269,-3.686524 3.17383,0.268555 4.58984,0.268555 0.84229,0 1.06201,-0.744629 0.23194,-0.756836 0.37842,-6.140137 h -6.03027 q -0.20752,3.430176 -0.98877,5.261231 -0.76904,1.831054 -2.4292,3.308105 -1.64795,1.477051 -4.15039,2.563477 -1.51367,-2.026367 -2.53906,-3.100586 2.17285,-0.866699 3.57666,-1.916504 1.41601,-1.062012 2.02636,-2.246094 0.62256,-1.196289 0.83008,-3.869629 h -3.479 v -1.940918 q -0.61035,0.463867 -1.24512,0.891114 -1.12305,-1.586915 -2.22168,-2.75879 5.51758,-3.881835 8.3252,-9.228515 l 3.27148,1.416015 q -2.55127,4.809571 -6.40869,8.251954 h 14.28223 q -3.74756,-3.613282 -6.18897,-8.056641 l 3.02734,-1.5625 q 3.125,5.395508 8.25196,8.886719 z m 0.56152,5.737304 q 2.18506,-3.588867 3.06397,-6.787109 h -2.84424 V 18.42334 h 2.88086 v -4.492188 h 3.27148 v 4.492188 h 2.49024 v 3.198242 h -2.49024 v 2.246094 q 2.0752,1.049804 3.39356,1.831054 l -1.61133,2.832032 q -0.79346,-0.585938 -1.78223,-1.220703 v 10.40039 h -3.27148 v -9.313965 q -0.91553,2.185059 -2.22168,4.309082 -0.36621,-2.099609 -0.87891,-4.296875 z m 22.92481,-14.18457 1.07421,3.271484 q -3.88183,0.683594 -10.66894,1.220704 v 3.710937 h 10.9375 v 3.222656 h -4.02832 v 11.938477 h -3.32031 V 25.649902 h -3.58887 q 0,7.751465 -3.32031,12.207032 -1.26953,-1.586914 -2.61231,-2.807618 2.61231,-3.344726 2.61231,-9.204101 V 15.518066 q 8.20312,-0.415039 12.91504,-1.293945 z m 2.4414,3.78418 h 2.63672 v -4.296875 h 3.14941 v 4.296875 h 2.417 v 3.173828 h -2.417 v 3.747558 q 1.33057,-0.268554 2.53907,-0.549316 -0.12207,2.148438 -0.0977,3.24707 l -2.44141,0.561524 v 6.347656 q 0,1.635742 -0.86669,2.392578 -0.8667,0.756836 -4.21143,0.756836 -0.24414,-1.196289 -0.83008,-3.320312 0.95215,0.07324 1.63574,0.07324 0.64698,0 0.87891,-0.256348 0.23193,-0.268555 0.24414,-0.915527 v -4.321289 l -2.63672,0.659179 -0.34179,-3.540039 2.97851,-0.512695 v -4.370117 h -2.63672 z m 22.80274,5.395508 v 2.734375 q -1.08643,3.479003 -3.24707,6.262207 1.96533,1.306152 4.41894,2.111816 -0.90332,1.367188 -2.05078,3.295898 -2.45361,-1.220703 -4.50439,-3.063964 -1.80665,1.68457 -4.11377,3.063964 -0.43946,-0.854492 -1.24512,-2.026367 v 1.977539 h -3.22266 V 14.63916 h 13.64746 q -0.0366,2.478027 -0.17089,4.187012 -0.13428,1.708984 -1.09864,2.58789 -0.96435,0.878907 -2.6001,0.903321 -1.63574,0.01221 -4.06494,-0.01221 -0.19531,-1.269531 -0.65918,-3.00293 2.11182,0.146484 3.4668,0.146484 0.92773,0 1.31836,-0.36621 0.39062,-0.366211 0.39062,-1.5625 h -7.00683 v 5.883789 z m -8.42286,3.051757 q 1.13526,2.282715 2.83204,4.003907 1.51367,-1.831055 2.24609,-4.174805 h -7.39746 v 7.995605 q 1.7456,-0.817871 3.125,-1.867675 -1.62354,-1.965332 -2.92969,-4.418946 z m 10.52247,-4.077148 h 2.83203 q -1.12305,-0.744629 -2.417,-1.416016 2.49024,-3.100586 3.71094,-6.982422 l 3.24707,0.854493 q -0.37842,1.013183 -0.75683,1.928711 h 3.95507 v -3.125 h 3.51563 v 3.125 h 8.47168 v 2.929687 h -8.47168 v 2.685547 h 9.83887 v 2.929687 h -23.92578 z m 3.54003,0 h 7.03125 v -2.685547 h -5.35888 q -0.80567,1.501465 -1.67237,2.685547 z m -0.83007,15.405273 V 27.065918 h 18.50586 v 10.717773 h -3.32032 v -1.293945 h -11.86523 v 1.293945 z m 15.18554,-7.690429 h -11.86523 v 3.36914 h 11.86523 z"
     id="分析报告"
     style="font-weight:700;font-size:25px;font-family:MicrosoftYaHei-Bold, 'Microsoft YaHei';fill:#f7f7f7"
     aria-label="分析报告" /><path
     id="path1003"
     d="m 192.658,21.165 a 2.119,2.119 0 0 0 0.367,1.161 4.954,4.954 0 0 0 0.947,0.963 13.4,13.4 0 0 0 1.345,0.9 q 0.749,0.428 1.528,0.917 a 17.043,17.043 0 0 1 1.543,1.039 8.025,8.025 0 0 1 1.345,1.284 6.141,6.141 0 0 1 0.963,1.62 5.813,5.813 0 0 1 0.4,2.047 v 0.122 a 7.028,7.028 0 0 1 -0.306,2.185 5.515,5.515 0 0 1 -0.81,1.6 4.7,4.7 0 0 1 -1.177,1.115 6.773,6.773 0 0 1 -1.421,0.688 7.654,7.654 0 0 1 -1.5,0.367 12,12 0 0 1 -1.421,0.122 h -0.153 a 8.918,8.918 0 0 1 -2.277,-0.26 6.364,6.364 0 0 1 -1.681,-0.688 4.987,4.987 0 0 1 -1.177,-1.008 5.522,5.522 0 0 1 -0.733,-1.161 5.767,5.767 0 0 1 -0.4,-1.207 5.567,5.567 0 0 1 -0.122,-1.115 2.205,2.205 0 0 1 0.183,-0.932 1.819,1.819 0 0 1 0.474,-0.642 1.986,1.986 0 0 1 0.688,-0.382 2.79,2.79 0 0 1 0.825,-0.122 2.842,2.842 0 0 1 0.81,0.122 2.244,2.244 0 0 1 0.764,0.382 1.973,1.973 0 0 1 0.81,1.543 1.681,1.681 0 0 0 1.925,1.986 4.209,4.209 0 0 0 0.84,-0.107 1.633,1.633 0 0 0 0.672,-0.351 1.735,1.735 0 0 0 0.428,-0.672 2.945,2.945 0 0 0 0.168,-1.07 2.843,2.843 0 0 0 -0.367,-1.436 4.856,4.856 0 0 0 -0.932,-1.192 9.4,9.4 0 0 0 -1.329,-1.039 q -0.749,-0.5 -1.528,-0.993 -0.779,-0.5 -1.528,-1.039 a 9.977,9.977 0 0 1 -1.329,-1.192 5.552,5.552 0 0 1 -0.963,-1.421 4.437,4.437 0 0 1 -0.367,-1.772 v -0.244 a 7.93,7.93 0 0 1 0.428,-2.72 4.035,4.035 0 0 1 1.238,-1.727 4.951,4.951 0 0 1 2.017,-0.9 12.231,12.231 0 0 1 2.735,-0.275 h 0.4 a 8.07,8.07 0 0 1 2.384,0.306 5.45,5.45 0 0 1 1.62,0.779 3.756,3.756 0 0 1 1.024,1.07 4.956,4.956 0 0 1 0.565,1.177 5.18,5.18 0 0 1 0.229,1.085 q 0.046,0.5 0.046,0.81 a 1.917,1.917 0 0 1 -0.183,0.84 1.792,1.792 0 0 1 -0.474,0.626 2.172,2.172 0 0 1 -0.7,0.413 2.647,2.647 0 0 1 -0.871,0.138 2.076,2.076 0 0 1 -0.733,-0.138 2.777,2.777 0 0 1 -0.657,-0.382 2.07,2.07 0 0 1 -0.474,-0.52 1.179,1.179 0 0 1 -0.183,-0.611 2.552,2.552 0 0 0 -0.458,-1.742 1.684,1.684 0 0 0 -1.314,-0.489 7.051,7.051 0 0 0 -0.81,0.046 1.49,1.49 0 0 0 -0.688,0.26 1.4,1.4 0 0 0 -0.474,0.626 3.422,3.422 0 0 0 -0.168,1.207 z"
     fill="#ffffff" /><path
     id="path1005"
     d="m 210.259,37.301 a 9.785,9.785 0 0 1 -2.9,-0.382 7.1,7.1 0 0 1 -2.047,-0.993 5.467,5.467 0 0 1 -1.329,-1.375 7.29,7.29 0 0 1 -0.779,-1.574 8.2,8.2 0 0 1 -0.351,-1.528 12.477,12.477 0 0 1 -0.076,-1.268 q 0,-0.229 0.031,-0.55 a 1.371,1.371 0 0 1 0.275,-0.642 1.749,1.749 0 0 1 0.718,-0.52 3.753,3.753 0 0 1 1.421,-0.214 q 0.306,0 0.764,0.046 a 2.944,2.944 0 0 1 0.886,0.2 1.948,1.948 0 0 1 0.733,0.458 1.115,1.115 0 0 1 0.306,0.825 10.805,10.805 0 0 0 0.092,1.482 3.341,3.341 0 0 0 0.367,1.115 1.767,1.767 0 0 0 0.718,0.7 2.49,2.49 0 0 0 1.177,0.244 1.85,1.85 0 0 0 1.146,-0.306 1.878,1.878 0 0 0 0.6,-0.688 2.5,2.5 0 0 0 0.244,-0.993 V 20.127 h -4 q -0.611,0 -1.222,-0.061 a 3.811,3.811 0 0 1 -1.115,-0.275 2,2 0 0 1 -0.81,-0.642 1.963,1.963 0 0 1 -0.306,-1.161 2.066,2.066 0 0 1 0.306,-1.192 1.951,1.951 0 0 1 0.81,-0.657 3.525,3.525 0 0 1 1.115,-0.29 q 0.611,-0.061 1.222,-0.061 h 6.225 a 2.646,2.646 0 0 1 1.375,0.306 1.984,1.984 0 0 1 0.779,0.81 3.176,3.176 0 0 1 0.336,1.115 10.593,10.593 0 0 1 0.076,1.283 v 11.613 a 7,7 0 0 1 -0.458,2.689 5.694,5.694 0 0 1 -1.161,1.818 5.058,5.058 0 0 1 -1.528,1.085 8.543,8.543 0 0 1 -1.589,0.565 8.1,8.1 0 0 1 -1.314,0.2 q -0.565,0.031 -0.733,0.031 z"
     fill="#ffffff" /><path
     id="path1007"
     d="m 225.295,27.945 h 4.859 l -2.261,-8.19 h -0.336 z m 9.6,1.5 q 0.031,1.039 0.076,2.124 0.045,1.085 0.046,2.093 v 0.458 q 0,0.581 -0.046,1.131 a 2.755,2.755 0 0 1 -0.229,0.978 1.566,1.566 0 0 1 -0.626,0.688 2.335,2.335 0 0 1 -1.207,0.26 2.371,2.371 0 0 1 -1.222,-0.26 1.665,1.665 0 0 1 -0.642,-0.688 2.874,2.874 0 0 1 -0.244,-0.978 q -0.031,-0.55 -0.031,-1.131 v -2.139 h -6.117 v 2.139 q 0,0.581 -0.046,1.131 a 2.471,2.471 0 0 1 -0.244,0.978 1.566,1.566 0 0 1 -0.626,0.688 3.006,3.006 0 0 1 -2.445,0 1.566,1.566 0 0 1 -0.626,-0.688 2.754,2.754 0 0 1 -0.229,-0.978 q -0.031,-0.55 -0.031,-1.131 v -1.465 q 0.015,-0.535 0.031,-1.085 0.016,-0.55 0.031,-1.085 0.015,-0.55 0.031,-1.039 0.764,-2.659 1.6,-5.378 0.84,-2.735 1.6,-5.409 a 9.043,9.043 0 0 1 0.367,-1.085 2.963,2.963 0 0 1 0.565,-0.917 2.426,2.426 0 0 1 0.9,-0.626 3.48,3.48 0 0 1 1.406,-0.244 h 1.528 a 3.435,3.435 0 0 1 1.39,0.244 2.4,2.4 0 0 1 0.917,0.626 2.751,2.751 0 0 1 0.55,0.917 11.312,11.312 0 0 1 0.382,1.085 z"
     fill="#ffffff" /><path
     id="path1009"
     d="m 255.151,28.745 v 4.951 q 0,0.657 -0.046,1.283 a 2.943,2.943 0 0 1 -0.26,1.115 1.784,1.784 0 0 1 -0.688,0.795 2.621,2.621 0 0 1 -1.36,0.29 2.549,2.549 0 0 1 -1.329,-0.29 1.814,1.814 0 0 1 -0.672,-0.795 3.383,3.383 0 0 1 -0.26,-1.115 q -0.031,-0.626 -0.031,-1.283 V 19.27 q 0,-0.657 0.031,-1.283 a 3.384,3.384 0 0 1 0.26,-1.115 1.722,1.722 0 0 1 0.672,-0.779 2.445,2.445 0 0 1 1.329,-0.306 h 5.042 a 8.925,8.925 0 0 1 3.392,0.795 6.881,6.881 0 0 1 1.238,0.764 4.992,4.992 0 0 1 1.085,1.131 5.286,5.286 0 0 1 0.779,1.574 6.838,6.838 0 0 1 0.29,2.093 7.376,7.376 0 0 1 -0.52,2.873 5.385,5.385 0 0 1 -1.482,2.063 6.489,6.489 0 0 1 -2.368,1.253 11.064,11.064 0 0 1 -3.148,0.413 z m 2.078,-3.637 a 3.356,3.356 0 0 0 1.375,-0.367 2.652,2.652 0 0 0 0.5,-0.351 2.48,2.48 0 0 0 0.443,-0.52 2.621,2.621 0 0 0 0.306,-0.749 3.565,3.565 0 0 0 0.122,-0.978 2.969,2.969 0 0 0 -0.122,-0.9 2.269,2.269 0 0 0 -0.29,-0.672 2.184,2.184 0 0 0 -0.413,-0.489 2.882,2.882 0 0 0 -0.474,-0.336 3.549,3.549 0 0 0 -1.3,-0.351 h -2.231 v 5.715 z"
     fill="#ffffff" /><path
     id="path1011"
     d="m 267.009,19.179 q 0,-0.642 0.061,-1.253 a 3.218,3.218 0 0 1 0.321,-1.085 1.949,1.949 0 0 1 0.7,-0.764 2.294,2.294 0 0 1 1.238,-0.29 2.327,2.327 0 0 1 1.253,0.29 1.839,1.839 0 0 1 0.688,0.764 2.993,2.993 0 0 1 0.306,1.085 10.091,10.091 0 0 1 0.076,1.253 v 14.577 a 10.464,10.464 0 0 1 -0.076,1.268 3.136,3.136 0 0 1 -0.306,1.1 1.839,1.839 0 0 1 -0.688,0.764 2.327,2.327 0 0 1 -1.253,0.29 2.294,2.294 0 0 1 -1.238,-0.29 1.949,1.949 0 0 1 -0.7,-0.764 3.379,3.379 0 0 1 -0.321,-1.1 q -0.061,-0.626 -0.061,-1.268 z"
     fill="#ffffff" /><path
     id="path1013"
     d="m 275.626,25.384 a 10.592,10.592 0 0 1 0.076,-1.284 3.4,3.4 0 0 1 0.321,-1.115 2.036,2.036 0 0 1 0.718,-0.779 2.314,2.314 0 0 1 1.268,-0.306 2.2,2.2 0 0 1 1.238,0.306 1.923,1.923 0 0 1 0.7,0.779 3.16,3.16 0 0 1 0.306,1.115 10.589,10.589 0 0 1 0.076,1.284 v 5.959 q 0,0.443 0.031,0.856 a 2.563,2.563 0 0 0 0.183,0.718 1.326,1.326 0 0 0 2.124,0.275 2.719,2.719 0 0 0 0.611,-1.131 7.514,7.514 0 0 0 0.306,-1.681 q 0.076,-0.978 0.076,-2.093 v -2.9 a 10.589,10.589 0 0 1 0.076,-1.284 3.4,3.4 0 0 1 0.321,-1.115 2.035,2.035 0 0 1 0.718,-0.779 2.314,2.314 0 0 1 1.268,-0.306 2.2,2.2 0 0 1 1.238,0.306 1.923,1.923 0 0 1 0.7,0.779 3.16,3.16 0 0 1 0.306,1.115 10.592,10.592 0 0 1 0.076,1.284 v 8.343 q 0,0.657 -0.046,1.283 a 3.122,3.122 0 0 1 -0.275,1.1 1.908,1.908 0 0 1 -0.7,0.779 2.43,2.43 0 0 1 -1.3,0.29 2.628,2.628 0 0 1 -1.314,-0.275 2.122,2.122 0 0 1 -0.718,-0.688 2.3,2.3 0 0 1 -0.29,-0.84 5.709,5.709 0 0 1 -0.061,-0.764 3.984,3.984 0 0 1 -0.382,0.9 3.233,3.233 0 0 1 -0.672,0.825 3.384,3.384 0 0 1 -0.963,0.611 3.48,3.48 0 0 1 -1.314,0.229 5.377,5.377 0 0 1 -1.681,-0.275 3.953,3.953 0 0 1 -1.513,-0.917 4.821,4.821 0 0 1 -1.1,-1.681 6.986,6.986 0 0 1 -0.413,-2.567 z"
     fill="#ffffff" /><path
     id="path1015"
     d="m 296.162,25.903 a 0.911,0.911 0 0 0 0.2,0.565 2.566,2.566 0 0 0 0.535,0.5 9.173,9.173 0 0 0 0.795,0.458 q 0.458,0.229 0.947,0.458 0.749,0.367 1.528,0.795 a 7.325,7.325 0 0 1 1.421,0.978 4.631,4.631 0 0 1 1.039,1.314 3.5,3.5 0 0 1 0.413,1.742 4.423,4.423 0 0 1 -0.275,1.62 3.744,3.744 0 0 1 -1.742,2.063 5.827,5.827 0 0 1 -1.238,0.535 7.173,7.173 0 0 1 -1.314,0.275 9.41,9.41 0 0 1 -1.268,0.092 9.3,9.3 0 0 1 -2.047,-0.2 6.422,6.422 0 0 1 -1.5,-0.52 4.4,4.4 0 0 1 -1.039,-0.749 3.818,3.818 0 0 1 -0.626,-0.886 3.693,3.693 0 0 1 -0.321,-0.9 4.315,4.315 0 0 1 -0.092,-0.84 1.668,1.668 0 0 1 0.5,-1.345 2.439,2.439 0 0 1 1.574,-0.428 1.876,1.876 0 0 1 1.253,0.413 1.728,1.728 0 0 1 0.52,1.329 0.805,0.805 0 0 0 0.168,0.489 1.4,1.4 0 0 0 0.413,0.306 2.424,2.424 0 0 0 0.565,0.153 q 0.306,0.031 0.6,0.031 a 1.454,1.454 0 0 0 0.963,-0.306 1.029,1.029 0 0 0 0.382,-0.825 1.347,1.347 0 0 0 -0.26,-0.795 2.83,2.83 0 0 0 -0.657,-0.7 6.916,6.916 0 0 0 -0.947,-0.611 q -0.52,-0.306 -1.07,-0.611 -0.688,-0.367 -1.39,-0.779 a 8.26,8.26 0 0 1 -1.253,-0.917 4.387,4.387 0 0 1 -0.917,-1.131 2.972,2.972 0 0 1 -0.351,-1.452 4.574,4.574 0 0 1 0.382,-1.986 3.212,3.212 0 0 1 1.146,-1.3 4.964,4.964 0 0 1 1.818,-0.718 14.454,14.454 0 0 1 2.46,-0.244 h 0.244 a 8.766,8.766 0 0 1 2.093,0.214 4.967,4.967 0 0 1 1.436,0.565 2.954,2.954 0 0 1 0.9,0.764 3,3 0 0 1 0.489,0.871 2.859,2.859 0 0 1 0.2,0.825 6.02,6.02 0 0 1 0.046,0.672 1.374,1.374 0 0 1 -0.2,0.764 1.411,1.411 0 0 1 -0.5,0.474 2.383,2.383 0 0 1 -0.7,0.244 7.1,7.1 0 0 1 -0.825,0.076 1.794,1.794 0 0 1 -0.672,-0.122 1.9,1.9 0 0 1 -0.5,-0.306 1.428,1.428 0 0 1 -0.336,-0.413 1.045,1.045 0 0 1 -0.107,-0.443 1.084,1.084 0 0 0 -0.474,-0.886 1.767,1.767 0 0 0 -1.054,-0.306 2.072,2.072 0 0 0 -0.5,0.061 1.138,1.138 0 0 0 -0.428,0.183 0.978,0.978 0 0 0 -0.306,0.336 1.23,1.23 0 0 0 -0.107,0.55 z"
     fill="#ffffff" /></g><text
   id="文件大小"
   fill="#808080"
   font-size="12px"
   font-family="MicrosoftYaHei, 'Microsoft YaHei'"
   x="58.5"
   y="143"><tspan
     x="58.5"
     y="143"
     id="tspan16">文件大小</tspan></text><text
   id="基本信息"
   fill="#6200ee"
   font-size="15px"
   font-family="MicrosoftYaHei, 'Microsoft YaHei'"
   x="58"
   y="95"><tspan
     x="58"
     y="95"
     id="tspan17">基本信息</tspan></text><text
   id="file_size2"
   data-name="103.2MB"
   fill="#6200ee"
   font-size="16px"
   font-family="MicrosoftYaHei, 'Microsoft YaHei'"
   x="58"
   y="126"><tspan
     x="58"
     y="126"
     id="file_size">?MB</tspan></text><path
   id="Path_11"
   data-name="Path 11"
   d="m 68.862,169.563 c -7.561,0 -7.361,-5.2 -9.14,-3.5 -0.615,0.38 -0.683,0.344 -1.007,-0.306 -0.458,-1.019 1.78,-0.863 1.466,-1.873 -0.5,-0.789 -2.181,0.779 -2.171,-0.756 -0.177,-1.034 2,0.045 2.516,-2.1 0.919,-2.826 -1.457,-5.118 0.406,-8.367 1.276,-1.566 4.019,1 5.173,1.892 0.721,0.53 1.115,1.541 2.115,1.534 3.391,0.61 4.6,-3.533 7.852,-3.894 2.462,-0.13 2,5.32 1.258,6.858 -0.657,1.1 0.576,1.755 0.646,2.823 0.112,0.776 1.136,0.551 1.7,0.712 0.378,0.032 0.543,0.18 0.438,0.572 0.008,1.426 -1.67,-0.014 -2.155,0.7 -0.345,1.057 2.3,0.989 1.327,2.136 -0.159,0.37 -0.383,0.381 -0.7,0.182 -2.09,-2.146 -1.358,3.515 -9.723,3.383 z m 0.233,-6.687 c -2.086,-0.3 0.388,1.251 -0.674,2.127 a 1.706,1.706 0 0 1 -2.956,-0.591 c -0.027,-0.64 -0.695,-0.409 -0.412,0.146 a 2.147,2.147 0 0 0 3.557,0.888 c 0.38,-0.374 0.54,-0.362 0.914,0 a 2.152,2.152 0 0 0 3.575,-0.951 c 0.221,-0.49 -0.377,-0.707 -0.414,-0.139 a 1.728,1.728 0 0 1 -3.017,0.6 c -0.984,-0.843 1.391,-2.32 -0.574,-2.081 z m -3.346,-1.308 a 1.013,1.013 0 0 0 -0.065,-2.024 1.013,1.013 0 1 0 0.065,2.024 z m 6.669,0 a 1.012,1.012 0 1 0 0,-2.024 1.012,1.012 0 0 0 0,2.024 z"
   fill="#6838ed" /><text
   id="sprite_count2"
   data-name="520"
   fill="#6200ee"
   font-size="16px"
   font-family="MicrosoftYaHei, 'Microsoft YaHei'"
   x="85"
   y="167"><tspan
     x="85"
     y="167"
     id="sprite_count">?</tspan></text><text
   id="角色数"
   fill="#808080"
   font-size="12px"
   font-family="MicrosoftYaHei, 'Microsoft YaHei'"
   x="58"
   y="183"><tspan
     x="58"
     y="183"
     id="tspan20">角色数</tspan></text><text
   id="资源数"
   fill="#6200ee"
   font-size="15px"
   font-family="MicrosoftYaHei, 'Microsoft YaHei'"
   x="161"
   y="95"><tspan
     x="161"
     y="95"
     id="tspan21">资源数</tspan></text><text
   id="costume_count2"
   data-name="200"
   fill="#6200ee"
   font-size="16px"
   font-family="MicrosoftYaHei, 'Microsoft YaHei'"
   x="187"
   y="125"><tspan
     x="187"
     y="125"
     id="costume_count">?</tspan></text><text
   id="造型总数"
   fill="#808080"
   font-size="12px"
   font-family="MicrosoftYaHei, 'Microsoft YaHei'"
   x="161"
   y="142"><tspan
     x="161"
     y="142"
     id="tspan23">造型总数</tspan></text><text
   id="sound2"
   data-name="200"
   fill="#6200ee"
   font-size="16px"
   font-family="MicrosoftYaHei, 'Microsoft YaHei'"
   x="187"
   y="168"><tspan
     x="187"
     y="168"
     id="sound_count">?</tspan></text><text
   id="声音总数"
   fill="#808080"
   font-size="12px"
   font-family="MicrosoftYaHei, 'Microsoft YaHei'"
   x="161"
   y="183"><tspan
     x="161"
     y="183"
     id="tspan25">声音总数</tspan></text><text
   id="代码量"
   fill="#6200ee"
   font-size="15px"
   font-family="MicrosoftYaHei, 'Microsoft YaHei'"
   x="255"
   y="95"><tspan
     x="255"
     y="95"
     id="tspan26">代码量</tspan></text><text
   id="total2"
   data-name="12345"
   fill="#6200ee"
   font-size="16px"
   font-family="MicrosoftYaHei, 'Microsoft YaHei'"
   x="254"
   y="125"><tspan
     x="254"
     y="125"
     id="total_block_count">?</tspan></text><text
   id="合计"
   fill="#808080"
   font-size="13px"
   font-family="MicrosoftYaHei, 'Microsoft YaHei'"
   x="255"
   y="142"><tspan
     x="255"
     y="142"
     id="tspan28">合计</tspan></text><text
   id="valid2"
   data-name="12345"
   fill="#6200ee"
   font-size="16px"
   font-family="MicrosoftYaHei, 'Microsoft YaHei'"
   x="254"
   y="167"><tspan
     x="254"
     y="167"
     id="valid_block_count">?</tspan></text><text
   id="有效"
   fill="#808080"
   font-size="13px"
   font-family="MicrosoftYaHei, 'Microsoft YaHei'"
   x="255"
   y="183"><tspan
     x="255"
     y="183"
     id="tspan30">有效</tspan></text><text
   id="代码段数"
   fill="#6200ee"
   font-size="15px"
   font-family="MicrosoftYaHei, 'Microsoft YaHei'"
   x="350"
   y="95"><tspan
     x="350"
     y="95"
     id="tspan31">代码段数</tspan></text><text
   id="total3"
   data-name="1234"
   fill="#6200ee"
   font-size="16px"
   font-family="MicrosoftYaHei, 'Microsoft YaHei'"
   x="350"
   y="124"><tspan
     x="350"
     y="124"
     id="total_paragraph_count">?</tspan></text><text
   id="合计-2"
   data-name="合计"
   fill="#808080"
   font-size="13px"
   font-family="MicrosoftYaHei, 'Microsoft YaHei'"
   x="351"
   y="141"><tspan
     x="351"
     y="141"
     id="tspan33">合计</tspan></text><text
   id="valid3"
   data-name="1234"
   fill="#6200ee"
   font-size="16px"
   font-family="MicrosoftYaHei, 'Microsoft YaHei'"
   x="350"
   y="166"><tspan
     x="350"
     y="166"
     id="valid_paragraph_count">?</tspan></text><text
   id="有效-2"
   data-name="有效"
   fill="#808080"
   font-size="13px"
   font-family="MicrosoftYaHei, 'Microsoft YaHei'"
   x="351"
   y="182"><tspan
     x="351"
     y="182"
     id="tspan35">有效</tspan></text><text
   id="有效-2-5"
   data-name="有效"
   fill="#808080"
   font-size="13px"
   font-family="MicrosoftYaHei, 'Microsoft YaHei'"
   x="439.46329"
   y="184.89482"><tspan
     x="439.46329"
     y="184.89482"
     id="tspan35-8" /></text><path
   id="Path_18"
   data-name="Path 18"
   d="M 235,178.001 V 112.915"
   fill="none"
   stroke="#a7a7a7"
   stroke-linecap="round"
   stroke-miterlimit="10"
   stroke-width="1.5" /><path
   id="Path_19"
   data-name="Path 19"
   d="M 331,178.001 V 112.915"
   fill="none"
   stroke="#a7a7a7"
   stroke-linecap="round"
   stroke-miterlimit="10"
   stroke-width="1.5" /><path
   id="Path_21"
   data-name="Path 21"
   d="M 429,178.001 V 112.915"
   fill="none"
   stroke="#a7a7a7"
   stroke-linecap="round"
   stroke-miterlimit="10"
   stroke-width="1.5" /><g
   transform="translate(-12,-8)"
   filter="url(#Rectangle_3)"
   id="box_2"><rect
     id="Rectangle_3-2"
     data-name="Rectangle 3"
     width="566"
     height="277"
     rx="18"
     transform="translate(29,225)"
     fill="#ffffff"
     x="0"
     y="0" /></g><text
   id="fff"
   data-name="alyze-7.0"
   fill="#808080"
   font-size="13px"
   font-family="MicrosoftYaHei, 'Microsoft YaHei'"
   x="17"
   y="518"><tspan
     x="17"
     y="518"
     xml:space="preserve"
     id="footer_left">?</tspan></text><text
   id="组分概述"
   fill="#6200ee"
   font-size="15px"
   font-family="MicrosoftYaHei, 'Microsoft YaHei'"
   x="468.90552"
   y="95.328835"><tspan
     x="468.90552"
     y="95.328835"
     id="tspan37">组分概述</tspan></text><g
   transform="translate(-12,-8)"
   filter="url(#Path_22)"
   id="g37"><path
     id="Path_22-2"
     data-name="Path 22"
     d="m 309.664,354.513 v -277"
     transform="translate(2.34,147.49)"
     fill="none"
     stroke="#faf7ff"
     stroke-linecap="round"
     stroke-miterlimit="10"
     stroke-width="1" /></g><path
   id="headphones_FILL1_wght400_GRAD0_opsz48"
   d="m 164.167,170 a 1.434,1.434 0 0 1 -1.052,-0.438 1.434,1.434 0 0 1 -0.438,-1.052 v -7.448 a 8.647,8.647 0 0 1 0.708,-3.488 9.083,9.083 0 0 1 1.912,-2.83 9.082,9.082 0 0 1 2.83,-1.912 8.645,8.645 0 0 1 3.488,-0.708 8.645,8.645 0 0 1 3.488,0.708 9.082,9.082 0 0 1 2.83,1.912 9.083,9.083 0 0 1 1.912,2.83 8.647,8.647 0 0 1 0.708,3.488 v 7.448 a 1.434,1.434 0 0 1 -0.438,1.052 1.434,1.434 0 0 1 -1.052,0.438 h -2.186 a 1.434,1.434 0 0 1 -1.052,-0.438 1.434,1.434 0 0 1 -0.438,-1.052 v -4.369 a 1.435,1.435 0 0 1 0.438,-1.052 1.435,1.435 0 0 1 1.052,-0.437 h 2.185 v -1.589 a 7.186,7.186 0 0 0 -2.168,-5.28 7.186,7.186 0 0 0 -5.28,-2.168 7.186,7.186 0 0 0 -5.28,2.168 7.186,7.186 0 0 0 -2.168,5.28 v 1.589 h 2.185 a 1.435,1.435 0 0 1 1.052,0.438 1.435,1.435 0 0 1 0.438,1.052 v 4.369 a 1.434,1.434 0 0 1 -0.438,1.052 1.434,1.434 0 0 1 -1.052,0.438 z"
   fill="#6838ed" /><path
   id="imagesmode_FILL1_wght400_GRAD0_opsz48"
   d="m 163.994,127.532 a 1.444,1.444 0 0 1 -1.054,-0.452 1.444,1.444 0 0 1 -0.452,-1.054 v -15.052 a 1.444,1.444 0 0 1 0.452,-1.054 1.444,1.444 0 0 1 1.054,-0.452 h 15.052 a 1.444,1.444 0 0 1 1.054,0.452 1.444,1.444 0 0 1 0.452,1.054 v 15.052 a 1.444,1.444 0 0 1 -0.452,1.054 1.444,1.444 0 0 1 -1.054,0.452 z m 2.158,-3.939 h 10.762 a 0.339,0.339 0 0 0 0.326,-0.2 0.387,0.387 0 0 0 -0.025,-0.4 l -2.935,-3.914 a 0.38,0.38 0 0 0 -0.3,-0.151 0.38,0.38 0 0 0 -0.3,0.151 l -3.01,3.889 -2.032,-2.785 a 0.38,0.38 0 0 0 -0.3,-0.151 0.38,0.38 0 0 0 -0.3,0.151 l -2.158,2.81 a 0.359,0.359 0 0 0 -0.05,0.4 0.339,0.339 0 0 0 0.322,0.2 z m 1.856,-7.351 a 1.211,1.211 0 0 0 0.891,-0.364 1.211,1.211 0 0 0 0.364,-0.891 1.211,1.211 0 0 0 -0.364,-0.891 1.211,1.211 0 0 0 -0.891,-0.364 1.211,1.211 0 0 0 -0.891,0.364 1.211,1.211 0 0 0 -0.364,0.891 1.211,1.211 0 0 0 0.364,0.891 1.211,1.211 0 0 0 0.891,0.365 z"
   fill="#6838ed" /><text
   id="工具网址_sjaplus.top"
   data-name="工具网址：sjaplus.top"
   fill="#808080"
   font-size="13px"
   font-family="MicrosoftYaHei, 'Microsoft YaHei'"
   x="451"
   y="518"><tspan
     x="451"
     y="518"
     id="tspan38">工具网址：sjaplus.top</tspan></text><rect
   id="bar1"
   data-name="Rectangle 4"
   width="202"
   height="24"
   fill="#b2e5b6"
   x="86"
   y="242"
   style="stroke-width:1.20936"
   rx="12.000001"
   ry="12" /><g
   id="type1"
   data-name="Group 7"
   transform="translate(82,242)"><rect
     id="cate_rect1"
     data-name="Rectangle 4"
     width="48"
     height="24"
     rx="12"
     fill="#40bf4a"
     x="0"
     y="0" /><text
     id="calc"
     transform="translate(9,17)"
     fill="#ffffff"
     
     font-size="15px"
     font-family="MicrosoftYaHei, 'Microsoft YaHei'"><tspan
       x="-3"
       y="0"
       id="cate_name1"
       lengthAdjust="spacingAndGlyphs"
       textLength="35">?</tspan></text></g><text
   id="_60.3_"
   data-name="60.3%"
   fill="#40bf4a"
   font-size="15px"
   font-family="MicrosoftYaHei, 'Microsoft YaHei'"
   x="74"
   text-anchor="end"
   y="260"><tspan
     x="74"
     text-anchor="end"
     y="260"
     id="cate_count1">?</tspan></text><rect
   id="bar2"
   data-name="Rectangle 4"
   width="42.651535"
   height="24"
   rx="12"
   fill="#b2e5b6"
   x="86"
   y="282"
   ry="12"
   style="stroke-width:0.553937" /><g
   id="type2"
   data-name="Group 7"
   transform="translate(82,282)"><rect
     id="cate_rect2"
     data-name="Rectangle 4"
     width="48"
     height="24"
     rx="12"
     fill="#40bf4a"
     x="0"
     y="0" /><text
     id="calc-2"
     data-name="calc"
     transform="translate(9,17)"
     fill="#ffffff"
     
     font-size="15px"
     font-family="MicrosoftYaHei, 'Microsoft YaHei'"><tspan
       x="-3"
       y="0"
       id="cate_name2"
       lengthAdjust="spacingAndGlyphs"
       textLength="35">?</tspan></text></g><text
   id="_60.3_2"
   data-name="60.3%"
   fill="#40bf4a"
   font-size="15px"
   font-family="MicrosoftYaHei, 'Microsoft YaHei'"
   x="74"
   text-anchor="end"
   y="300"
   inkscape:label="cate_count2"><tspan
     x="74"
     text-anchor="end"
     y="300"
     id="cate_count2">?</tspan></text><rect
   id="bar3"
   data-name="Rectangle 4"
   width="139"
   height="24"
   rx="12"
   fill="#b2e5b6"
   x="86"
   y="322" /><g
   id="type3"
   data-name="Group 7"
   transform="translate(82,322)"><rect
     id="cate_rect3"
     data-name="Rectangle 4"
     width="48"
     height="24"
     rx="12"
     fill="#40bf4a"
     x="0"
     y="0" /><text
     id="calc-3"
     data-name="calc"
     transform="translate(9,17)"
     fill="#ffffff"
     font-size="15px"
     
     font-family="MicrosoftYaHei, 'Microsoft YaHei'"><tspan
       x="-3"
       y="0"
       id="cate_name3"
       lengthAdjust="spacingAndGlyphs"
       textLength="35">?</tspan></text></g><text
   id="asd"
   data-name="60.3%"
   fill="#40bf4a"
   font-size="15px"
   font-family="MicrosoftYaHei, 'Microsoft YaHei'"
   x="74"
   text-anchor="end"
   y="340"><tspan
     x="74"
     text-anchor="end"
     y="340"
     id="cate_count3">?</tspan></text><rect
   id="bar4"
   data-name="Rectangle 4"
   width="139"
   height="24"
   rx="12"
   fill="#b2e5b6"
   x="86"
   y="362" /><g
   id="type4"
   data-name="Group 7"
   transform="translate(82,362)"><rect
     id="cate_rect4"
     data-name="Rectangle 4"
     width="48"
     height="24"
     rx="12"
     fill="#40bf4a"
     x="0"
     y="0" /><text
     id="calc-4"
     data-name="calc"
     transform="translate(9,17)"
     fill="#ffffff"
     font-size="15px"
     
     font-family="MicrosoftYaHei, 'Microsoft YaHei'"><tspan
       x="-3"
       y="0"
       id="cate_name4"
       lengthAdjust="spacingAndGlyphs"
       textLength="35">?</tspan></text></g><text
   id="asd1"
   data-name="60.3%"
   fill="#40bf4a"
   font-size="15px"
   font-family="MicrosoftYaHei, 'Microsoft YaHei'"
   x="74"
   text-anchor="end"
   y="380"><tspan
     x="74"
     text-anchor="end"
     y="380"
     id="cate_count4">?</tspan></text><text
   id="cate_count4-5"
   data-name="60.3%"
   fill="#40bf4a"
   font-size="15px"
   font-family="MicrosoftYaHei, 'Microsoft YaHei'"
   x="131"
   y="259.25467"
   inkscape:label="percent1"><tspan
     x="131"
     y="259.25467"
     id="percent1">?</tspan></text><text
   id="cate_count4-5-9"
   data-name="60.3%"
   fill="#40bf4a"
   font-size="15px"
   font-family="MicrosoftYaHei, 'Microsoft YaHei'"
   x="131"
   y="300.10468"
   inkscape:label="percent2"><tspan
     x="131"
     y="300.10468"
     id="percent2">?</tspan></text><text
   id="cate_count4-5-9-3"
   data-name="60.3%"
   fill="#40bf4a"
   font-size="15px"
   font-family="MicrosoftYaHei, 'Microsoft YaHei'"
   x="131"
   y="340.00937"
   inkscape:label="percent3"><tspan
     x="131"
     y="340.00937"
     id="percent3">?</tspan></text><text
   id="cate_count4-5-9-3-2"
   data-name="60.3%"
   fill="#40bf4a"
   font-size="15px"
   font-family="MicrosoftYaHei, 'Microsoft YaHei'"
   x="131"
   y="379.49158"
   inkscape:label="percent4"><tspan
     x="131"
     y="379.49158"
     id="percent4">?</tspan></text><rect
   id="bar5"
   data-name="Rectangle 4"
   width="139"
   height="24"
   rx="12"
   fill="#b2e5b6"
   x="86"
   y="402" /><g
   id="type5"
   data-name="Group 7"
   transform="translate(82,402)"><rect
     id="cate_rect5"
     data-name="Rectangle 4"
     width="48"
     height="24"
     rx="12"
     fill="#40bf4a"
     x="0"
     y="0" /><text
     id="calc-5"
     data-name="calc"
     transform="translate(9,17)"
     fill="#ffffff"
     
     font-size="15px"
     font-family="MicrosoftYaHei, 'Microsoft YaHei'"><tspan
       x="-3"
       y="0"
       id="cate_name5"
       lengthAdjust="spacingAndGlyphs"
       textLength="35">?</tspan></text></g><text
   id="50"
   data-name="60.3%"
   fill="#40bf4a"
   font-size="15px"
   font-family="MicrosoftYaHei, 'Microsoft YaHei'"
   x="74"
   text-anchor="end"
   y="420"><tspan
     x="74"
     text-anchor="end"
     y="420"
     id="cate_count5">?</tspan></text><rect
   id="bar6"
   data-name="Rectangle 4"
   width="139"
   height="24"
   rx="12"
   fill="#b2e5b6"
   x="86"
   y="442" /><g
   id="type6"
   data-name="Group 7"
   transform="translate(82,442)"><rect
     id="cate_rect6"
     data-name="Rectangle 4"
     width="48"
     height="24"
     rx="12"
     fill="#40bf4a"
     x="0"
     y="0" /><text
     id="calc-6"
     data-name="calc"
     transform="translate(9,17)"
     fill="#ffffff"
     font-size="15px"
     
     font-family="MicrosoftYaHei, 'Microsoft YaHei'"><tspan
       x="-3"
       y="0"
       id="cate_name6"
       lengthAdjust="spacingAndGlyphs"
       textLength="35">?</tspan></text></g><text
   id="67"
   data-name="60.3%"
   fill="#40bf4a"
   font-size="15px"
   font-family="MicrosoftYaHei, 'Microsoft YaHei'"
   x="74"
   text-anchor="end"
   y="460"><tspan
     x="74"
     text-anchor="end"
     y="460"
     id="cate_count6">?</tspan></text><rect
   id="bar7"
   data-name="Rectangle 4"
   width="139"
   height="24"
   rx="12"
   fill="#b2e5b6"
   x="369"
   y="242" /><g
   id="type7"
   data-name="Group 7"
   transform="translate(369,242)"><rect
     id="cate_rect7"
     data-name="Rectangle 4"
     width="48"
     height="24"
     rx="12"
     fill="#40bf4a"
     x="0"
     y="0" /><text
     id="calc-7"
     data-name="calc"
     transform="translate(9,17)"
     fill="#ffffff"
     
     font-size="15px"
     font-family="MicrosoftYaHei, 'Microsoft YaHei'"><tspan
       x="-3"
       y="0"
       id="cate_name7"
       textLength="35"
       lengthAdjust="spacingAndGlyphs">?</tspan></text></g><text
   id="222s"
   data-name="60.3%"
   fill="#40bf4a"
   font-size="15px"
   font-family="MicrosoftYaHei, 'Microsoft YaHei'"
   x="363"
   text-anchor="end"
   y="260"><tspan
     x="363"
     text-anchor="end"
     y="260"
     id="cate_count7">?</tspan></text><rect
   id="bar8"
   data-name="Rectangle 4"
   width="139"
   height="24"
   rx="12"
   fill="#b2e5b6"
   x="369"
   y="282" /><g
   id="type8"
   data-name="Group 7"
   transform="translate(369,282)"><rect
     id="cate_rect8"
     data-name="Rectangle 4"
     width="48"
     height="24"
     rx="12"
     fill="#40bf4a"
     x="0"
     y="0" /><text
     id="calc-8"
     data-name="calc"
     transform="translate(9,17)"
     fill="#ffffff"
     
     font-size="15px"
     font-family="MicrosoftYaHei, 'Microsoft YaHei'"><tspan
       x="-3"
       y="0"
       id="cate_name8"
       textLength="35"
       lengthAdjust="spacingAndGlyphs">?</tspan></text></g><text
   id="888"
   data-name="60.3%"
   fill="#40bf4a"
   font-size="15px"
   font-family="MicrosoftYaHei, 'Microsoft YaHei'"
   x="363"
   text-anchor="end"
   y="300"><tspan
     x="363"
     text-anchor="end"
     y="300"
     id="cate_count8">?</tspan></text><rect
   id="bar9"
   data-name="Rectangle 4"
   width="139"
   height="24"
   rx="12"
   fill="#b2e5b6"
   x="369"
   y="322" /><g
   id="type9"
   data-name="Group 7"
   transform="translate(369,322)"><rect
     id="cate_rect9"
     data-name="Rectangle 4"
     width="48"
     height="24"
     rx="12"
     fill="#40bf4a"
     x="0"
     y="0" /><text
     id="calc-9"
     data-name="calc"
     transform="translate(9,17)"
     fill="#ffffff"
     font-size="15px"
     
     font-family="MicrosoftYaHei, 'Microsoft YaHei'"><tspan
       x="-3"
       y="0"
       id="cate_name9"
       textLength="35"
       lengthAdjust="spacingAndGlyphs">?</tspan></text></g><text
   id="999"
   data-name="60.3%"
   fill="#40bf4a"
   font-size="15px"
   font-family="MicrosoftYaHei, 'Microsoft YaHei'"
   x="363"
   text-anchor="end"
   y="340"><tspan
     x="363"
     text-anchor="end"
     y="340"
     id="cate_count9">?</tspan></text><rect
   id="bar10"
   data-name="Rectangle 4"
   width="139"
   height="24"
   rx="12"
   fill="#b2e5b6"
   x="369"
   y="362" /><g
   id="type10"
   data-name="Group 7"
   transform="translate(369,362)"><rect
     id="cate_rect10"
     data-name="Rectangle 4"
     width="48"
     height="24"
     rx="12"
     fill="#40bf4a"
     x="0"
     y="0" /><text
     id="calc-10"
     data-name="calc"
     transform="translate(9,17)"
     fill="#ffffff"
     
     font-size="15px"
     font-family="MicrosoftYaHei, 'Microsoft YaHei'"><tspan
       x="-3"
       y="0"
       id="cate_name10"
       textLength="35"
       lengthAdjust="spacingAndGlyphs">?</tspan></text></g><text
   id="1010"
   data-name="60.3%"
   fill="#40bf4a"
   font-size="15px"
   font-family="MicrosoftYaHei, 'Microsoft YaHei'"
   x="363"
   text-anchor="end"
   y="380"><tspan
     x="363"
     text-anchor="end"
     y="380"
     id="cate_count10">?</tspan></text><rect
   id="bar11"
   data-name="Rectangle 4"
   width="139"
   height="24"
   rx="12"
   fill="#b2e5b6"
   x="369"
   y="402" /><g
   id="type11"
   data-name="Group 7"
   transform="translate(369,402)"><rect
     id="cate_rect11"
     data-name="Rectangle 4"
     width="48"
     height="24"
     rx="12"
     fill="#40bf4a"
     x="0"
     y="0" /><text
     id="calc-11"
     data-name="calc"
     transform="translate(9,17)"
     fill="#ffffff"
     font-size="15px"
     
     font-family="MicrosoftYaHei, 'Microsoft YaHei'"><tspan
       x="-3"
       y="0"
       id="cate_name11"
       textLength="35"
       lengthAdjust="spacingAndGlyphs">?</tspan></text></g><text
   id="1111"
   data-name="60.3%"
   fill="#40bf4a"
   font-size="15px"
   font-family="MicrosoftYaHei, 'Microsoft YaHei'"
   x="363"
   text-anchor="end"
   y="420"><tspan
     x="363"
     text-anchor="end"
     y="420"
     id="cate_count11">?</tspan></text><rect
   id="bar12"
   data-name="Rectangle 4"
   width="139"
   height="24"
   rx="12"
   fill="#b2e5b6"
   x="369"
   y="442" /><g
   id="type12"
   data-name="Group 7"
   transform="translate(369,442)"><rect
     id="cate_rect12"
     data-name="Rectangle 4"
     width="48"
     height="24"
     rx="12"
     fill="#40bf4a"
     x="0"
     y="0" /><text
     id="calc-12"
     data-name="calc"
     transform="translate(9,17)"
     fill="#ffffff"
     font-size="15px"
     
     font-family="MicrosoftYaHei, 'Microsoft YaHei'"><tspan
       x="-3"
       y="0"
       id="cate_name12"
       textLength="35"
       lengthAdjust="spacingAndGlyphs">?</tspan></text></g><text
   id="121212"
   data-name="60.3%"
   fill="#40bf4a"
   font-size="15px"
   font-family="MicrosoftYaHei, 'Microsoft YaHei'"
   x="363"
   text-anchor="end"
   y="460"><tspan
     x="363"
     text-anchor="end"
     y="460"
     id="cate_count12">?</tspan></text><text
   id="有效-2-56"
   data-name="有效"
   fill="#808080"
   font-size="13px"
   font-family="MicrosoftYaHei, 'Microsoft YaHei'"
   x="431.47308"
   y="188.54388"><tspan
     x="431.47308"
     y="188.54388"
     id="tspan35-5">逻辑 流程 媒体 交互 视觉</tspan></text><g
   id="pie_chart_row1">?</g>&#10;     <rect
   style="fill:#4472c4;fill-opacity:1"
   id="rect85"
   width="6.9055214"
   height="6.9055214"
   x="441.24173"
   y="167" /><rect
   style="fill:#ffc000;fill-opacity:1"
   id="rect85-1"
   width="6.9055214"
   height="6.9055214"
   x="471.38773"
   y="166.76564" /><rect
   style="fill:#da0000;fill-opacity:1"
   id="rect85-9"
   width="6.9055214"
   height="6.9055214"
   x="499.83804"
   y="167" /><rect
   style="fill:#5332ee;fill-opacity:1"
   id="rect85-9-2"
   width="6.9055214"
   height="6.9055214"
   x="529.27484"
   y="167" /><rect
   style="fill:#548235;fill-opacity:1"
   id="rect85-9-2-5"
   width="6.9055214"
   height="6.9055214"
   x="559.87854"
   y="167" /><text
   id="cate_count4-5-9-3-3"
   data-name="60.3%"
   fill="#40bf4a"
   font-size="14.977px"
   font-family="MicrosoftYaHei, 'Microsoft YaHei'"
   x="130.99693"
   y="459.43134"
   transform="scale(0.99846715,1.0015352)"
   style="stroke-width:0.998466"><tspan
     x="130.99693"
     y="459.43134"
     id="percent6"
     style="stroke-width:0.998466">?</tspan></text><text
   id="cate_count4-5-9-3-4"
   data-name="60.3%"
   fill="#40bf4a"
   font-size="15px"
   font-family="MicrosoftYaHei, 'Microsoft YaHei'"
   x="131"
   y="419.66336"><tspan
     x="131"
     y="419.66336"
     id="percent5">?</tspan></text><text
   id="cate_count4-5-0"
   data-name="60.3%"
   fill="#40bf4a"
   font-size="15px"
   font-family="MicrosoftYaHei, 'Microsoft YaHei'"
   x="421"
   y="259.53574"><tspan
     x="421"
     y="259.53574"
     id="percent7">?</tspan></text><text
   id="cate_count4-5-9-7"
   data-name="60.3%"
   fill="#40bf4a"
   font-size="15px"
   font-family="MicrosoftYaHei, 'Microsoft YaHei'"
   x="421"
   y="300.38574"><tspan
     x="421"
     y="300.38574"
     id="percent8">?</tspan></text><text
   id="cate_count4-5-9-3-8"
   data-name="60.3%"
   fill="#40bf4a"
   font-size="15px"
   font-family="MicrosoftYaHei, 'Microsoft YaHei'"
   x="421"
   y="340.29044"><tspan
     x="421"
     y="340.29044"
     id="percent9">?</tspan></text><text
   id="cate_count4-5-9-3-2-2"
   data-name="60.3%"
   fill="#40bf4a"
   font-size="15px"
   font-family="MicrosoftYaHei, 'Microsoft YaHei'"
   x="421"
   y="379.77264"><tspan
     x="421"
     y="379.77264"
     id="percent10">?</tspan></text><text
   id="cate_count4-5-9-3-3-2"
   data-name="60.3%"
   fill="#40bf4a"
   font-size="14.977px"
   font-family="MicrosoftYaHei, 'Microsoft YaHei'"
   x="421"
   y="459.71201"
   transform="scale(0.99846715,1.0015352)"
   style="stroke-width:0.998466"><tspan
     x="421"
     y="459.71201"
     id="percent12"
     style="stroke-width:0.998466">?</tspan></text><text
   id="cate_count4-5-9-3-4-4"
   data-name="60.3%"
   fill="#40bf4a"
   font-size="15px"
   font-family="MicrosoftYaHei, 'Microsoft YaHei'"
   x="421"
   y="419.94443"><tspan
     x="421"
     y="419.94443"
     id="percent11">?</tspan></text></svg>
