<?xml version="1.0" encoding="UTF-8" standalone="no"?>
<svg
   height="24px"
   viewBox="0 -960 960 960"
   width="24px"
   fill="undefined"
   version="1.1"
   id="svg1"
   sodipodi:docname="wifi_off.svg"
   inkscape:version="1.4 (e7c3feb100, 2024-10-09)"
   xmlns:inkscape="http://www.inkscape.org/namespaces/inkscape"
   xmlns:sodipodi="http://sodipodi.sourceforge.net/DTD/sodipodi-0.dtd"
   xmlns="http://www.w3.org/2000/svg"
   xmlns:svg="http://www.w3.org/2000/svg">
  <defs
     id="defs1" />
  <sodipodi:namedview
     id="namedview1"
     pagecolor="#ffffff"
     bordercolor="#000000"
     borderopacity="0.25"
     inkscape:showpageshadow="2"
     inkscape:pageopacity="0.0"
     inkscape:pagecheckerboard="0"
     inkscape:deskcolor="#d1d1d1"
     inkscape:zoom="23"
     inkscape:cx="12.173913"
     inkscape:cy="12.217391"
     inkscape:window-width="1272"
     inkscape:window-height="755"
     inkscape:window-x="0"
     inkscape:window-y="0"
     inkscape:window-maximized="1"
     inkscape:current-layer="svg1" />
  <path
     d="M790-56 414-434q-47 11-87.5 33T254-346l-84-86q32-32 69-56t79-42l-90-90q-41 21-76.5 46.5T84-516L0-602q32-32 66.5-57.5T140-708l-84-84 56-56 736 736-58 56Zm-310-64q-42 0-71-29.5T380-220q0-42 29-71t71-29q42 0 71 29t29 71q0 41-29 70.5T480-120Zm236-238-29-29-29-29-144-144q81 8 151.5 41T790-432l-74 74Zm160-158q-77-77-178.5-120.5T480-680q-21 0-40.5 1.5T400-674L298-776q44-12 89.5-18t92.5-6q142 0 265 53t215 145l-84 86Z"
     id="path1"
     style="fill:#ffffff;fill-opacity:1" />
</svg>
