<?xml version="1.0" encoding="UTF-8" standalone="no"?>
<svg
   width="100"
   height="100"
   xml:space="preserve"
   overflow="hidden"
   version="1.1"
   id="svg2"
   sodipodi:docname="Picture1.svg"
   inkscape:version="1.3 (0e150ed6c4, 2023-07-21)"
   xmlns:inkscape="http://www.inkscape.org/namespaces/inkscape"
   xmlns:sodipodi="http://sodipodi.sourceforge.net/DTD/sodipodi-0.dtd"
   xmlns:xlink="http://www.w3.org/1999/xlink"
   xmlns="http://www.w3.org/2000/svg"
   xmlns:svg="http://www.w3.org/2000/svg"><defs
     id="defs2"><pattern
       inkscape:collect="always"
       xlink:href="#pattern16"
       preserveAspectRatio="xMidYMid"
       id="pattern17"
       patternTransform="scale(1)" /><inkscape:path-effect
       effect="powerclip"
       id="path-effect15"
       is_visible="true"
       lpeversion="1"
       inverse="true"
       flatten="false"
       hide_clip="false"
       message="如果将裁剪转换为路径后没有平面化的结果，请在&lt;b&gt;填充与描边&lt;/b&gt; 对话框中使用“填充规则偶数”。" /><pattern
       inkscape:collect="always"
       xlink:href="#pattern14"
       preserveAspectRatio="xMidYMid"
       id="pattern15"
       patternTransform="translate(-1.7167184)" /><inkscape:path-effect
       effect="powerclip"
       id="path-effect11"
       is_visible="true"
       lpeversion="1"
       inverse="true"
       flatten="false"
       hide_clip="false"
       message="如果将裁剪转换为路径后没有平面化的结果，请在&lt;b&gt;填充与描边&lt;/b&gt; 对话框中使用“填充规则偶数”。" /><inkscape:path-effect
       effect="powerclip"
       id="path-effect3"
       is_visible="true"
       lpeversion="1"
       inverse="true"
       flatten="false"
       hide_clip="false"
       message="如果将裁剪转换为路径后没有平面化的结果，请在&lt;b&gt;填充与描边&lt;/b&gt; 对话框中使用“填充规则偶数”。" /><clipPath
       clipPathUnits="userSpaceOnUse"
       id="clipPath3"><path
         id="lpe_path-effect3"
         style="font-size:761px;font-family:'Concert One', 'Concert One_MSFontService', sans-serif;stroke-width:0.0905797"
         class="powerclip"
         d="M -5.4904948,-4.9999997 H 104.50951 V 105 H -5.4904948 Z M 33.631278,65.997049 h 0.673161 q 0.942418,0 1.615574,-0.370236 0.673156,-0.370235 1.178023,-0.942418 0.504867,-0.572182 0.841444,-1.278996 0.336578,-0.706814 0.605841,-1.37997 l 6.327665,-18.44447 h 0.942418 v 28.070599 q 0,1.07705 0.134632,2.019467 0.134631,0.942419 0.572182,1.682891 0.471209,0.706813 1.346311,1.144365 0.908761,0.403893 2.457019,0.403893 1.750206,0 2.75994,-0.403893 1.009733,-0.437552 1.5146,-1.144365 0.504867,-0.740472 0.639498,-1.682891 0.134632,-0.942417 0.134632,-2.019467 V 37.455241 q 0,-1.447285 -0.100974,-2.827255 -0.06732,-1.379969 -0.538524,-2.457019 -0.47121,-1.077049 -1.514601,-1.716547 -1.009734,-0.673156 -2.894571,-0.673156 h -4.914037 q -1.110707,0 -1.884837,0.100973 -0.774129,0.06732 -1.447285,0.572183 -0.639497,0.471209 -1.245338,1.514601 -0.572183,1.009733 -1.312654,2.928227 -0.740471,1.884837 -1.716547,4.813065 -0.976076,2.928228 -2.356046,7.16911 l -1.077049,3.365779 h -0.807787 l -0.875103,-2.692623 q -1.5146,-4.442829 -2.557992,-7.47203 -1.043392,-3.06286 -1.851179,-5.015011 -0.774129,-1.98581 -1.447285,-3.06286 -0.639497,-1.077049 -1.312654,-1.548258 -0.673156,-0.504863 -1.480942,-0.572183 -0.77413,-0.100973 -1.918495,-0.100973 h -4.57746 q -1.884836,0 -2.928227,0.673156 -1.009734,0.639498 -1.480943,1.716547 -0.471209,1.07705 -0.572183,2.457019 -0.06732,1.37997 -0.06732,2.827255 v 34.196317 q 0,1.07705 0.134631,2.019467 0.134631,0.942419 0.639498,1.682891 0.504867,0.706813 1.514601,1.144365 1.009734,0.403893 2.759938,0.403893 1.548259,0 2.423362,-0.403893 0.90876,-0.437552 1.346311,-1.144365 0.471209,-0.740472 0.605841,-1.682891 0.134631,-0.942417 0.134631,-2.019467 V 43.580959 h 0.875103 l 6.39498,18.44447 q 0.235605,0.673156 0.572183,1.37997 0.370235,0.706814 0.875102,1.278996 0.504867,0.572183 1.178023,0.942418 0.706814,0.370236 1.682889,0.370236 z" /></clipPath><pattern
       patternUnits="userSpaceOnUse"
       width="100"
       height="100"
       patternTransform="scale(1)"
       preserveAspectRatio="xMidYMid"
       id="pattern11"
       inkscape:label="path1"><path
         d="M -0.49049478,16.666667 C -0.49049478,7.4620473 6.9715552,2.9737152e-7 16.176175,2.9737152e-7 h 66.66667 C 92.047555,2.9737152e-7 99.509505,7.4620473 99.509505,16.666667 V 83.333333 C 99.509505,92.538043 92.047555,100 82.842845,100 H 16.176175 C 6.9715552,100 -0.49049478,92.538043 -0.49049478,83.333333 Z"
         fill="#ffffff"
         fill-rule="evenodd"
         id="path1"
         style="fill:#ffffff;fill-opacity:1;stroke-width:0.0905797"
         sodipodi:nodetypes="sssssssss"
         clip-path="url(#clipPath3)"
         inkscape:label="path1"
         mask="none"
         transform="translate(0.49049478)" /></pattern><clipPath
       clipPathUnits="userSpaceOnUse"
       id="clipPath11"><path
         id="lpe_path-effect11"
         style="stroke-width:0.0905797"
         class="powerclip"
         d="M -5,-4.9999997 H 105 V 105 H -5 Z M 80.110053,26.985952 h -8.30254 v 29.891304 h 8.30254 z m 8.30344,25.740036 h -24.90942 l 12.45471,24.90942 z" /></clipPath><pattern
       patternUnits="userSpaceOnUse"
       width="100"
       height="100"
       patternTransform="scale(1)"
       preserveAspectRatio="xMidYMid"
       id="pattern14"><path
         id="rect11"
         clip-path="url(#clipPath11)"
         d="M 0,2.9737151e-7 H 100 V 100 H 0 Z"
         style="fill:url(#pattern11);stroke:none" /></pattern><clipPath
       clipPathUnits="userSpaceOnUse"
       id="clipPath15"><path
         id="lpe_path-effect15"
         style="fill:#784421;fill-opacity:1;stroke-width:0.457464"
         class="powerclip"
         d="M -6.7167187,-4.9999997 H 103.28328 V 105 H -6.7167187 Z M 68.898636,52.68 v 6.039169 H 82.586395 V 52.68 Z" /></clipPath><pattern
       patternUnits="userSpaceOnUse"
       width="100"
       height="100"
       patternTransform="translate(-1.7167187)"
       preserveAspectRatio="xMidYMid"
       id="pattern16"><path
         id="rect14"
         clip-path="url(#clipPath15)"
         d="M -1.7167187,3.2768361e-7 H 98.283281 V 100 H -1.7167187 Z"
         style="fill:url(#pattern15);stroke:none"
         transform="translate(1.7167187)" /></pattern></defs><sodipodi:namedview
     id="namedview2"
     pagecolor="#ffffff"
     bordercolor="#000000"
     borderopacity="0.25"
     inkscape:showpageshadow="2"
     inkscape:pageopacity="0.0"
     inkscape:pagecheckerboard="0"
     inkscape:deskcolor="#d1d1d1"
     inkscape:zoom="5.7665243"
     inkscape:cx="48.729526"
     inkscape:cy="47.082087"
     inkscape:window-width="1920"
     inkscape:window-height="1046"
     inkscape:window-x="-11"
     inkscape:window-y="-11"
     inkscape:window-maximized="1"
     inkscape:current-layer="svg2" /><rect
     style="fill:url(#pattern17);stroke:none"
     width="100"
     height="100"
     x="0"
     y="0"
     id="rect16" /></svg>
