<?xml version="1.0" encoding="UTF-8" standalone="no"?>
<svg
   height="48"
   viewBox="0 -960 960 960"
   width="48"
   version="1.1"
   id="svg1"
   sodipodi:docname="faq-logo.svg"
   inkscape:version="1.3 (0e150ed6c4, 2023-07-21)"
   xmlns:inkscape="http://www.inkscape.org/namespaces/inkscape"
   xmlns:sodipodi="http://sodipodi.sourceforge.net/DTD/sodipodi-0.dtd"
   xmlns="http://www.w3.org/2000/svg"
   xmlns:svg="http://www.w3.org/2000/svg">
  <defs
     id="defs1" />
  <sodipodi:namedview
     id="namedview1"
     pagecolor="#ffffff"
     bordercolor="#000000"
     borderopacity="0.25"
     inkscape:showpageshadow="2"
     inkscape:pageopacity="0.0"
     inkscape:pagecheckerboard="0"
     inkscape:deskcolor="#d1d1d1"
     inkscape:zoom="16.979167"
     inkscape:cx="24"
     inkscape:cy="24"
     inkscape:window-width="1920"
     inkscape:window-height="1046"
     inkscape:window-x="-11"
     inkscape:window-y="-11"
     inkscape:window-maximized="1"
     inkscape:current-layer="svg1" />
  <path
     d="m 116.57613,-30.592436 64.9806,-116.979024 -45.77431,-27.79041 Q -27.860679,-274.7126 -73.2695,-445.91223 q -45.40883,-171.19965 53.942586,-314.24049 99.351404,-143.04084 285.674924,-173.5515 186.32355,-30.51069 351.11101,69.53479 81.24934,49.32797 132.76647,116.86827 51.5171,67.54027 71.05399,144.81762 19.5369,77.27735 5.29518,157.5116 -14.24171,80.23422 -65.65432,154.25537 -45.85448,66.01884 -114.02394,118.48988 -68.16947,52.47102 -152.19659,86.782025 -84.02712,34.311013 -180.11109,48.503292 -96.08394,14.192261 -198.01259,6.348937 z M 216.57958,-287.00463 q 18.30974,11.11616 38.54008,7.75539 20.23034,-3.36078 31.34658,-19.36535 11.11622,-16.00457 6.17072,-34.65008 -4.94552,-18.64549 -23.25524,-29.76166 -18.30971,-11.11616 -38.54006,-7.7554 -20.23035,3.36079 -31.34659,19.36536 -11.11623,16.00456 -6.17074,34.65007 4.94554,18.64551 23.25525,29.76167 z m 63.59039,-154.79737 57.21788,34.73802 q 17.36913,-25.00714 38.55978,-35.60639 21.19065,-10.59927 70.84695,-18.84844 49.65631,-8.24917 77.87645,-23.11325 28.22015,-14.86406 46.28406,-40.87148 31.26442,-45.01286 16.5097,-95.21134 -14.75471,-50.19845 -73.11695,-85.63124 -48.063,-29.17993 -101.11159,-30.10074 -53.04864,-0.92079 -97.75944,25.9739 l 39.43991,50.9644 q 30.65183,-18.36507 61.65134,-17.32083 30.99953,1.04427 59.60847,18.41328 34.33072,20.8428 43.7107,47.15786 9.37999,26.31507 -7.29437,50.32193 -13.20053,19.00543 -39.33641,30.86863 -26.13584,11.8632 -78.32604,21.41819 -50.35105,9.24948 -70.74474,21.04363 -20.39368,11.79416 -44.0157,45.80387 z"
     id="path1"
     style="fill:#ffffff;fill-opacity:1;stroke-width:1.27567" />
</svg>
