<?xml version="1.0" encoding="UTF-8" standalone="no"?>
<svg
   height="24"
   viewBox="0 -960 960 960"
   width="24"
   version="1.1"
   id="svg1"
   sodipodi:docname="nav-logo.svg"
   inkscape:version="1.3 (0e150ed6c4, 2023-07-21)"
   xmlns:inkscape="http://www.inkscape.org/namespaces/inkscape"
   xmlns:sodipodi="http://sodipodi.sourceforge.net/DTD/sodipodi-0.dtd"
   xmlns:xlink="http://www.w3.org/1999/xlink"
   xmlns="http://www.w3.org/2000/svg"
   xmlns:svg="http://www.w3.org/2000/svg">
  <defs
     id="defs1">
    <linearGradient
       id="linearGradient1"
       inkscape:collect="always">
      <stop
         style="stop-color:#ff7000;stop-opacity:1;"
         offset="0"
         id="stop1" />
      <stop
         style="stop-color:#ff5757;stop-opacity:1;"
         offset="1"
         id="stop2" />
    </linearGradient>
    <linearGradient
       inkscape:collect="always"
       xlink:href="#linearGradient1"
       id="linearGradient2"
       x1="-155.6073"
       y1="-564.98971"
       x2="748.56219"
       y2="-564.98971"
       gradientUnits="userSpaceOnUse" />
  </defs>
  <sodipodi:namedview
     id="namedview1"
     pagecolor="#ffffff"
     bordercolor="#999999"
     borderopacity="1"
     inkscape:showpageshadow="2"
     inkscape:pageopacity="0"
     inkscape:pagecheckerboard="0"
     inkscape:deskcolor="#d1d1d1"
     inkscape:zoom="33.958333"
     inkscape:cx="11.985276"
     inkscape:cy="12"
     inkscape:window-width="1920"
     inkscape:window-height="1046"
     inkscape:window-x="-11"
     inkscape:window-y="-11"
     inkscape:window-maximized="1"
     inkscape:current-layer="svg1" />
  <path
     d="m -110.56516,-546.24778 q -14.06834,-93.71491 4.29757,-181.86845 18.365886,-88.15353 66.055576,-161.88528 47.689694,-73.73176 118.589119,-123.58889 70.899425,-49.8573 158.336525,-69.5758 l 13.39163,76.5297 q -72.08664,14.21706 -131.6691,57.71883 -59.582463,43.50175 -98.101055,103.05432 -38.518602,59.55257 -55.361939,134.21068 -16.843327,74.65812 -3.45168,151.18785 z m 144.173278,-28.43407 q -10.880703,-62.18041 0.825041,-121.80544 11.705728,-59.62502 42.887455,-107.83425 31.181716,-48.20922 79.393816,-81.22153 48.21208,-33.01232 106.78247,-44.56364 l 13.39163,76.52975 q -43.21994,6.0498 -79.19795,31.28875 -35.97801,25.23896 -59.82285,62.10483 -22.01063,34.03005 -31.27669,78.74172 -9.266058,44.71168 -0.89628,92.54277 z M -155.6073,-306.44951 212.21607,-601.6602 q -5.68669,-23.61937 -2.52877,-47.74603 3.15795,-24.12666 17.22029,-45.86808 25.67906,-39.70171 69.23141,-48.29118 43.55234,-8.58946 80.94909,18.67236 37.39673,27.26182 45.48752,73.49853 8.09078,46.23672 -17.58829,85.93845 -14.06236,21.74141 -34.13786,33.53533 -20.07551,11.79395 -42.88158,14.64239 l -127.41573,470.465215 -71.23189,-51.927258 25.76214,-92.498667 -166.504548,-121.37998 -72.953256,58.09688 z m 216.248018,-64.91555 119.313422,86.97815 62.62455,-232.54486 z m 307.757292,40.74132 -13.39162,-76.52975 q 43.21992,-6.04981 79.19793,-31.28877 35.97802,-25.23894 59.82286,-62.10484 22.01063,-34.03003 31.27668,-78.7417 9.26606,-44.71169 0.89628,-92.54277 l 72.08665,-14.21705 q 10.8807,62.18043 -2.16064,120.8318 -13.04133,58.65139 -41.55186,108.80789 -31.18173,48.20924 -79.39381,81.22153 -48.21209,33.0123 -106.78247,44.56366 z m 26.78326,153.05947 -13.39163,-76.52974 q 72.08664,-14.21702 131.66911,-57.71879 59.58245,-43.50176 98.10105,-103.05432 38.51859,-59.55256 55.36194,-134.21069 16.84332,-74.6581 3.45167,-151.18785 l 72.08664,-14.21702 q 14.06835,93.7149 -4.29755,181.86843 -18.36589,88.15356 -66.05558,161.88531 -47.68971,73.73174 -117.25352,124.56255 -69.56382,50.83083 -159.67213,68.60212 z"
     id="path1"
     style="fill:url(#linearGradient2);fill-opacity:1;stroke-width:1.1129" />
</svg>
