<?xml version="1.0" encoding="UTF-8"?>
<svg id="svg1" width="48" height="48" version="1.1" viewBox="0 -960 960 960" xmlns="http://www.w3.org/2000/svg">
 <path id="path1" d="m300-249.6 180-180 180 180 50.4-50.4-180-180 180-180-50.4-50.4-180 180-180-180-50.4 50.4 180 180-180 180zm180 249.6q-98.4 0-186-37.8t-153-103.2-103.2-153-37.8-186q0-99.6 37.8-187.2t103.2-152.4 153-102.6 186-37.8q99.6 0 187.2 37.8t152.4 102.6 102.6 152.4 37.8 187.2q0 98.4-37.8 186t-102.6 153-152.4 103.2-187.2 37.8z" fill="#fff" stroke-width="1.2"/>
</svg>
