<?xml version="1.0" encoding="UTF-8"?>
<svg id="svg1" width="48" height="48" version="1.1" viewBox="0 -960 960 960" xmlns="http://www.w3.org/2000/svg">
 <path id="path1" d="m673.5-232.77 52.552-48.969q8.3605-8.3605 8.3605-18.513 0-10.152-8.3605-18.513l-181.54-181.54q5.9718-16.721 9.5548-32.248 3.5831-15.527 3.5831-32.248 0-69.273-48.969-118.24-48.969-48.969-118.24-48.969-20.304 0-40.608 5.9718t-39.414 16.721l105.1 103.91-64.495 60.912-102.71-101.52q-10.749 19.11-16.124 39.414t-5.3746 41.802q0 68.078 47.774 115.26 47.774 47.177 115.85 47.177 16.721 0 32.845-2.9859 16.124-2.9859 32.845-8.9577l180.35 181.54q7.1661 7.1661 18.513 7.1661t18.513-7.1661zm-194.68 230.51q-97.937 0-185.13-37.622-87.188-37.622-152.28-102.71-65.092-65.092-102.71-152.28-37.622-87.188-37.622-185.13 0-99.132 37.622-186.32 37.622-87.188 102.71-151.68 65.092-64.495 152.28-102.12 87.188-37.622 185.13-37.622 99.132 0 186.32 37.622 87.188 37.622 151.68 102.12 64.495 64.495 102.12 151.68 37.622 87.188 37.622 186.32 0 97.937-37.622 185.13-37.622 87.188-102.12 152.28-64.495 65.092-151.68 102.71-87.188 37.622-186.32 37.622z" fill="#fff" stroke-width="1.1944"/>
</svg>
