<?xml version="1.0" encoding="UTF-8" standalone="no"?>
<!-- Created with Inkscape (http://www.inkscape.org/) -->

<svg
   width="140mm"
   height="76mm"
   viewBox="0 0 140 76"
   version="1.1"
   id="svg1"
   xml:space="preserve"
   sodipodi:docname="cmpr-block-logo.svg"
   inkscape:version="1.4 (e7c3feb100, 2024-10-09)"
   xmlns:inkscape="http://www.inkscape.org/namespaces/inkscape"
   xmlns:sodipodi="http://sodipodi.sourceforge.net/DTD/sodipodi-0.dtd"
   xmlns="http://www.w3.org/2000/svg"
   xmlns:svg="http://www.w3.org/2000/svg"><sodipodi:namedview
     id="namedview1"
     pagecolor="#ffffff"
     bordercolor="#000000"
     borderopacity="0.25"
     inkscape:showpageshadow="2"
     inkscape:pageopacity="0.0"
     inkscape:pagecheckerboard="0"
     inkscape:deskcolor="#d1d1d1"
     inkscape:document-units="mm"
     inkscape:zoom="0.69544071"
     inkscape:cx="463.01575"
     inkscape:cy="312.03235"
     inkscape:window-width="1272"
     inkscape:window-height="755"
     inkscape:window-x="0"
     inkscape:window-y="0"
     inkscape:window-maximized="1"
     inkscape:current-layer="layer1"
     showguides="false"
     inkscape:clip-to-page="false" /><defs
     id="defs1"><inkscape:perspective
       sodipodi:type="inkscape:persp3d"
       inkscape:vp_x="17.120443 : -171.41809 : 1"
       inkscape:vp_y="0 : 999.99997 : 0"
       inkscape:vp_z="227.12047 : -171.41809 : 1"
       inkscape:persp3d-origin="122.12045 : -220.91799 : 1"
       id="perspective13" /></defs><g
     id="g3"
     transform="matrix(0.99694258,0,0,0.98777991,-29.609735,-64.307703)"><g
       inkscape:label="Layer 1"
       id="layer1"><rect
         style="fill:#3d83ff;stroke-width:0.264583"
         id="rect1"
         width="140.42935"
         height="76.940216"
         x="29.700542"
         y="65.103271"
         rx="8"
         ry="8"
         inkscape:label="bg" /><path
         d="m 116.70814,138.19381 q 0,0.38498 0.0154,0.7751 -0.21046,-0.0205 -0.42092,0 0.0205,-0.39012 0.0205,-0.7751 v -3.085 h 1.83252 v -0.29772 q 0,-0.39011 -0.0205,-0.7751 0.21046,0.0205 0.42092,0 -0.0205,0.38499 -0.0205,0.7751 v 0.29772 h 2.05325 v 3.31086 q 0,0.34391 -0.23613,0.47737 -0.25152,0.13347 -0.74943,0.12833 0.0616,-0.26692 -0.12319,-0.46198 0.16939,0.0154 0.39525,0.0154 0.22585,0.005 0.28232,-0.0359 0.0513,-0.0667 0.0513,-0.28745 v -2.82321 h -1.6734 v 0.30285 l 0.79564,0.81617 0.78023,0.86236 -0.31825,0.27719 -0.76997,-0.8521 -0.56464,-0.58004 q -0.15913,0.61597 -0.62111,1.09335 -0.46198,0.47738 -1.06768,0.6827 -0.0205,-0.0719 -0.0616,-0.13346 z m 1.44754,-2.76161 h -1.44754 v 2.19697 q 0.62624,-0.21559 1.03689,-0.74944 0.41065,-0.53897 0.41065,-1.21141 z m 7.70992,3.6599 q -0.47738,-0.52871 -1.00609,-1.00609 l 0.0513,-0.0565 q -0.7135,0.70837 -1.49886,1.11902 -0.077,-0.21046 -0.25666,-0.33365 1.17035,-0.58518 1.76066,-1.30381 0.35418,-0.44658 0.6673,-0.94449 0.16939,0.12832 0.35932,0.22072 -0.39012,0.55951 -0.81617,1.01635 0.53898,0.48765 1.02662,1.03176 z m -1.95058,-3.84469 q -0.25666,0 -0.51331,0.0103 0.0154,-0.13859 0,-0.27718 0.25665,0.0154 0.51331,0.0154 h 1.77605 q 0.25666,0 0.51331,-0.0154 -0.0154,0.13859 0,0.27718 -0.25665,-0.0103 -0.51331,-0.0103 h -1.27814 q 0.11806,0.0821 0.24639,0.15399 -0.0924,0.11806 -0.7135,0.97529 l 0.68783,0.005 0.17966,-0.0205 q 0.26692,-0.39525 0.45172,-0.73403 0.16939,0.12319 0.36958,0.21045 -0.56464,0.83157 -1.17035,1.47321 -0.51331,0.52871 -1.09848,0.90856 -0.0975,-0.2002 -0.28746,-0.30286 0.99583,-0.63137 1.5502,-1.30894 l -1.14981,0.0257 v -0.25153 q 0.0821,0.0103 0.12832,-0.0616 0.47738,-0.73404 0.65704,-1.07282 z m 1.05229,-0.54411 -0.30799,0.23612 -0.51331,-0.6673 0.30799,-0.23613 z m -3.50591,3.43405 q -0.1386,-0.1386 -0.35932,-0.1694 0.17966,-0.29258 0.40038,-0.7135 0.22586,-0.42091 0.37985,-0.87776 0.15399,-0.45685 0.27719,-0.91369 h -0.35419 q -0.26179,0 -0.52871,0.0154 0.0154,-0.16426 0,-0.32852 0.26692,0.0154 0.52871,0.0154 h 0.44145 v -0.31312 q 0,-0.37472 -0.0205,-0.74944 0.18479,0.0205 0.36445,0 -0.0205,0.37472 -0.0205,0.74944 v 0.31312 l 0.6365,-0.0154 q -0.0154,0.16426 0,0.32852 l -0.6365,-0.0154 v 0.64164 l 0.14372,-0.11807 q 0.31312,0.47738 0.56464,1.01123 l -0.31312,0.19505 q -0.12319,-0.25665 -0.25665,-0.49791 l -0.13859,-0.23099 v 1.83252 q 0,0.37472 0.0205,0.75457 -0.17966,-0.0205 -0.36445,0 0.0205,-0.37985 0.0205,-0.75457 v -1.94545 q -0.36445,1.06256 -0.78536,1.78633 z m 6.66277,0.62623 q 0.78536,-0.62623 0.76483,-2.03271 v -2.17643 h 0.35932 q 0,0.0103 0.0103,0.0103 0.25152,-0.005 0.8213,-0.13859 0.57491,-0.13859 0.88289,-0.26179 0.0257,0.19506 0.0873,0.38498 -0.64678,0.0873 -1.80172,0.32852 v 0.70837 h 1.66826 q -0.0513,0.60058 -0.154,1.08309 -0.12833,0.55951 -0.39525,1.02149 0.43632,0.59544 1.09849,0.97529 -0.20019,0.0719 -0.30799,0.26178 -0.59031,-0.34905 -0.99582,-0.92909 -0.49791,0.65704 -1.25761,0.97529 -0.10266,-0.12833 -0.23612,-0.22072 -0.0821,0.10266 -0.1694,0.19506 -0.14886,-0.1694 -0.37471,-0.1848 z m 1.67852,-2.90533 q 0.0205,0.83156 0.34905,1.47833 0.34392,-0.6365 0.42092,-1.47833 z m -0.55437,0 v 0.87262 q 0,1.17035 -0.48252,1.88385 0.72377,-0.32338 1.18062,-0.95989 -0.45171,-0.82643 -0.46711,-1.79658 z m -2.80268,2.931 q 0.46711,-0.54411 0.44145,-1.65286 v -2.15077 q 0,-0.35932 -0.0205,-0.72377 0.20019,0.0205 0.40038,0 -0.0154,0.36445 -0.0154,0.72377 v 0.52358 h 0.51331 v -0.62111 q 0,-0.36445 -0.0154,-0.72377 0.20019,0.0205 0.40038,0 -0.0154,0.35932 -0.0154,0.72377 v 0.61597 q 0.22073,0 0.44658,-0.0103 -0.0154,0.14372 0,0.28745 -0.27205,-0.0103 -0.54411,-0.0103 h -0.78536 v 0.82643 l 0.99069,0.005 v 2.36123 h -0.36445 v -2.09944 l -0.62624,0.0103 q 0.0513,1.27814 -0.41065,2.03271 -0.14886,-0.12319 -0.39525,-0.11806 z m 9.05993,-1.40647 q -0.0154,0.16939 0,0.33878 -0.31312,-0.0154 -0.62624,-0.0154 h -0.47738 v 0.51332 q 0,0.37984 0.0205,0.76483 -0.21046,-0.0257 -0.41579,0 0.0205,-0.38499 0.0205,-0.76483 v -0.51332 h -0.48251 q -0.31312,0 -0.62624,0.0154 0.0205,-0.16939 0,-0.33878 0.31312,0.0154 0.62624,0.0154 h 0.48251 v -1.67339 q -0.84697,1.4886 -2.01218,2.33043 -0.1078,-0.20533 -0.32339,-0.30799 1.36028,-0.91883 2.04811,-2.3253 h -1.21654 q -0.31312,0 -0.62624,0.0154 0.0154,-0.16939 0,-0.33878 0.31312,0.0154 0.62624,0.0154 h 1.504 v -0.31826 q 0,-0.37985 -0.0205,-0.76483 0.20533,0.0257 0.41579,0 -0.0205,0.38498 -0.0205,0.76483 v 0.31826 h 1.504 q 0.31312,0 0.62624,-0.0154 -0.0205,0.16939 0,0.33878 -0.31312,-0.0154 -0.62624,-0.0154 h -1.20114 q 0.36445,0.75457 0.81103,1.26275 0.45171,0.50304 1.18061,0.92909 -0.21046,0.077 -0.32338,0.27205 -0.70837,-0.43631 -1.21142,-1.08822 -0.44144,-0.56977 -0.7597,-1.21654 v 1.81712 h 0.47738 q 0.31312,0 0.62624,-0.0154 z m 2.10457,-0.94963 q -0.31311,0 -0.62623,0.0154 0.0205,-0.16939 0,-0.33878 0.31312,0.0154 0.62623,0.0154 h 3.69584 q 0.31312,0 0.62624,-0.0154 -0.0205,0.16939 0,0.33878 -0.31312,-0.0154 -0.62624,-0.0154 h -2.37149 l -0.20533,0.57491 h 2.39203 l -0.14886,1.54507 q -0.0205,0.17452 -0.16426,0.28232 -0.14373,0.11293 -0.32339,0.15912 -0.20019,0.0462 -0.61084,0.0411 0.0667,-0.26179 -0.13859,-0.45171 0.20019,0.0205 0.48765,0.0103 0.29258,-0.005 0.32851,-0.0359 0.0411,-0.0257 0.0513,-0.11806 l 0.11292,-1.12415 h -2.49469 l 0.31312,-0.8829 z m 0.40039,-0.6673 q 0.0667,-0.7597 0,-1.52453 h 2.854 q -0.0719,0.76483 -0.005,1.52453 z m 0.37471,-1.21141 v 0.90342 h 2.09944 v -0.90342 z m 6.68331,1.72472 h -0.58518 v -0.59544 h 0.58518 z m 0,2.07378 h -0.58518 v -0.59544 h 0.58518 z m 3.40259,0 -1.06703,-2.81738 h 0.49409 l 0.59922,1.66099 q 0.042,0.11564 0.0894,0.25756 0.0473,0.14192 0.0841,0.27333 0.0368,0.12615 0.0526,0.2155 h 0.021 q 0.021,-0.0893 0.0578,-0.22076 0.042,-0.13141 0.0893,-0.27333 0.0526,-0.14192 0.0894,-0.2523 l 0.59922,-1.66099 h 0.49409 l -1.07228,2.81738 z m 4.33644,-2.14983 q 0,0.40473 -0.0736,0.79896 -0.0683,0.38896 -0.25755,0.7096 -0.18397,0.31538 -0.52563,0.5046 -0.33641,0.18923 -0.86729,0.18923 -0.10513,0 -0.24705,-0.0158 -0.13666,-0.0105 -0.22602,-0.0368 v -0.39423 q 0.20499,0.0683 0.46255,0.0683 0.36794,0 0.60448,-0.1209 0.24179,-0.12089 0.38371,-0.32589 0.14192,-0.21025 0.20499,-0.48358 0.0631,-0.27858 0.0736,-0.58345 h -0.0315 q -0.11563,0.17871 -0.3364,0.31012 -0.21551,0.12615 -0.55717,0.12615 -0.48358,0 -0.78319,-0.29435 -0.29435,-0.29961 -0.29435,-0.84101 0,-0.39422 0.14718,-0.67806 0.15243,-0.28384 0.4205,-0.43627 0.26807,-0.15244 0.63076,-0.15244 0.35743,0 0.64652,0.18398 0.2891,0.17871 0.4573,0.54665 0.1682,0.36269 0.1682,0.92511 z m -1.27202,-1.26677 q -0.32589,0 -0.53614,0.21551 -0.205,0.21551 -0.205,0.65704 0,0.36268 0.17346,0.57293 0.17871,0.205 0.54665,0.205 0.25231,0 0.43628,-0.0999 0.18397,-0.10513 0.28384,-0.26282 0.10512,-0.15768 0.10512,-0.32589 0,-0.22602 -0.0894,-0.44678 -0.0893,-0.22077 -0.26807,-0.36794 -0.17871,-0.14718 -0.44678,-0.14718 z m 1.92381,3.13276 q 0,-0.19449 0.0946,-0.27333 0.0946,-0.0789 0.22602,-0.0789 0.13667,0 0.23128,0.0789 0.0999,0.0788 0.0999,0.27333 0,0.18922 -0.0999,0.27332 -0.0946,0.0841 -0.23128,0.0841 -0.13141,0 -0.22602,-0.0841 -0.0946,-0.0841 -0.0946,-0.27332 z m 3.77928,-1.59792 q 0,0.60447 -0.12616,1.04075 -0.12615,0.43101 -0.39947,0.66229 -0.27333,0.23128 -0.72537,0.23128 -0.63602,0 -0.94088,-0.50986 -0.29961,-0.51512 -0.29961,-1.42446 0,-0.60973 0.12089,-1.04075 0.12616,-0.43101 0.39948,-0.65703 0.27333,-0.23128 0.72012,-0.23128 0.63075,0 0.94087,0.50986 0.31013,0.5046 0.31013,1.4192 z m -2.02894,0 q 0,0.77268 0.17346,1.15639 0.17872,0.38371 0.60448,0.38371 0.4205,0 0.59921,-0.37846 0.18398,-0.38371 0.18398,-1.16164 0,-0.76742 -0.18398,-1.15113 -0.17871,-0.38371 -0.59921,-0.38371 -0.42576,0 -0.60448,0.38371 -0.17346,0.38371 -0.17346,1.15113 z m 2.66495,1.59792 q 0,-0.19449 0.0946,-0.27333 0.0946,-0.0789 0.22602,-0.0789 0.13666,0 0.23127,0.0789 0.0999,0.0788 0.0999,0.27333 0,0.18922 -0.0999,0.27332 -0.0946,0.0841 -0.23127,0.0841 -0.13141,0 -0.22602,-0.0841 -0.0946,-0.0841 -0.0946,-0.27332 z m 3.77928,-1.59792 q 0,0.60447 -0.12615,1.04075 -0.12616,0.43101 -0.39948,0.66229 -0.27333,0.23128 -0.72537,0.23128 -0.63601,0 -0.94088,-0.50986 -0.29961,-0.51512 -0.29961,-1.42446 0,-0.60973 0.1209,-1.04075 0.12615,-0.43101 0.39947,-0.65703 0.27333,-0.23128 0.72012,-0.23128 0.63075,0 0.94088,0.50986 0.31012,0.5046 0.31012,1.4192 z m -2.02893,0 q 0,0.77268 0.17345,1.15639 0.17872,0.38371 0.60448,0.38371 0.4205,0 0.59922,-0.37846 0.18397,-0.38371 0.18397,-1.16164 0,-0.76742 -0.18397,-1.15113 -0.17872,-0.38371 -0.59922,-0.38371 -0.42576,0 -0.60448,0.38371 -0.17345,0.38371 -0.17345,1.15113 z"
         id="text2-9"
         style="font-size:5.2563px;fill:#fffaff;stroke-width:0.438022"
         aria-label="内核版本号：v9.0.0" /><g
         id="g2"
         transform="translate(0,0.52916667)"><text
           xml:space="preserve"
           style="font-size:17.6383px;text-align:start;writing-mode:lr-tb;direction:ltr;text-anchor:start;fill:#fffaff;fill-opacity:1;stroke-width:1.46985"
           x="69.469475"
           y="109.7858"
           id="text2"><tspan
             sodipodi:role="line"
             id="tspan2"
             style="fill:#fffaff;fill-opacity:1;stroke-width:1.46985"
             x="69.469475"
             y="109.7858">抄袭对比器</tspan></text><path
           d="m 54.139278,103.01905 1.070639,0.68751 0.962517,-1.4989 1.498894,0.96254 0.687507,-1.07064 -1.498894,-0.96254 0.962533,-1.498884 -1.070639,-0.687523 -0.962532,1.498897 -1.498879,-0.96252 -0.687523,1.07063 1.498894,0.96253 z m -3.286439,1.82113 4.068427,2.61255 0.687508,-1.07063 -4.068411,-2.61256 z m -5.011516,2.07427 q -0.428255,-0.27501 -0.54319,-0.80246 -0.114934,-0.52745 0.160139,-0.9557 l 7.333499,-11.420116 q 0.275009,-0.428255 0.802442,-0.543206 0.527448,-0.114934 0.955704,0.160139 l 6.209688,3.987588 1.481406,6.798205 -5.362619,8.35095 q -0.27501,0.42826 -0.802458,0.54319 -0.527449,0.11493 -0.955704,-0.16014 z m -3.516308,0.76623 q -0.428255,-0.27499 -0.54319,-0.80244 -0.114934,-0.52745 0.160139,-0.95571 l 7.092873,-11.045394 1.070639,0.687508 -7.092873,11.045416 8.886285,5.70636 -0.687524,1.07064 z"
           id="path1"
           style="fill:#ffffff;fill-opacity:1;stroke-width:0.0212063" /></g><g
         id="text5"
         style="font-size:16.1973px;line-height:12.1478px;fill:#ffffff;fill-opacity:0.133333;stroke-width:0.303699"
         inkscape:label="bg"
         transform="scale(0.95767554,1.044195)"
         aria-label="+ - + - + - + - + - + - +&#10;- + - + - + - + - + - + -&#10;+ - + - + - + - + - + - +&#10;- + - + - + - + - + - + -&#10;+ - + - + - + - + - + - +&#10;- + - + - + - + - + - + -"><path
           d="m 36.52503,67.818048 h 3.223263 v 1.150008 H 36.52503 V 72.3047 h -1.166205 v -3.336644 h -3.223263 v -1.150008 h 3.223263 v -3.352841 h 1.166205 z m 8.924725,2.57537 v -1.263389 h 3.919746 v 1.263389 z m 13.978283,-2.57537 H 62.6513 v 1.150008 H 59.428038 V 72.3047 h -1.166206 v -3.336644 h -3.223263 v -1.150008 h 3.223263 v -3.352841 h 1.166206 z m 8.924724,2.57537 v -1.263389 h 3.919747 v 1.263389 z m 13.978283,-2.57537 h 3.223263 v 1.150008 H 82.331045 V 72.3047 H 81.16484 v -3.336644 h -3.223263 v -1.150008 h 3.223263 v -3.352841 h 1.166205 z m 8.924725,2.57537 v -1.263389 h 3.919746 v 1.263389 z m 13.97828,-2.57537 h 3.22327 v 1.150008 h -3.22327 V 72.3047 h -1.1662 v -3.336644 h -3.22327 v -1.150008 h 3.22327 v -3.352841 h 1.1662 z m 8.92473,2.57537 v -1.263389 h 3.91974 v 1.263389 z m 13.97828,-2.57537 h 3.22326 v 1.150008 h -3.22326 V 72.3047 h -1.16621 v -3.336644 h -3.22326 v -1.150008 h 3.22326 v -3.352841 h 1.16621 z m 8.92472,2.57537 v -1.263389 h 3.91975 v 1.263389 z m 13.97828,-2.57537 h 3.22326 v 1.150008 h -3.22326 V 72.3047 h -1.16621 v -3.336644 h -3.22326 v -1.150008 h 3.22326 v -3.352841 h 1.16621 z m 8.92472,2.57537 v -1.263389 h 3.91975 v 1.263389 z m 13.9783,-2.57537 h 3.22326 v 1.150008 h -3.22326 V 72.3047 h -1.16621 v -3.336644 h -3.22326 v -1.150008 h 3.22326 v -3.352841 h 1.16621 z"
           id="path3" /><path
           d="m 31.973589,82.541219 v -1.26339 h 3.919747 v 1.26339 z m 13.978282,-2.575371 h 3.223263 v 1.150008 H 45.951871 V 84.4525 h -1.166206 v -3.336644 h -3.223262 v -1.150008 h 3.223262 v -3.352841 h 1.166206 z m 8.924725,2.575371 v -1.26339 h 3.919747 v 1.26339 z m 13.978283,-2.575371 h 3.223263 v 1.150008 H 68.854879 V 84.4525 h -1.166205 v -3.336644 h -3.223263 v -1.150008 h 3.223263 v -3.352841 h 1.166205 z m 8.924725,2.575371 v -1.26339 h 3.919747 v 1.26339 z m 13.978279,-2.575371 h 3.223263 v 1.150008 H 91.757883 V 84.4525 h -1.166205 v -3.336644 h -3.223263 v -1.150008 h 3.223263 v -3.352841 h 1.166205 z m 8.924727,2.575371 v -1.26339 h 3.91975 v 1.26339 z m 13.97828,-2.575371 h 3.22327 v 1.150008 h -3.22327 V 84.4525 h -1.1662 v -3.336644 h -3.22326 v -1.150008 h 3.22326 v -3.352841 h 1.1662 z m 8.92473,2.575371 v -1.26339 h 3.91975 v 1.26339 z m 13.97827,-2.575371 h 3.22327 v 1.150008 h -3.22327 V 84.4525 h -1.1662 v -3.336644 h -3.22326 v -1.150008 h 3.22326 v -3.352841 h 1.1662 z m 8.92473,2.575371 v -1.26339 h 3.91975 v 1.26339 z m 13.97828,-2.575371 h 3.22326 v 1.150008 H 160.4669 V 84.4525 h -1.1662 v -3.336644 h -3.22327 v -1.150008 h 3.22327 v -3.352841 h 1.1662 z m 8.92473,2.575371 v -1.26339 h 3.91975 v 1.26339 z"
           id="path4" /><path
           d="m 36.52503,92.113648 h 3.223263 v 1.150008 H 36.52503 V 96.6003 h -1.166205 v -3.336644 h -3.223263 v -1.150008 h 3.223263 v -3.352841 h 1.166205 z m 8.924725,2.575371 v -1.26339 h 3.919746 v 1.26339 z M 59.428038,92.113648 H 62.6513 v 1.150008 H 59.428038 V 96.6003 h -1.166206 v -3.336644 h -3.223263 v -1.150008 h 3.223263 v -3.352841 h 1.166206 z m 8.924724,2.575371 v -1.26339 h 3.919747 v 1.26339 z m 13.978283,-2.575371 h 3.223263 v 1.150008 H 82.331045 V 96.6003 H 81.16484 v -3.336644 h -3.223263 v -1.150008 h 3.223263 v -3.352841 h 1.166205 z m 8.924725,2.575371 v -1.26339 h 3.919746 v 1.26339 z m 13.97828,-2.575371 h 3.22327 v 1.150008 h -3.22327 V 96.6003 h -1.1662 v -3.336644 h -3.22327 v -1.150008 h 3.22327 v -3.352841 h 1.1662 z m 8.92473,2.575371 v -1.26339 h 3.91974 v 1.26339 z m 13.97828,-2.575371 h 3.22326 v 1.150008 h -3.22326 V 96.6003 h -1.16621 v -3.336644 h -3.22326 v -1.150008 h 3.22326 v -3.352841 h 1.16621 z m 8.92472,2.575371 v -1.26339 h 3.91975 v 1.26339 z m 13.97828,-2.575371 h 3.22326 v 1.150008 h -3.22326 V 96.6003 h -1.16621 v -3.336644 h -3.22326 v -1.150008 h 3.22326 v -3.352841 h 1.16621 z m 8.92472,2.575371 v -1.26339 h 3.91975 v 1.26339 z m 13.9783,-2.575371 h 3.22326 v 1.150008 h -3.22326 V 96.6003 h -1.16621 v -3.336644 h -3.22326 v -1.150008 h 3.22326 v -3.352841 h 1.16621 z"
           id="path5" /><path
           d="m 31.973589,106.83682 v -1.26339 h 3.919747 v 1.26339 z m 13.978282,-2.57537 h 3.223263 v 1.15001 h -3.223263 v 3.33664 h -1.166206 v -3.33664 h -3.223262 v -1.15001 h 3.223262 v -3.35284 h 1.166206 z m 8.924725,2.57537 v -1.26339 h 3.919747 v 1.26339 z m 13.978283,-2.57537 h 3.223263 v 1.15001 h -3.223263 v 3.33664 h -1.166205 v -3.33664 h -3.223263 v -1.15001 h 3.223263 v -3.35284 h 1.166205 z m 8.924725,2.57537 v -1.26339 h 3.919747 v 1.26339 z m 13.978279,-2.57537 h 3.223263 v 1.15001 h -3.223263 v 3.33664 h -1.166205 v -3.33664 h -3.223263 v -1.15001 h 3.223263 v -3.35284 h 1.166205 z m 8.924727,2.57537 v -1.26339 h 3.91975 v 1.26339 z m 13.97828,-2.57537 h 3.22327 v 1.15001 h -3.22327 v 3.33664 h -1.1662 v -3.33664 h -3.22326 v -1.15001 h 3.22326 v -3.35284 h 1.1662 z m 8.92473,2.57537 v -1.26339 h 3.91975 v 1.26339 z m 13.97827,-2.57537 h 3.22327 v 1.15001 h -3.22327 v 3.33664 h -1.1662 v -3.33664 h -3.22326 v -1.15001 h 3.22326 v -3.35284 h 1.1662 z m 8.92473,2.57537 v -1.26339 h 3.91975 v 1.26339 z m 13.97828,-2.57537 h 3.22326 v 1.15001 h -3.22326 v 3.33664 h -1.1662 v -3.33664 h -3.22327 v -1.15001 h 3.22327 v -3.35284 h 1.1662 z m 8.92473,2.57537 v -1.26339 h 3.91975 v 1.26339 z"
           id="path6" /><path
           d="m 36.52503,116.40925 h 3.223263 v 1.15001 H 36.52503 v 3.33664 h -1.166205 v -3.33664 h -3.223263 v -1.15001 h 3.223263 v -3.35284 h 1.166205 z m 8.924725,2.57537 v -1.26339 h 3.919746 v 1.26339 z m 13.978283,-2.57537 H 62.6513 v 1.15001 h -3.223262 v 3.33664 h -1.166206 v -3.33664 h -3.223263 v -1.15001 h 3.223263 v -3.35284 h 1.166206 z m 8.924724,2.57537 v -1.26339 h 3.919747 v 1.26339 z m 13.978283,-2.57537 h 3.223263 v 1.15001 h -3.223263 v 3.33664 H 81.16484 v -3.33664 h -3.223263 v -1.15001 h 3.223263 v -3.35284 h 1.166205 z m 8.924725,2.57537 v -1.26339 h 3.919746 v 1.26339 z m 13.97828,-2.57537 h 3.22327 v 1.15001 h -3.22327 v 3.33664 h -1.1662 v -3.33664 h -3.22327 v -1.15001 h 3.22327 v -3.35284 h 1.1662 z m 8.92473,2.57537 v -1.26339 h 3.91974 v 1.26339 z m 13.97828,-2.57537 h 3.22326 v 1.15001 h -3.22326 v 3.33664 h -1.16621 v -3.33664 h -3.22326 v -1.15001 h 3.22326 v -3.35284 h 1.16621 z m 8.92472,2.57537 v -1.26339 h 3.91975 v 1.26339 z m 13.97828,-2.57537 h 3.22326 v 1.15001 h -3.22326 v 3.33664 h -1.16621 v -3.33664 h -3.22326 v -1.15001 h 3.22326 v -3.35284 h 1.16621 z m 8.92472,2.57537 v -1.26339 h 3.91975 v 1.26339 z m 13.9783,-2.57537 h 3.22326 v 1.15001 h -3.22326 v 3.33664 h -1.16621 v -3.33664 h -3.22326 v -1.15001 h 3.22326 v -3.35284 h 1.16621 z"
           id="path7" /><path
           d="m 31.973589,131.13242 v -1.26339 h 3.919747 v 1.26339 z m 13.978282,-2.57537 h 3.223263 v 1.15001 h -3.223263 v 3.33664 h -1.166206 v -3.33664 h -3.223262 v -1.15001 h 3.223262 v -3.35284 h 1.166206 z m 8.924725,2.57537 v -1.26339 h 3.919747 v 1.26339 z m 13.978283,-2.57537 h 3.223263 v 1.15001 h -3.223263 v 3.33664 h -1.166205 v -3.33664 h -3.223263 v -1.15001 h 3.223263 v -3.35284 h 1.166205 z m 8.924725,2.57537 v -1.26339 h 3.919747 v 1.26339 z m 13.978279,-2.57537 h 3.223263 v 1.15001 h -3.223263 v 3.33664 h -1.166205 v -3.33664 h -3.223263 v -1.15001 h 3.223263 v -3.35284 h 1.166205 z m 8.924727,2.57537 v -1.26339 h 3.91975 v 1.26339 z m 13.97828,-2.57537 h 3.22327 v 1.15001 h -3.22327 v 3.33664 h -1.1662 v -3.33664 h -3.22326 v -1.15001 h 3.22326 v -3.35284 h 1.1662 z m 8.92473,2.57537 v -1.26339 h 3.91975 v 1.26339 z m 13.97827,-2.57537 h 3.22327 v 1.15001 h -3.22327 v 3.33664 h -1.1662 v -3.33664 h -3.22326 v -1.15001 h 3.22326 v -3.35284 h 1.1662 z m 8.92473,2.57537 v -1.26339 h 3.91975 v 1.26339 z m 13.97828,-2.57537 h 3.22326 v 1.15001 h -3.22326 v 3.33664 h -1.1662 v -3.33664 h -3.22327 v -1.15001 h 3.22327 v -3.35284 h 1.1662 z m 8.92473,2.57537 v -1.26339 h 3.91975 v 1.26339 z"
           id="path8" /></g><g
         id="g1"
         transform="matrix(0.73684209,0,0,0.73684209,101.92168,-20.307171)"><rect
           style="fill:#ffffff;fill-opacity:1;stroke-width:0.158881"
           id="rect18"
           width="41.84996"
           height="14.457258"
           x="40.328144"
           y="125.54988"
           rx="4.7826085"
           ry="4.8253965"
           inkscape:label="alpha label" /><path
           d="m 50.940304,136.58305 -0.894125,-2.29769 h -2.942294 l -0.883728,2.29769 h -0.946109 l 2.900707,-7.4545 h 0.842141 l 2.89031,7.4545 z m -2.006583,-5.37514 q -0.03119,-0.0832 -0.103968,-0.30151 -0.07278,-0.21833 -0.145555,-0.44706 -0.06238,-0.23913 -0.103968,-0.36389 -0.07278,0.3223 -0.166349,0.63421 -0.09357,0.3015 -0.155952,0.47825 l -0.84214,2.24571 h 2.349676 z m 3.992371,5.37514 v -7.42331 h 0.935712 v 6.59157 h 3.243802 v 0.83174 z m 7.412921,-7.42331 q 1.455552,0 2.120947,0.57182 0.665395,0.57183 0.665395,1.61151 0,0.61341 -0.280713,1.15404 -0.270317,0.53024 -0.925315,0.86294 -0.644602,0.33269 -1.75706,0.33269 H 59.30973 v 2.89031 h -0.935712 v -7.42331 z m -0.08317,0.80055 H 59.30973 v 2.9319 h 0.748569 q 1.060474,0 1.580314,-0.34309 0.51984,-0.3431 0.51984,-1.16445 0,-0.71738 -0.457459,-1.07087 -0.457459,-0.35349 -1.445155,-0.35349 z m 10.08489,6.62276 h -0.935712 v -3.46213 h -3.805229 v 3.46213 h -0.935712 v -7.42331 h 0.935712 v 3.13983 h 3.805229 v -3.13983 h 0.935712 z m 6.685135,0 -0.894125,-2.29769 h -2.942294 l -0.883728,2.29769 h -0.946109 l 2.900707,-7.4545 h 0.842141 l 2.89031,7.4545 z m -2.006583,-5.37514 q -0.03119,-0.0832 -0.103968,-0.30151 -0.07278,-0.21833 -0.145555,-0.44706 -0.06238,-0.23913 -0.103968,-0.36389 -0.07278,0.3223 -0.166349,0.63421 -0.09357,0.3015 -0.155952,0.47825 l -0.84214,2.24571 h 2.349676 z"
           id="text18"
           style="font-size:10.3968px;line-height:7.79756px;fill:#3d83ff;stroke-width:0.194939"
           inkscape:label="alpha"
           aria-label="ALPHA" /></g></g></g></svg>
