<?xml version="1.0" encoding="UTF-8" standalone="no"?>
<svg
   height="30"
   viewBox="0 -960 600 600"
   width="30"
   version="1.1"
   id="svg10054"
   sodipodi:docname="update-log-logo.svg"
   inkscape:version="1.2 (dc2aedaf03, 2022-05-15)"
   xml:space="preserve"
   xmlns:inkscape="http://www.inkscape.org/namespaces/inkscape"
   xmlns:sodipodi="http://sodipodi.sourceforge.net/DTD/sodipodi-0.dtd"
   xmlns="http://www.w3.org/2000/svg"
   xmlns:svg="http://www.w3.org/2000/svg"><defs
     id="defs10058" /><sodipodi:namedview
     id="namedview10056"
     pagecolor="#ffffff"
     bordercolor="#000000"
     borderopacity="0.25"
     inkscape:showpageshadow="2"
     inkscape:pageopacity="0.0"
     inkscape:pagecheckerboard="0"
     inkscape:deskcolor="#d1d1d1"
     showgrid="false"
     inkscape:zoom="8.875"
     inkscape:cx="0.84507042"
     inkscape:cy="32.450704"
     inkscape:window-width="1920"
     inkscape:window-height="1046"
     inkscape:window-x="-11"
     inkscape:window-y="-11"
     inkscape:window-maximized="1"
     inkscape:current-layer="svg10054" /><path
     d="m -67.982125,-612.4339 q -11.00305,-9.74171 -11.93639,-25.28602 -0.9334,-15.54432 8.82518,-26.52836 L 181.00234,-948.00285 q 9.75854,-10.98405 25.32972,-11.91581 15.57118,-0.93175 26.57422,8.80995 l 29.79988,26.38378 11.38497,-12.81472 q 5.52984,-6.22429 13.48844,-6.70052 7.95861,-0.47624 14.19366,5.04407 6.4299,5.69281 7.03899,13.75458 0.60863,8.06136 -4.92121,14.28566 l -11.38497,12.81472 155.87631,138.00748 11.38496,-12.81472 q 5.52985,-6.2243 13.48845,-6.70053 7.95861,-0.47623 14.19365,5.04407 6.42991,5.69281 7.039,13.75458 0.60863,8.06137 -4.92121,14.28567 l -11.38497,12.81471 29.79989,26.38379 q 11.00303,9.7417 11.9364,25.28602 0.93336,15.54432 -8.82518,26.52836 l -252.09569,283.75457 q -9.75854,10.98404 -25.32973,11.91581 -15.57119,0.93175 -26.57422,-8.80995 z m 24.39636,-27.46012 275.075825,243.54262 174.84057,-196.79753 -275.07584,-243.54262 z m 243.255455,2.77745 q -7.79381,-6.90037 -8.39013,-16.83146 -0.59632,-9.93108 6.31599,-17.71146 6.91229,-7.78036 16.86055,-8.37565 9.94825,-0.59529 17.74207,6.30509 7.79382,6.90037 8.39014,16.83146 0.59631,9.93109 -6.31599,17.71146 -6.9123,7.78037 -16.86056,8.37565 -9.94826,0.59529 -17.74207,-6.30509 z m -73.35355,-64.94469 q -7.79382,-6.90038 -8.39014,-16.83147 -0.59631,-9.93108 6.31599,-17.71145 6.9123,-7.78037 16.86055,-8.37566 9.94826,-0.59529 17.74207,6.30508 7.79382,6.90038 8.39013,16.83147 0.59633,9.93109 -6.31597,17.71146 -6.91231,7.78036 -16.86056,8.37566 -9.94825,0.59529 -17.74207,-6.30509 z m 146.70711,129.8894 q -7.79382,-6.90038 -8.39013,-16.83147 -0.59633,-9.93109 6.31598,-17.71146 6.9123,-7.78036 16.86056,-8.37565 9.94825,-0.59529 17.74207,6.30508 7.79381,6.90038 8.39013,16.83147 0.59632,9.93108 -6.31599,17.71145 -6.91229,7.78037 -16.86055,8.37566 -9.94826,0.59529 -17.74207,-6.30508 z m -138.41051,8.28229 q -7.79382,-6.90038 -8.39013,-16.83147 -0.59632,-9.93109 6.31598,-17.71146 6.9123,-7.78036 16.86056,-8.37565 9.94825,-0.5953 17.74206,6.30508 7.79382,6.90037 8.39014,16.83146 0.59632,9.93109 -6.31598,17.71146 -6.9123,7.78037 -16.86056,8.37566 -9.94826,0.59529 -17.74207,-6.30508 z m -73.353558,-64.9447 q -7.79381,-6.90038 -8.39013,-16.83147 -0.59632,-9.93109 6.31599,-17.71146 6.91229,-7.78036 16.86055,-8.37566 9.94826,-0.59528 17.74207,6.30509 7.793808,6.90038 8.390128,16.83147 0.59632,9.93108 -6.315978,17.71145 -6.9123,7.78037 -16.86056,8.37566 -9.94825,0.59529 -17.74207,-6.30508 z m 146.707108,129.88939 q -7.79381,-6.90037 -8.39013,-16.83146 -0.59632,-9.93109 6.31599,-17.71146 6.9123,-7.78037 16.86055,-8.37565 9.94826,-0.59529 17.74207,6.30508 7.79382,6.90037 8.39014,16.83146 0.59632,9.93109 -6.31598,17.71146 -6.9123,7.78037 -16.86056,8.37566 -9.94825,0.59528 -17.74208,-6.30509 z"
     id="path12419"
     style="stroke-width:0.612263;fill:#ffffff;fill-opacity:1" /><path
     style="fill:#ffffff;fill-opacity:1;stroke-width:20"
     d="M -76.619718,-558.87324 -797.74648,-975.77465"
     id="path12791" /></svg>
