<?xml version="1.0" encoding="UTF-8"?>
<svg version="1.1" viewBox="0 0 600 528" xml:space="preserve" xmlns="http://www.w3.org/2000/svg"><defs><linearGradient id="a" x1="99.35" x2="99.35" y1=".50038" y2="200.75" gradientTransform="scale(2.9963 .33375)" gradientUnits="userSpaceOnUse"><stop stop-color="#6200ee" offset="0"/><stop stop-color="#4850ed" offset="1"/></linearGradient><filter id="e" x="0" y="0" width="624" height="90.83" filterUnits="userSpaceOnUse"><feOffset dy="3" input="SourceAlpha"/><feGaussianBlur result="blur" stdDeviation="4"/><feFlood flood-opacity=".161"/><feComposite in2="blur" operator="in"/><feComposite in="SourceGraphic"/></filter><filter id="d" x="28" y="62" width="566" height="162" filterUnits="userSpaceOnUse"><feOffset dy="3" input="SourceAlpha"/><feGaussianBlur result="blur-2" stdDeviation="4"/><feFlood flood-opacity=".161"/><feComposite in2="blur-2" operator="in"/><feComposite in="SourceGraphic"/></filter><filter id="c" x="28" y="62" width="566" height="162" filterUnits="userSpaceOnUse"><feOffset dy="3" input="SourceAlpha"/><feGaussianBlur result="blur-3" stdDeviation="3"/><feFlood flood-opacity=".161" result="color"/><feComposite in="SourceGraphic" in2="blur-3" operator="out"/><feComposite in="color" operator="in"/><feComposite in2="SourceGraphic" operator="in"/></filter><filter id="b" x="17" y="216" width="590" height="301" filterUnits="userSpaceOnUse"><feOffset dy="3" input="SourceAlpha"/><feGaussianBlur result="blur-4" stdDeviation="4"/><feFlood flood-opacity=".161"/><feComposite in2="blur-4" operator="in"/><feComposite in="SourceGraphic"/></filter><filter id="f" x="302.5" y="217.5" width="19" height="296" filterUnits="userSpaceOnUse"><feOffset dy="2" input="SourceAlpha"/><feGaussianBlur result="blur-5" stdDeviation="3"/><feFlood flood-color="#ddd"/><feComposite in2="blur-5" operator="in"/><feComposite in="SourceGraphic"/></filter></defs><rect width="600" height="527" fill="#faf7ff" data-name="Rectangle 2"/><g transform="translate(-12,-8)" filter="url(#e)"><path transform="translate(14.32,8.83)" d="m-2.321 50.167v-50h600v50l-590.35 7.594s-7.237 5.76-9.649 9.239" fill="url(#a)" data-name="Path 3"/></g><g transform="matrix(1.0464 0 0 .99633 -10.906 1.4912)" data-type="innerShadowGroup"><g transform="translate(-12,-9)" filter="url(#d)"><rect transform="translate(40,71)" width="542" height="138" rx="18" fill="#fff" data-name="Rectangle 1"/></g><g transform="translate(-12,-9)" filter="url(#c)"><rect transform="translate(40,71)" width="542" height="138" rx="18" fill="#fff" data-name="Rectangle 1"/></g></g><path d="m144.54 178v-65.086" fill="none" stroke="#a7a7a7" stroke-linecap="round" stroke-miterlimit="10" stroke-width="1.5" data-name="Path 12"/><path d="m336.88 22.671q-1.0254 1.2695-2.3438 3.125-0.90332-0.70801-1.7456-1.4648-0.32959 7.8003-0.51269 9.4238-0.18311 1.6235-1.2085 2.5024-1.0254 0.89111-2.8686 0.89111-2.5146 0-4.7485-0.07324-0.21972-2.0264-0.51269-3.6865 3.1738 0.26856 4.5898 0.26856 0.84229 0 1.062-0.74463 0.23194-0.75684 0.37842-6.1401h-6.0303q-0.20752 3.4302-0.98877 5.2612-0.76904 1.8311-2.4292 3.3081-1.648 1.4771-4.1504 2.5635-1.5137-2.0264-2.5391-3.1006 2.1728-0.8667 3.5767-1.9165 1.416-1.062 2.0264-2.2461 0.62256-1.1963 0.83008-3.8696h-3.479v-1.9409q-0.61035 0.46387-1.2451 0.89111-1.123-1.5869-2.2217-2.7588 5.5176-3.8818 8.3252-9.2285l3.2715 1.416q-2.5513 4.8096-6.4087 8.252h14.282q-3.7476-3.6133-6.189-8.0566l3.0273-1.5625q3.125 5.3955 8.252 8.8867zm0.56152 5.7373q2.1851-3.5889 3.064-6.7871h-2.8442v-3.1982h2.8809v-4.4922h3.2715v4.4922h2.4902v3.1982h-2.4902v2.2461q2.0752 1.0498 3.3936 1.8311l-1.6113 2.832q-0.79346-0.58594-1.7822-1.2207v10.4h-3.2715v-9.314q-0.91553 2.1851-2.2217 4.3091-0.36621-2.0996-0.87891-4.2969zm22.925-14.185 1.0742 3.2715q-3.8818 0.68359-10.669 1.2207v3.7109h10.938v3.2227h-4.0283v11.938h-3.3203v-11.938h-3.5889q0 7.7515-3.3203 12.207-1.2695-1.5869-2.6123-2.8076 2.6123-3.3447 2.6123-9.2041v-10.327q8.2031-0.41504 12.915-1.2939zm2.4414 3.7842h2.6367v-4.2969h3.1494v4.2969h2.417v3.1738h-2.417v3.7476q1.3306-0.26855 2.5391-0.54932-0.12207 2.1484-0.0977 3.2471l-2.4414 0.56152v6.3477q0 1.6357-0.86669 2.3926-0.8667 0.75684-4.2114 0.75684-0.24414-1.1963-0.83008-3.3203 0.95215 0.07324 1.6357 0.07324 0.64698 0 0.87891-0.25635 0.23193-0.26856 0.24414-0.91553v-4.3213l-2.6367 0.65918-0.34179-3.54 2.9785-0.5127v-4.3701h-2.6367zm22.803 5.3955v2.7344q-1.0864 3.479-3.2471 6.2622 1.9653 1.3062 4.4189 2.1118-0.90332 1.3672-2.0508 3.2959-2.4536-1.2207-4.5044-3.064-1.8066 1.6846-4.1138 3.064-0.43946-0.85449-1.2451-2.0264v1.9775h-3.2227v-23.12h13.647q-0.0366 2.478-0.17089 4.187-0.13428 1.709-1.0986 2.5879-0.96435 0.87891-2.6001 0.90332-1.6357 0.01221-4.0649-0.01221-0.19531-1.2695-0.65918-3.0029 2.1118 0.14648 3.4668 0.14648 0.92773 0 1.3184-0.36621 0.39062-0.36621 0.39062-1.5625h-7.0068v5.8838zm-8.4229 3.0518q1.1353 2.2827 2.832 4.0039 1.5137-1.8311 2.2461-4.1748h-7.3975v7.9956q1.7456-0.81787 3.125-1.8677-1.6235-1.9653-2.9297-4.4189zm10.522-4.0771h2.832q-1.123-0.74463-2.417-1.416 2.4902-3.1006 3.7109-6.9824l3.2471 0.85449q-0.37842 1.0132-0.75683 1.9287h3.9551v-3.125h3.5156v3.125h8.4717v2.9297h-8.4717v2.6855h9.8389v2.9297h-23.926zm3.54 0h7.0312v-2.6855h-5.3589q-0.80567 1.5015-1.6724 2.6855zm-0.83007 15.405v-10.718h18.506v10.718h-3.3203v-1.2939h-11.865v1.2939zm15.186-7.6904h-11.865v3.3691h11.865z" fill="#f7f7f7" aria-label="分析报告"/><path d="m192.66 21.165a2.119 2.119 0 0 0 0.367 1.161 4.954 4.954 0 0 0 0.947 0.963 13.4 13.4 0 0 0 1.345 0.9q0.749 0.428 1.528 0.917a17.043 17.043 0 0 1 1.543 1.039 8.025 8.025 0 0 1 1.345 1.284 6.141 6.141 0 0 1 0.963 1.62 5.813 5.813 0 0 1 0.4 2.047v0.122a7.028 7.028 0 0 1-0.306 2.185 5.515 5.515 0 0 1-0.81 1.6 4.7 4.7 0 0 1-1.177 1.115 6.773 6.773 0 0 1-1.421 0.688 7.654 7.654 0 0 1-1.5 0.367 12 12 0 0 1-1.421 0.122h-0.153a8.918 8.918 0 0 1-2.277-0.26 6.364 6.364 0 0 1-1.681-0.688 4.987 4.987 0 0 1-1.177-1.008 5.522 5.522 0 0 1-0.733-1.161 5.767 5.767 0 0 1-0.4-1.207 5.567 5.567 0 0 1-0.122-1.115 2.205 2.205 0 0 1 0.183-0.932 1.819 1.819 0 0 1 0.474-0.642 1.986 1.986 0 0 1 0.688-0.382 2.79 2.79 0 0 1 0.825-0.122 2.842 2.842 0 0 1 0.81 0.122 2.244 2.244 0 0 1 0.764 0.382 1.973 1.973 0 0 1 0.81 1.543 1.681 1.681 0 0 0 1.925 1.986 4.209 4.209 0 0 0 0.84-0.107 1.633 1.633 0 0 0 0.672-0.351 1.735 1.735 0 0 0 0.428-0.672 2.945 2.945 0 0 0 0.168-1.07 2.843 2.843 0 0 0-0.367-1.436 4.856 4.856 0 0 0-0.932-1.192 9.4 9.4 0 0 0-1.329-1.039q-0.749-0.5-1.528-0.993-0.779-0.5-1.528-1.039a9.977 9.977 0 0 1-1.329-1.192 5.552 5.552 0 0 1-0.963-1.421 4.437 4.437 0 0 1-0.367-1.772v-0.244a7.93 7.93 0 0 1 0.428-2.72 4.035 4.035 0 0 1 1.238-1.727 4.951 4.951 0 0 1 2.017-0.9 12.231 12.231 0 0 1 2.735-0.275h0.4a8.07 8.07 0 0 1 2.384 0.306 5.45 5.45 0 0 1 1.62 0.779 3.756 3.756 0 0 1 1.024 1.07 4.956 4.956 0 0 1 0.565 1.177 5.18 5.18 0 0 1 0.229 1.085q0.046 0.5 0.046 0.81a1.917 1.917 0 0 1-0.183 0.84 1.792 1.792 0 0 1-0.474 0.626 2.172 2.172 0 0 1-0.7 0.413 2.647 2.647 0 0 1-0.871 0.138 2.076 2.076 0 0 1-0.733-0.138 2.777 2.777 0 0 1-0.657-0.382 2.07 2.07 0 0 1-0.474-0.52 1.179 1.179 0 0 1-0.183-0.611 2.552 2.552 0 0 0-0.458-1.742 1.684 1.684 0 0 0-1.314-0.489 7.051 7.051 0 0 0-0.81 0.046 1.49 1.49 0 0 0-0.688 0.26 1.4 1.4 0 0 0-0.474 0.626 3.422 3.422 0 0 0-0.168 1.207z" fill="#fff"/><path d="m210.26 37.301a9.785 9.785 0 0 1-2.9-0.382 7.1 7.1 0 0 1-2.047-0.993 5.467 5.467 0 0 1-1.329-1.375 7.29 7.29 0 0 1-0.779-1.574 8.2 8.2 0 0 1-0.351-1.528 12.477 12.477 0 0 1-0.076-1.268q0-0.229 0.031-0.55a1.371 1.371 0 0 1 0.275-0.642 1.749 1.749 0 0 1 0.718-0.52 3.753 3.753 0 0 1 1.421-0.214q0.306 0 0.764 0.046a2.944 2.944 0 0 1 0.886 0.2 1.948 1.948 0 0 1 0.733 0.458 1.115 1.115 0 0 1 0.306 0.825 10.805 10.805 0 0 0 0.092 1.482 3.341 3.341 0 0 0 0.367 1.115 1.767 1.767 0 0 0 0.718 0.7 2.49 2.49 0 0 0 1.177 0.244 1.85 1.85 0 0 0 1.146-0.306 1.878 1.878 0 0 0 0.6-0.688 2.5 2.5 0 0 0 0.244-0.993v-11.211h-4q-0.611 0-1.222-0.061a3.811 3.811 0 0 1-1.115-0.275 2 2 0 0 1-0.81-0.642 1.963 1.963 0 0 1-0.306-1.161 2.066 2.066 0 0 1 0.306-1.192 1.951 1.951 0 0 1 0.81-0.657 3.525 3.525 0 0 1 1.115-0.29q0.611-0.061 1.222-0.061h6.225a2.646 2.646 0 0 1 1.375 0.306 1.984 1.984 0 0 1 0.779 0.81 3.176 3.176 0 0 1 0.336 1.115 10.593 10.593 0 0 1 0.076 1.283v11.613a7 7 0 0 1-0.458 2.689 5.694 5.694 0 0 1-1.161 1.818 5.058 5.058 0 0 1-1.528 1.085 8.543 8.543 0 0 1-1.589 0.565 8.1 8.1 0 0 1-1.314 0.2q-0.565 0.031-0.733 0.031z" fill="#fff"/><path d="m225.3 27.945h4.859l-2.261-8.19h-0.336zm9.6 1.5q0.031 1.039 0.076 2.124t0.046 2.093v0.458q0 0.581-0.046 1.131a2.755 2.755 0 0 1-0.229 0.978 1.566 1.566 0 0 1-0.626 0.688 2.335 2.335 0 0 1-1.207 0.26 2.371 2.371 0 0 1-1.222-0.26 1.665 1.665 0 0 1-0.642-0.688 2.874 2.874 0 0 1-0.244-0.978q-0.031-0.55-0.031-1.131v-2.139h-6.117v2.139q0 0.581-0.046 1.131a2.471 2.471 0 0 1-0.244 0.978 1.566 1.566 0 0 1-0.626 0.688 3.006 3.006 0 0 1-2.445 0 1.566 1.566 0 0 1-0.626-0.688 2.754 2.754 0 0 1-0.229-0.978q-0.031-0.55-0.031-1.131v-1.465q0.015-0.535 0.031-1.085t0.031-1.085q0.015-0.55 0.031-1.039 0.764-2.659 1.6-5.378 0.84-2.735 1.6-5.409a9.043 9.043 0 0 1 0.367-1.085 2.963 2.963 0 0 1 0.565-0.917 2.426 2.426 0 0 1 0.9-0.626 3.48 3.48 0 0 1 1.406-0.244h1.528a3.435 3.435 0 0 1 1.39 0.244 2.4 2.4 0 0 1 0.917 0.626 2.751 2.751 0 0 1 0.55 0.917 11.312 11.312 0 0 1 0.382 1.085z" fill="#fff"/><path d="m255.15 28.745v4.951q0 0.657-0.046 1.283a2.943 2.943 0 0 1-0.26 1.115 1.784 1.784 0 0 1-0.688 0.795 2.621 2.621 0 0 1-1.36 0.29 2.549 2.549 0 0 1-1.329-0.29 1.814 1.814 0 0 1-0.672-0.795 3.383 3.383 0 0 1-0.26-1.115q-0.031-0.626-0.031-1.283v-14.426q0-0.657 0.031-1.283a3.384 3.384 0 0 1 0.26-1.115 1.722 1.722 0 0 1 0.672-0.779 2.445 2.445 0 0 1 1.329-0.306h5.042a8.925 8.925 0 0 1 3.392 0.795 6.881 6.881 0 0 1 1.238 0.764 4.992 4.992 0 0 1 1.085 1.131 5.286 5.286 0 0 1 0.779 1.574 6.838 6.838 0 0 1 0.29 2.093 7.376 7.376 0 0 1-0.52 2.873 5.385 5.385 0 0 1-1.482 2.063 6.489 6.489 0 0 1-2.368 1.253 11.064 11.064 0 0 1-3.148 0.413zm2.078-3.637a3.356 3.356 0 0 0 1.375-0.367 2.652 2.652 0 0 0 0.5-0.351 2.48 2.48 0 0 0 0.443-0.52 2.621 2.621 0 0 0 0.306-0.749 3.565 3.565 0 0 0 0.122-0.978 2.969 2.969 0 0 0-0.122-0.9 2.269 2.269 0 0 0-0.29-0.672 2.184 2.184 0 0 0-0.413-0.489 2.882 2.882 0 0 0-0.474-0.336 3.549 3.549 0 0 0-1.3-0.351h-2.231v5.715z" fill="#fff"/><path d="m267.01 19.179q0-0.642 0.061-1.253a3.218 3.218 0 0 1 0.321-1.085 1.949 1.949 0 0 1 0.7-0.764 2.294 2.294 0 0 1 1.238-0.29 2.327 2.327 0 0 1 1.253 0.29 1.839 1.839 0 0 1 0.688 0.764 2.993 2.993 0 0 1 0.306 1.085 10.091 10.091 0 0 1 0.076 1.253v14.577a10.464 10.464 0 0 1-0.076 1.268 3.136 3.136 0 0 1-0.306 1.1 1.839 1.839 0 0 1-0.688 0.764 2.327 2.327 0 0 1-1.253 0.29 2.294 2.294 0 0 1-1.238-0.29 1.949 1.949 0 0 1-0.7-0.764 3.379 3.379 0 0 1-0.321-1.1q-0.061-0.626-0.061-1.268z" fill="#fff"/><path d="m275.63 25.384a10.592 10.592 0 0 1 0.076-1.284 3.4 3.4 0 0 1 0.321-1.115 2.036 2.036 0 0 1 0.718-0.779 2.314 2.314 0 0 1 1.268-0.306 2.2 2.2 0 0 1 1.238 0.306 1.923 1.923 0 0 1 0.7 0.779 3.16 3.16 0 0 1 0.306 1.115 10.589 10.589 0 0 1 0.076 1.284v5.959q0 0.443 0.031 0.856a2.563 2.563 0 0 0 0.183 0.718 1.326 1.326 0 0 0 2.124 0.275 2.719 2.719 0 0 0 0.611-1.131 7.514 7.514 0 0 0 0.306-1.681q0.076-0.978 0.076-2.093v-2.9a10.589 10.589 0 0 1 0.076-1.284 3.4 3.4 0 0 1 0.321-1.115 2.035 2.035 0 0 1 0.718-0.779 2.314 2.314 0 0 1 1.268-0.306 2.2 2.2 0 0 1 1.238 0.306 1.923 1.923 0 0 1 0.7 0.779 3.16 3.16 0 0 1 0.306 1.115 10.592 10.592 0 0 1 0.076 1.284v8.343q0 0.657-0.046 1.283a3.122 3.122 0 0 1-0.275 1.1 1.908 1.908 0 0 1-0.7 0.779 2.43 2.43 0 0 1-1.3 0.29 2.628 2.628 0 0 1-1.314-0.275 2.122 2.122 0 0 1-0.718-0.688 2.3 2.3 0 0 1-0.29-0.84 5.709 5.709 0 0 1-0.061-0.764 3.984 3.984 0 0 1-0.382 0.9 3.233 3.233 0 0 1-0.672 0.825 3.384 3.384 0 0 1-0.963 0.611 3.48 3.48 0 0 1-1.314 0.229 5.377 5.377 0 0 1-1.681-0.275 3.953 3.953 0 0 1-1.513-0.917 4.821 4.821 0 0 1-1.1-1.681 6.986 6.986 0 0 1-0.413-2.567z" fill="#fff"/><path d="m296.16 25.903a0.911 0.911 0 0 0 0.2 0.565 2.566 2.566 0 0 0 0.535 0.5 9.173 9.173 0 0 0 0.795 0.458q0.458 0.229 0.947 0.458 0.749 0.367 1.528 0.795a7.325 7.325 0 0 1 1.421 0.978 4.631 4.631 0 0 1 1.039 1.314 3.5 3.5 0 0 1 0.413 1.742 4.423 4.423 0 0 1-0.275 1.62 3.744 3.744 0 0 1-1.742 2.063 5.827 5.827 0 0 1-1.238 0.535 7.173 7.173 0 0 1-1.314 0.275 9.41 9.41 0 0 1-1.268 0.092 9.3 9.3 0 0 1-2.047-0.2 6.422 6.422 0 0 1-1.5-0.52 4.4 4.4 0 0 1-1.039-0.749 3.818 3.818 0 0 1-0.626-0.886 3.693 3.693 0 0 1-0.321-0.9 4.315 4.315 0 0 1-0.092-0.84 1.668 1.668 0 0 1 0.5-1.345 2.439 2.439 0 0 1 1.574-0.428 1.876 1.876 0 0 1 1.253 0.413 1.728 1.728 0 0 1 0.52 1.329 0.805 0.805 0 0 0 0.168 0.489 1.4 1.4 0 0 0 0.413 0.306 2.424 2.424 0 0 0 0.565 0.153q0.306 0.031 0.6 0.031a1.454 1.454 0 0 0 0.963-0.306 1.029 1.029 0 0 0 0.382-0.825 1.347 1.347 0 0 0-0.26-0.795 2.83 2.83 0 0 0-0.657-0.7 6.916 6.916 0 0 0-0.947-0.611q-0.52-0.306-1.07-0.611-0.688-0.367-1.39-0.779a8.26 8.26 0 0 1-1.253-0.917 4.387 4.387 0 0 1-0.917-1.131 2.972 2.972 0 0 1-0.351-1.452 4.574 4.574 0 0 1 0.382-1.986 3.212 3.212 0 0 1 1.146-1.3 4.964 4.964 0 0 1 1.818-0.718 14.454 14.454 0 0 1 2.46-0.244h0.244a8.766 8.766 0 0 1 2.093 0.214 4.967 4.967 0 0 1 1.436 0.565 2.954 2.954 0 0 1 0.9 0.764 3 3 0 0 1 0.489 0.871 2.859 2.859 0 0 1 0.2 0.825 6.02 6.02 0 0 1 0.046 0.672 1.374 1.374 0 0 1-0.2 0.764 1.411 1.411 0 0 1-0.5 0.474 2.383 2.383 0 0 1-0.7 0.244 7.1 7.1 0 0 1-0.825 0.076 1.794 1.794 0 0 1-0.672-0.122 1.9 1.9 0 0 1-0.5-0.306 1.428 1.428 0 0 1-0.336-0.413 1.045 1.045 0 0 1-0.107-0.443 1.084 1.084 0 0 0-0.474-0.886 1.767 1.767 0 0 0-1.054-0.306 2.072 2.072 0 0 0-0.5 0.061 1.138 1.138 0 0 0-0.428 0.183 0.978 0.978 0 0 0-0.306 0.336 1.23 1.23 0 0 0-0.107 0.55z" fill="#fff"/><text x="58.5" y="143" fill="#808080" font-family="MicrosoftYaHei, 'Microsoft YaHei'" font-size="12px"><tspan x="58.5" y="143">文件大小</tspan></text><text x="58" y="95" fill="#6200ee" font-family="MicrosoftYaHei, 'Microsoft YaHei'" font-size="15px"><tspan x="58" y="95">基本信息</tspan></text><text x="58" y="126" fill="#6200ee" font-family="MicrosoftYaHei, 'Microsoft YaHei'" font-size="16px" data-name="103.2MB"><tspan x="58" y="126">0.09MB</tspan></text><path d="m68.862 169.56c-7.561 0-7.361-5.2-9.14-3.5-0.615 0.38-0.683 0.344-1.007-0.306-0.458-1.019 1.78-0.863 1.466-1.873-0.5-0.789-2.181 0.779-2.171-0.756-0.177-1.034 2 0.045 2.516-2.1 0.919-2.826-1.457-5.118 0.406-8.367 1.276-1.566 4.019 1 5.173 1.892 0.721 0.53 1.115 1.541 2.115 1.534 3.391 0.61 4.6-3.533 7.852-3.894 2.462-0.13 2 5.32 1.258 6.858-0.657 1.1 0.576 1.755 0.646 2.823 0.112 0.776 1.136 0.551 1.7 0.712 0.378 0.032 0.543 0.18 0.438 0.572 8e-3 1.426-1.67-0.014-2.155 0.7-0.345 1.057 2.3 0.989 1.327 2.136-0.159 0.37-0.383 0.381-0.7 0.182-2.09-2.146-1.358 3.515-9.723 3.383zm0.233-6.687c-2.086-0.3 0.388 1.251-0.674 2.127a1.706 1.706 0 0 1-2.956-0.591c-0.027-0.64-0.695-0.409-0.412 0.146a2.147 2.147 0 0 0 3.557 0.888c0.38-0.374 0.54-0.362 0.914 0a2.152 2.152 0 0 0 3.575-0.951c0.221-0.49-0.377-0.707-0.414-0.139a1.728 1.728 0 0 1-3.017 0.6c-0.984-0.843 1.391-2.32-0.574-2.081zm-3.346-1.308a1.013 1.013 0 0 0-0.065-2.024 1.013 1.013 0 1 0 0.065 2.024zm6.669 0a1.012 1.012 0 1 0 0-2.024 1.012 1.012 0 0 0 0 2.024z" fill="#6838ed" data-name="Path 11"/><text x="85" y="167" fill="#6200ee" font-family="MicrosoftYaHei, 'Microsoft YaHei'" font-size="16px" data-name="520"><tspan x="85" y="167">2</tspan></text><text x="58" y="183" fill="#808080" font-family="MicrosoftYaHei, 'Microsoft YaHei'" font-size="12px"><tspan x="58" y="183">角色数</tspan></text><text x="161" y="95" fill="#6200ee" font-family="MicrosoftYaHei, 'Microsoft YaHei'" font-size="15px"><tspan x="161" y="95">资源数</tspan></text><text x="187" y="125" fill="#6200ee" font-family="MicrosoftYaHei, 'Microsoft YaHei'" font-size="16px" data-name="200"><tspan x="187" y="125">3</tspan></text><text x="161" y="142" fill="#808080" font-family="MicrosoftYaHei, 'Microsoft YaHei'" font-size="12px"><tspan x="161" y="142">造型总数</tspan></text><text x="187" y="168" fill="#6200ee" font-family="MicrosoftYaHei, 'Microsoft YaHei'" font-size="16px" data-name="200"><tspan x="187" y="168">0</tspan></text><text x="161" y="183" fill="#808080" font-family="MicrosoftYaHei, 'Microsoft YaHei'" font-size="12px"><tspan x="161" y="183">声音总数</tspan></text><text x="255" y="95" fill="#6200ee" font-family="MicrosoftYaHei, 'Microsoft YaHei'" font-size="15px"><tspan x="255" y="95">代码量</tspan></text><text x="254" y="125" fill="#6200ee" font-family="MicrosoftYaHei, 'Microsoft YaHei'" font-size="16px" data-name="12345"><tspan x="254" y="125">4</tspan></text><text x="255" y="142" fill="#808080" font-family="MicrosoftYaHei, 'Microsoft YaHei'" font-size="13px"><tspan x="255" y="142">合计</tspan></text><text x="254" y="167" fill="#6200ee" font-family="MicrosoftYaHei, 'Microsoft YaHei'" font-size="16px" data-name="12345"><tspan x="254" y="167">4</tspan></text><text x="255" y="183" fill="#808080" font-family="MicrosoftYaHei, 'Microsoft YaHei'" font-size="13px"><tspan x="255" y="183">有效</tspan></text><text x="350" y="95" fill="#6200ee" font-family="MicrosoftYaHei, 'Microsoft YaHei'" font-size="15px"><tspan x="350" y="95">代码段数</tspan></text><text x="350" y="124" fill="#6200ee" font-family="MicrosoftYaHei, 'Microsoft YaHei'" font-size="16px" data-name="1234"><tspan x="350" y="124">1</tspan></text><text x="351" y="141" fill="#808080" font-family="MicrosoftYaHei, 'Microsoft YaHei'" font-size="13px" data-name="合计"><tspan x="351" y="141">合计</tspan></text><text x="350" y="166" fill="#6200ee" font-family="MicrosoftYaHei, 'Microsoft YaHei'" font-size="16px" data-name="1234"><tspan x="350" y="166">1</tspan></text><text x="351" y="182" fill="#808080" font-family="MicrosoftYaHei, 'Microsoft YaHei'" font-size="13px" data-name="有效"><tspan x="351" y="182">有效</tspan></text><text x="439.46329" y="184.89482" fill="#808080" font-family="MicrosoftYaHei, 'Microsoft YaHei'" font-size="13px" data-name="有效"><tspan x="439.46329" y="184.89482"/></text><path d="m235 178v-65.086" fill="none" stroke="#a7a7a7" stroke-linecap="round" stroke-miterlimit="10" stroke-width="1.5" data-name="Path 18"/><path d="m331 178v-65.086" fill="none" stroke="#a7a7a7" stroke-linecap="round" stroke-miterlimit="10" stroke-width="1.5" data-name="Path 19"/><path d="m429 178v-65.086" fill="none" stroke="#a7a7a7" stroke-linecap="round" stroke-miterlimit="10" stroke-width="1.5" data-name="Path 21"/><g transform="translate(-12,-8)" filter="url(#b)"><rect transform="translate(29,225)" width="566" height="277" rx="18" fill="#fff" data-name="Rectangle 3"/></g><text x="17" y="518" fill="#808080" font-family="MicrosoftYaHei, 'Microsoft YaHei'" font-size="13px" data-name="alyze-7.0"><tspan x="17" y="518" xml:space="preserve">分析时间：2025年02月23日    内核版本：analyze-7.3.2 </tspan></text><text x="468.90552" y="95.328835" fill="#6200ee" font-family="MicrosoftYaHei, 'Microsoft YaHei'" font-size="15px"><tspan x="468.90552" y="95.328835">组分概述</tspan></text><g transform="translate(-12,-8)" filter="url(#f)"><path transform="translate(2.34,147.49)" d="m309.66 354.51v-277" fill="none" stroke="#faf7ff" stroke-linecap="round" stroke-miterlimit="10" data-name="Path 22"/></g><path d="m164.17 170a1.434 1.434 0 0 1-1.052-0.438 1.434 1.434 0 0 1-0.438-1.052v-7.448a8.647 8.647 0 0 1 0.708-3.488 9.083 9.083 0 0 1 1.912-2.83 9.082 9.082 0 0 1 2.83-1.912 8.645 8.645 0 0 1 3.488-0.708 8.645 8.645 0 0 1 3.488 0.708 9.082 9.082 0 0 1 2.83 1.912 9.083 9.083 0 0 1 1.912 2.83 8.647 8.647 0 0 1 0.708 3.488v7.448a1.434 1.434 0 0 1-0.438 1.052 1.434 1.434 0 0 1-1.052 0.438h-2.186a1.434 1.434 0 0 1-1.052-0.438 1.434 1.434 0 0 1-0.438-1.052v-4.369a1.435 1.435 0 0 1 0.438-1.052 1.435 1.435 0 0 1 1.052-0.437h2.185v-1.589a7.186 7.186 0 0 0-2.168-5.28 7.186 7.186 0 0 0-5.28-2.168 7.186 7.186 0 0 0-5.28 2.168 7.186 7.186 0 0 0-2.168 5.28v1.589h2.185a1.435 1.435 0 0 1 1.052 0.438 1.435 1.435 0 0 1 0.438 1.052v4.369a1.434 1.434 0 0 1-0.438 1.052 1.434 1.434 0 0 1-1.052 0.438z" fill="#6838ed"/><path d="m163.99 127.53a1.444 1.444 0 0 1-1.054-0.452 1.444 1.444 0 0 1-0.452-1.054v-15.052a1.444 1.444 0 0 1 0.452-1.054 1.444 1.444 0 0 1 1.054-0.452h15.052a1.444 1.444 0 0 1 1.054 0.452 1.444 1.444 0 0 1 0.452 1.054v15.052a1.444 1.444 0 0 1-0.452 1.054 1.444 1.444 0 0 1-1.054 0.452zm2.158-3.939h10.762a0.339 0.339 0 0 0 0.326-0.2 0.387 0.387 0 0 0-0.025-0.4l-2.935-3.914a0.38 0.38 0 0 0-0.3-0.151 0.38 0.38 0 0 0-0.3 0.151l-3.01 3.889-2.032-2.785a0.38 0.38 0 0 0-0.3-0.151 0.38 0.38 0 0 0-0.3 0.151l-2.158 2.81a0.359 0.359 0 0 0-0.05 0.4 0.339 0.339 0 0 0 0.322 0.2zm1.856-7.351a1.211 1.211 0 0 0 0.891-0.364 1.211 1.211 0 0 0 0.364-0.891 1.211 1.211 0 0 0-0.364-0.891 1.211 1.211 0 0 0-0.891-0.364 1.211 1.211 0 0 0-0.891 0.364 1.211 1.211 0 0 0-0.364 0.891 1.211 1.211 0 0 0 0.364 0.891 1.211 1.211 0 0 0 0.891 0.365z" fill="#6838ed"/><text x="451" y="518" fill="#808080" font-family="MicrosoftYaHei, 'Microsoft YaHei'" font-size="13px" data-name="工具网址：sjaplus.top"><tspan x="451" y="518">工具网址：sjaplus.top</tspan></text><rect x="86" y="242" width="166" height="24" rx="12" ry="12" fill="#d6c1ff" stroke-width="1.2094" data-name="Rectangle 4"/><g transform="translate(82,242)" data-name="Group 7"><rect width="48" height="24" rx="12" fill="#96f" data-name="Rectangle 4"/><text transform="translate(9,17)" fill="#ffffff" font-family="MicrosoftYaHei, 'Microsoft YaHei'" font-size="15px"><tspan x="-3" y="0" lengthAdjust="spacingAndGlyphs" textLength="35">外观</tspan></text></g><text x="74" y="260" fill="#40bf4a" font-family="MicrosoftYaHei, 'Microsoft YaHei'" font-size="15px" text-anchor="end" data-name="60.3%"><tspan x="74" y="260" fill="#9966ff" text-anchor="end">2</tspan></text><rect x="86" y="282" width="106" height="24" rx="12" ry="12" fill="#fe9" stroke-width=".55394" data-name="Rectangle 4"/><g transform="translate(82,282)" data-name="Group 7"><rect width="48" height="24" rx="12" fill="#ffd500" data-name="Rectangle 4"/><text transform="translate(9,17)" fill="#ffffff" font-family="MicrosoftYaHei, 'Microsoft YaHei'" font-size="15px" data-name="calc"><tspan x="-3" y="0" lengthAdjust="spacingAndGlyphs" textLength="35">事件</tspan></text></g><text x="74" y="300" fill="#40bf4a" font-family="MicrosoftYaHei, 'Microsoft YaHei'" font-size="15px" text-anchor="end" data-name="60.3%"><tspan x="74" y="300" fill="#ffd500" text-anchor="end">1</tspan></text><rect x="86" y="322" width="106" height="24" rx="12" fill="#ffdda3" data-name="Rectangle 4"/><g transform="translate(82,322)" data-name="Group 7"><rect width="48" height="24" rx="12" fill="#ffab19" data-name="Rectangle 4"/><text transform="translate(9,17)" fill="#ffffff" font-family="MicrosoftYaHei, 'Microsoft YaHei'" font-size="15px" data-name="calc"><tspan x="-3" y="0" lengthAdjust="spacingAndGlyphs" textLength="35">控制</tspan></text></g><text x="74" y="340" fill="#40bf4a" font-family="MicrosoftYaHei, 'Microsoft YaHei'" font-size="15px" text-anchor="end" data-name="60.3%"><tspan x="74" y="340" fill="#ffab19" text-anchor="end">1</tspan></text><rect x="86" y="362" width="46" height="24" rx="12" fill="#d5d5d5" data-name="Rectangle 4"/><g transform="translate(82,362)" data-name="Group 7"><rect width="48" height="24" rx="12" fill="#979797" data-name="Rectangle 4"/><text transform="translate(9,17)" fill="#ffffff" font-family="MicrosoftYaHei, 'Microsoft YaHei'" font-size="15px" data-name="calc"><tspan x="-3" y="0" lengthAdjust="spacingAndGlyphs" textLength="35">其它</tspan></text></g><text x="74" y="380" fill="#40bf4a" font-family="MicrosoftYaHei, 'Microsoft YaHei'" font-size="15px" text-anchor="end" data-name="60.3%"><tspan x="74" y="380" fill="#979797" text-anchor="end">0</tspan></text><text x="131" y="259.25467" fill="#40bf4a" font-family="MicrosoftYaHei, 'Microsoft YaHei'" font-size="15px" data-name="60.3%"><tspan x="255.0" y="259.25467" fill="#9966ff">50.0%</tspan></text><text x="131" y="300.10468" fill="#40bf4a" font-family="MicrosoftYaHei, 'Microsoft YaHei'" font-size="15px" data-name="60.3%"><tspan x="195.0" y="300.10468" fill="#ffd500">25.0%</tspan></text><text x="131" y="340.00937" fill="#40bf4a" font-family="MicrosoftYaHei, 'Microsoft YaHei'" font-size="15px" data-name="60.3%"><tspan x="195.0" y="340.00937" fill="#ffab19">25.0%</tspan></text><text x="131" y="379.49158" fill="#40bf4a" font-family="MicrosoftYaHei, 'Microsoft YaHei'" font-size="15px" data-name="60.3%"><tspan x="135.0" y="379.49158" fill="#979797">0.0%</tspan></text><rect x="86" y="402" width="46" height="24" rx="12" fill="#fff" data-name="Rectangle 4"/><g transform="translate(82,402)" data-name="Group 7"><rect width="48" height="24" rx="12" fill="#fff" data-name="Rectangle 4"/><text transform="translate(9,17)" fill="#ffffff" font-family="MicrosoftYaHei, 'Microsoft YaHei'" font-size="15px" data-name="calc"><tspan x="-3" y="0" lengthAdjust="spacingAndGlyphs" textLength="35">其它</tspan></text></g><text x="74" y="420" fill="#40bf4a" font-family="MicrosoftYaHei, 'Microsoft YaHei'" font-size="15px" text-anchor="end" data-name="60.3%"><tspan x="74" y="420" fill="#ffffff" text-anchor="end">0</tspan></text><rect x="86" y="442" width="46" height="24" rx="12" fill="#fff" data-name="Rectangle 4"/><g transform="translate(82,442)" data-name="Group 7"><rect width="48" height="24" rx="12" fill="#fff" data-name="Rectangle 4"/><text transform="translate(9,17)" fill="#ffffff" font-family="MicrosoftYaHei, 'Microsoft YaHei'" font-size="15px" data-name="calc"><tspan x="-3" y="0" lengthAdjust="spacingAndGlyphs" textLength="35">其它</tspan></text></g><text x="74" y="460" fill="#40bf4a" font-family="MicrosoftYaHei, 'Microsoft YaHei'" font-size="15px" text-anchor="end" data-name="60.3%"><tspan x="74" y="460" fill="#ffffff" text-anchor="end">0</tspan></text><rect x="369" y="242" width="46" height="24" rx="12" fill="#fff" data-name="Rectangle 4"/><g transform="translate(369,242)" data-name="Group 7"><rect width="48" height="24" rx="12" fill="#fff" data-name="Rectangle 4"/><text transform="translate(9,17)" fill="#ffffff" font-family="MicrosoftYaHei, 'Microsoft YaHei'" font-size="15px" data-name="calc"><tspan x="-3" y="0" lengthAdjust="spacingAndGlyphs" textLength="35">其它</tspan></text></g><text x="363" y="260" fill="#40bf4a" font-family="MicrosoftYaHei, 'Microsoft YaHei'" font-size="15px" text-anchor="end" data-name="60.3%"><tspan x="363" y="260" fill="#ffffff" text-anchor="end">0</tspan></text><rect x="369" y="282" width="46" height="24" rx="12" fill="#fff" data-name="Rectangle 4"/><g transform="translate(369,282)" data-name="Group 7"><rect width="48" height="24" rx="12" fill="#fff" data-name="Rectangle 4"/><text transform="translate(9,17)" fill="#ffffff" font-family="MicrosoftYaHei, 'Microsoft YaHei'" font-size="15px" data-name="calc"><tspan x="-3" y="0" lengthAdjust="spacingAndGlyphs" textLength="35">其它</tspan></text></g><text x="363" y="300" fill="#40bf4a" font-family="MicrosoftYaHei, 'Microsoft YaHei'" font-size="15px" text-anchor="end" data-name="60.3%"><tspan x="363" y="300" fill="#ffffff" text-anchor="end">0</tspan></text><rect x="369" y="322" width="46" height="24" rx="12" fill="#fff" data-name="Rectangle 4"/><g transform="translate(369,322)" data-name="Group 7"><rect width="48" height="24" rx="12" fill="#fff" data-name="Rectangle 4"/><text transform="translate(9,17)" fill="#ffffff" font-family="MicrosoftYaHei, 'Microsoft YaHei'" font-size="15px" data-name="calc"><tspan x="-3" y="0" lengthAdjust="spacingAndGlyphs" textLength="35">其它</tspan></text></g><text x="363" y="340" fill="#40bf4a" font-family="MicrosoftYaHei, 'Microsoft YaHei'" font-size="15px" text-anchor="end" data-name="60.3%"><tspan x="363" y="340" fill="#ffffff" text-anchor="end">0</tspan></text><rect x="369" y="362" width="46" height="24" rx="12" fill="#fff" data-name="Rectangle 4"/><g transform="translate(369,362)" data-name="Group 7"><rect width="48" height="24" rx="12" fill="#fff" data-name="Rectangle 4"/><text transform="translate(9,17)" fill="#ffffff" font-family="MicrosoftYaHei, 'Microsoft YaHei'" font-size="15px" data-name="calc"><tspan x="-3" y="0" lengthAdjust="spacingAndGlyphs" textLength="35">其它</tspan></text></g><text x="363" y="380" fill="#40bf4a" font-family="MicrosoftYaHei, 'Microsoft YaHei'" font-size="15px" text-anchor="end" data-name="60.3%"><tspan x="363" y="380" fill="#ffffff" text-anchor="end">0</tspan></text><rect x="369" y="402" width="46" height="24" rx="12" fill="#fff" data-name="Rectangle 4"/><g transform="translate(369,402)" data-name="Group 7"><rect width="48" height="24" rx="12" fill="#fff" data-name="Rectangle 4"/><text transform="translate(9,17)" fill="#ffffff" font-family="MicrosoftYaHei, 'Microsoft YaHei'" font-size="15px" data-name="calc"><tspan x="-3" y="0" lengthAdjust="spacingAndGlyphs" textLength="35">其它</tspan></text></g><text x="363" y="420" fill="#40bf4a" font-family="MicrosoftYaHei, 'Microsoft YaHei'" font-size="15px" text-anchor="end" data-name="60.3%"><tspan x="363" y="420" fill="#ffffff" text-anchor="end">0</tspan></text><rect x="369" y="442" width="46" height="24" rx="12" fill="#fff" data-name="Rectangle 4"/><g transform="translate(369,442)" data-name="Group 7"><rect width="48" height="24" rx="12" fill="#fff" data-name="Rectangle 4"/><text transform="translate(9,17)" fill="#ffffff" font-family="MicrosoftYaHei, 'Microsoft YaHei'" font-size="15px" data-name="calc"><tspan x="-3" y="0" lengthAdjust="spacingAndGlyphs" textLength="35">其它</tspan></text></g><text x="363" y="460" fill="#40bf4a" font-family="MicrosoftYaHei, 'Microsoft YaHei'" font-size="15px" text-anchor="end" data-name="60.3%"><tspan x="363" y="460" fill="#ffffff" text-anchor="end">0</tspan></text><text x="431.47308" y="188.54388" fill="#808080" font-family="MicrosoftYaHei, 'Microsoft YaHei'" font-size="13px" data-name="有效"><tspan x="431.47308" y="188.54388">逻辑 流程 媒体 交互 视觉</tspan></text><path d="m506 130h30z" fill="#4472c4">
</path>
<path d="m506 130h30a30 30 0 0 1-60 0z" fill="#ffc000">
</path>
<path d="m506 130h-30z" fill="#da0000">
</path>
<path d="m506 130h-30z" fill="#5332ee">
</path>
<path d="m506 130h-30a30 30 0 0 1 60 0z" fill="#548235">
</path>

     <rect x="441.24" y="167" width="6.9055" height="6.9055" fill="#4472c4"/><rect x="471.39" y="166.77" width="6.9055" height="6.9055" fill="#ffc000"/><rect x="499.84" y="167" width="6.9055" height="6.9055" fill="#da0000"/><rect x="529.27" y="167" width="6.9055" height="6.9055" fill="#5332ee"/><rect x="559.88" y="167" width="6.9055" height="6.9055" fill="#548235"/><text transform="scale(.99847 1.0015)" x="130.99693" y="459.43134" fill="#40bf4a" font-family="MicrosoftYaHei, 'Microsoft YaHei'" font-size="14.977px" stroke-width=".99847" data-name="60.3%"><tspan x="135.0" y="459.43134" fill="#ffffff" stroke-width=".99847">0.0%</tspan></text><text x="131" y="419.66336" fill="#40bf4a" font-family="MicrosoftYaHei, 'Microsoft YaHei'" font-size="15px" data-name="60.3%"><tspan x="135.0" y="419.66336" fill="#ffffff">0.0%</tspan></text><text x="421" y="259.53574" fill="#40bf4a" font-family="MicrosoftYaHei, 'Microsoft YaHei'" font-size="15px" data-name="60.3%"><tspan x="419.0" y="259.53574" fill="#ffffff">0.0%</tspan></text><text x="421" y="300.38574" fill="#40bf4a" font-family="MicrosoftYaHei, 'Microsoft YaHei'" font-size="15px" data-name="60.3%"><tspan x="419.0" y="300.38574" fill="#ffffff">0.0%</tspan></text><text x="421" y="340.29044" fill="#40bf4a" font-family="MicrosoftYaHei, 'Microsoft YaHei'" font-size="15px" data-name="60.3%"><tspan x="419.0" y="340.29044" fill="#ffffff">0.0%</tspan></text><text x="421" y="379.77264" fill="#40bf4a" font-family="MicrosoftYaHei, 'Microsoft YaHei'" font-size="15px" data-name="60.3%"><tspan x="419.0" y="379.77264" fill="#ffffff">0.0%</tspan></text><text transform="scale(.99847 1.0015)" x="421" y="459.71201" fill="#40bf4a" font-family="MicrosoftYaHei, 'Microsoft YaHei'" font-size="14.977px" stroke-width=".99847" data-name="60.3%"><tspan x="419.0" y="459.71201" fill="#ffffff" stroke-width=".99847">0.0%</tspan></text><text x="421" y="419.94443" fill="#40bf4a" font-family="MicrosoftYaHei, 'Microsoft YaHei'" font-size="15px" data-name="60.3%"><tspan x="419.0" y="419.94443" fill="#ffffff">0.0%</tspan></text></svg>
