<?xml version="1.0" encoding="UTF-8" standalone="no"?>
<svg
   width="100"
   height="100"
   xml:space="preserve"
   overflow="hidden"
   version="1.1"
   id="svg1016"
   sodipodi:docname="Picture2.svg"
   inkscape:version="1.2 (dc2aedaf03, 2022-05-15)"
   xmlns:inkscape="http://www.inkscape.org/namespaces/inkscape"
   xmlns:sodipodi="http://sodipodi.sourceforge.net/DTD/sodipodi-0.dtd"
   xmlns="http://www.w3.org/2000/svg"
   xmlns:svg="http://www.w3.org/2000/svg"><sodipodi:namedview
     id="namedview1018"
     pagecolor="#ffffff"
     bordercolor="#000000"
     borderopacity="0.25"
     inkscape:showpageshadow="2"
     inkscape:pageopacity="0.0"
     inkscape:pagecheckerboard="0"
     inkscape:deskcolor="#d1d1d1"
     showgrid="false"
     inkscape:zoom="2.2406312"
     inkscape:cx="189.90185"
     inkscape:cy="94.169895"
     inkscape:window-width="1920"
     inkscape:window-height="1046"
     inkscape:window-x="-11"
     inkscape:window-y="-11"
     inkscape:window-maximized="1"
     inkscape:current-layer="svg1016" /><defs
     id="defs990"><filter
       id="fx0"
       x="-248.5"
       y="-304.20001"
       width="2982"
       height="3650.4001"
       filterUnits="userSpaceOnUse"
       primitiveUnits="userSpaceOnUse"><feComponentTransfer
         color-interpolation-filters="sRGB"
         id="feComponentTransfer780"><feFuncR
           type="discrete"
           tableValues="0 0"
           id="feFuncR772" /><feFuncG
           type="discrete"
           tableValues="0 0"
           id="feFuncG774" /><feFuncB
           type="discrete"
           tableValues="0 0"
           id="feFuncB776" /><feFuncA
           type="linear"
           slope="0.4"
           intercept="0"
           id="feFuncA778" /></feComponentTransfer><feGaussianBlur
         stdDeviation="4.08282 4.08118"
         id="feGaussianBlur782" /></filter><filter
       id="fx1"
       x="-248.5"
       y="-304.20001"
       width="2982"
       height="3650.4001"
       filterUnits="userSpaceOnUse"
       primitiveUnits="userSpaceOnUse"><feComponentTransfer
         color-interpolation-filters="sRGB"
         id="feComponentTransfer793"><feFuncR
           type="discrete"
           tableValues="0 0"
           id="feFuncR785" /><feFuncG
           type="discrete"
           tableValues="0 0"
           id="feFuncG787" /><feFuncB
           type="discrete"
           tableValues="0 0"
           id="feFuncB789" /><feFuncA
           type="linear"
           slope="0.4"
           intercept="0"
           id="feFuncA791" /></feComponentTransfer><feGaussianBlur
         stdDeviation="4.58518 4.58333"
         id="feGaussianBlur795" /></filter><filter
       id="fx2"
       x="-248.5"
       y="-304.20001"
       width="2982"
       height="3650.4001"
       filterUnits="userSpaceOnUse"
       primitiveUnits="userSpaceOnUse"><feComponentTransfer
         color-interpolation-filters="sRGB"
         id="feComponentTransfer806"><feFuncR
           type="discrete"
           tableValues="0 0"
           id="feFuncR798" /><feFuncG
           type="discrete"
           tableValues="0 0"
           id="feFuncG800" /><feFuncB
           type="discrete"
           tableValues="0 0"
           id="feFuncB802" /><feFuncA
           type="linear"
           slope="0.4"
           intercept="0"
           id="feFuncA804" /></feComponentTransfer><feGaussianBlur
         stdDeviation="5.43934 5.44158"
         id="feGaussianBlur808" /></filter><clipPath
       id="clip3"><rect
         x="211"
         y="11"
         width="2485"
         height="3042"
         id="rect811" /></clipPath><linearGradient
       x1="1409.5"
       y1="602"
       x2="1409.5"
       y2="2031"
       gradientUnits="userSpaceOnUse"
       spreadMethod="reflect"
       id="fill4"><stop
         offset="0"
         stop-color="#2700B8"
         id="stop814" /><stop
         offset="0.0126582"
         stop-color="#2801B8"
         id="stop816" /><stop
         offset="0.0253165"
         stop-color="#2A03B9"
         id="stop818" /><stop
         offset="0.0379747"
         stop-color="#2C05BA"
         id="stop820" /><stop
         offset="0.0506329"
         stop-color="#2D07BB"
         id="stop822" /><stop
         offset="0.0632911"
         stop-color="#2F09BC"
         id="stop824" /><stop
         offset="0.0759494"
         stop-color="#310BBC"
         id="stop826" /><stop
         offset="0.0886076"
         stop-color="#320CBD"
         id="stop828" /><stop
         offset="0.101266"
         stop-color="#340EBE"
         id="stop830" /><stop
         offset="0.113924"
         stop-color="#3610BF"
         id="stop832" /><stop
         offset="0.126582"
         stop-color="#3711C0"
         id="stop834" /><stop
         offset="0.139241"
         stop-color="#3913C0"
         id="stop836" /><stop
         offset="0.151899"
         stop-color="#3A15C1"
         id="stop838" /><stop
         offset="0.164557"
         stop-color="#3C16C2"
         id="stop840" /><stop
         offset="0.177215"
         stop-color="#3D18C3"
         id="stop842" /><stop
         offset="0.189873"
         stop-color="#3F1AC3"
         id="stop844" /><stop
         offset="0.202532"
         stop-color="#401BC4"
         id="stop846" /><stop
         offset="0.21519"
         stop-color="#421DC5"
         id="stop848" /><stop
         offset="0.227848"
         stop-color="#431EC5"
         id="stop850" /><stop
         offset="0.240506"
         stop-color="#4420C6"
         id="stop852" /><stop
         offset="0.253165"
         stop-color="#4621C7"
         id="stop854" /><stop
         offset="0.265823"
         stop-color="#4723C7"
         id="stop856" /><stop
         offset="0.278481"
         stop-color="#4824C8"
         id="stop858" /><stop
         offset="0.291139"
         stop-color="#4A26C9"
         id="stop860" /><stop
         offset="0.303797"
         stop-color="#4B27C9"
         id="stop862" /><stop
         offset="0.316456"
         stop-color="#4C28CA"
         id="stop864" /><stop
         offset="0.329114"
         stop-color="#4D2ACA"
         id="stop866" /><stop
         offset="0.341772"
         stop-color="#4F2BCB"
         id="stop868" /><stop
         offset="0.35443"
         stop-color="#502CCC"
         id="stop870" /><stop
         offset="0.367089"
         stop-color="#512ECC"
         id="stop872" /><stop
         offset="0.379747"
         stop-color="#522FCD"
         id="stop874" /><stop
         offset="0.392405"
         stop-color="#5330CD"
         id="stop876" /><stop
         offset="0.405063"
         stop-color="#5531CE"
         id="stop878" /><stop
         offset="0.417722"
         stop-color="#5632CE"
         id="stop880" /><stop
         offset="0.43038"
         stop-color="#5734CF"
         id="stop882" /><stop
         offset="0.443038"
         stop-color="#5835CF"
         id="stop884" /><stop
         offset="0.455696"
         stop-color="#5936D0"
         id="stop886" /><stop
         offset="0.468354"
         stop-color="#5A37D0"
         id="stop888" /><stop
         offset="0.481013"
         stop-color="#5B38D1"
         id="stop890" /><stop
         offset="0.493671"
         stop-color="#5C39D1"
         id="stop892" /><stop
         offset="0.506329"
         stop-color="#5D3AD2"
         id="stop894" /><stop
         offset="0.518987"
         stop-color="#5E3BD2"
         id="stop896" /><stop
         offset="0.531646"
         stop-color="#5F3CD3"
         id="stop898" /><stop
         offset="0.544304"
         stop-color="#603DD3"
         id="stop900" /><stop
         offset="0.556962"
         stop-color="#603ED4"
         id="stop902" /><stop
         offset="0.56962"
         stop-color="#613FD4"
         id="stop904" /><stop
         offset="0.582278"
         stop-color="#6240D4"
         id="stop906" /><stop
         offset="0.594937"
         stop-color="#6341D5"
         id="stop908" /><stop
         offset="0.607595"
         stop-color="#6442D5"
         id="stop910" /><stop
         offset="0.620253"
         stop-color="#6442D6"
         id="stop912" /><stop
         offset="0.632911"
         stop-color="#6543D6"
         id="stop914" /><stop
         offset="0.64557"
         stop-color="#6644D6"
         id="stop916" /><stop
         offset="0.658228"
         stop-color="#6745D7"
         id="stop918" /><stop
         offset="0.670886"
         stop-color="#6746D7"
         id="stop920" /><stop
         offset="0.683544"
         stop-color="#6846D7"
         id="stop922" /><stop
         offset="0.696203"
         stop-color="#6947D8"
         id="stop924" /><stop
         offset="0.708861"
         stop-color="#6948D8"
         id="stop926" /><stop
         offset="0.721519"
         stop-color="#6A48D8"
         id="stop928" /><stop
         offset="0.734177"
         stop-color="#6A49D8"
         id="stop930" /><stop
         offset="0.746835"
         stop-color="#6B49D9"
         id="stop932" /><stop
         offset="0.759494"
         stop-color="#6B4AD9"
         id="stop934" /><stop
         offset="0.772152"
         stop-color="#6C4BD9"
         id="stop936" /><stop
         offset="0.78481"
         stop-color="#6C4BD9"
         id="stop938" /><stop
         offset="0.797468"
         stop-color="#6D4BDA"
         id="stop940" /><stop
         offset="0.810127"
         stop-color="#6D4CDA"
         id="stop942" /><stop
         offset="0.822785"
         stop-color="#6E4CDA"
         id="stop944" /><stop
         offset="0.835443"
         stop-color="#6E4DDA"
         id="stop946" /><stop
         offset="0.848101"
         stop-color="#6E4DDA"
         id="stop948" /><stop
         offset="0.860759"
         stop-color="#6F4EDB"
         id="stop950" /><stop
         offset="0.873418"
         stop-color="#6F4EDB"
         id="stop952" /><stop
         offset="0.886076"
         stop-color="#6F4EDB"
         id="stop954" /><stop
         offset="0.898734"
         stop-color="#6F4EDB"
         id="stop956" /><stop
         offset="0.911392"
         stop-color="#704FDB"
         id="stop958" /><stop
         offset="0.924051"
         stop-color="#704FDB"
         id="stop960" /><stop
         offset="0.936709"
         stop-color="#704FDB"
         id="stop962" /><stop
         offset="0.949367"
         stop-color="#704FDB"
         id="stop964" /><stop
         offset="0.962025"
         stop-color="#704FDB"
         id="stop966" /><stop
         offset="0.974684"
         stop-color="#704FDB"
         id="stop968" /><stop
         offset="0.987342"
         stop-color="#704FDB"
         id="stop970" /><stop
         offset="1"
         stop-color="#7150DC"
         id="stop972" /></linearGradient><clipPath
       id="clip5"><rect
         x="431.673"
         y="405.5"
         width="387.65601"
         height="577"
         id="rect975" /></clipPath><clipPath
       id="clip6"><rect
         x="0"
         y="0"
         width="1244"
         height="1522"
         id="rect978" /></clipPath><clipPath
       id="clip7"><rect
         x="218.5"
         y="204.5"
         width="177"
         height="272"
         id="rect981" /></clipPath><clipPath
       id="clip8"><rect
         x="287.548"
         y="271.66699"
         width="239.901"
         height="361.66699"
         id="rect984" /></clipPath><clipPath
       id="clip9"><rect
         x="0"
         y="0"
         width="810"
         height="996"
         id="rect987" /></clipPath></defs><g
     id="g1036"
     transform="matrix(0.06997901,0,0,0.06997901,-33.869841,-41.357595)"><g
       clip-path="url(#clip3)"
       transform="translate(-211,-11)"
       id="g1014"><path
         d="M 695,840.171 C 695,708.633 801.633,602 933.171,602 H 1885.83 C 2017.37,602 2124,708.633 2124,840.171 V 1792.83 C 2124,1924.37 2017.37,2031 1885.83,2031 H 933.171 C 801.633,2031 695,1924.37 695,1792.83 Z"
         fill="url(#fill4)"
         fill-rule="evenodd"
         id="path992"
         style="fill:url(#fill4)" /><g
         clip-path="url(#clip5)"
         filter="url(#fx1)"
         transform="matrix(1.9992,0,0,2,210,10)"
         id="g1004"><g
           clip-path="url(#clip6)"
           id="g1002"><g
             clip-path="url(#clip7)"
             filter="url(#fx0)"
             transform="matrix(2,0,0,2,13,13)"
             id="g998"><g
               id="g996"><path
                 d="m 267.212,-703.613 c 0.447,18.799 5.93,35.695 16.449,50.689 10.518,14.995 24.394,29.206 41.626,42.634 17.232,13.427 36.814,26.519 58.746,39.276 21.932,12.756 44.424,26.184 67.475,40.283 23.05,14.099 45.542,29.429 67.474,45.99 21.932,16.561 41.626,35.36 59.082,56.396 17.456,21.037 31.555,44.759 42.297,71.167 10.742,26.408 16.561,56.397 17.456,89.966 v 5.371 c 0,36.703 -4.476,68.705 -13.427,96.008 -8.952,27.304 -20.813,50.802 -35.584,70.4961 -14.77,19.694 -32.003,35.9192 -51.697,48.6755 -19.694,12.7564 -40.395,22.9391 -62.103,30.5481 C 453.298,-8.50423 431.366,-3.13314 409.21,0 387.054,3.13314 366.13,4.9235 346.436,5.37109 h -6.714 c -38.046,0 -71.391,-3.80452 -100.037,-11.41357 -28.646,-7.60902 -53.263,-17.79172 -73.852,-30.54812 -20.59,-12.7563 -37.71,-27.4149 -51.362,-43.9758 -13.651,-16.5609 -24.5052,-33.6816 -32.5618,-51.3606 -8.0567,-17.68 -13.8754,-35.248 -17.4561,-52.704 -3.5807,-17.456 -5.3711,-33.793 -5.3711,-49.012 0,-15.665 2.6856,-29.317 8.0567,-40.954 5.3711,-11.637 12.4206,-21.149 21.1486,-28.534 8.7281,-7.385 18.7987,-12.868 30.2127,-16.449 11.413,-3.581 23.386,-5.371 35.919,-5.371 11.637,0 23.61,1.79 35.919,5.371 12.309,3.581 23.499,9.064 33.569,16.449 10.071,7.385 18.352,16.785 24.842,28.198 6.49,11.414 9.959,24.73 10.406,39.948 0.895,33.569 8.504,56.508 22.827,68.817 14.323,12.309 34.913,18.463 61.768,18.463 13.428,-0.448 25.848,-2.126 37.262,-5.035 11.413,-2.91 21.149,-8.057 29.205,-15.442 8.057,-7.386 14.435,-17.233 19.135,-29.541 4.699,-12.309 7.049,-27.863 7.049,-46.662 0,-23.274 -5.259,-44.311 -15.777,-63.11 -10.519,-18.799 -24.282,-36.255 -41.291,-52.368 -17.008,-16.114 -36.478,-31.444 -58.41,-45.99 -21.932,-14.547 -44.312,-29.094 -67.139,-43.64 -22.827,-14.547 -45.095,-29.765 -66.803,-45.655 -21.708,-15.889 -41.29,-33.233 -58.746,-52.032 -17.456,-18.799 -31.4434,-39.612 -41.9618,-62.439 -10.5184,-22.827 -16.0014,-48.787 -16.449,-77.881 v -10.742 c 0.4476,-47.892 6.8258,-87.728 19.1345,-119.507 12.3083,-31.779 30.4363,-57.068 54.3823,-75.867 23.946,-18.798 53.375,-32.114 88.287,-39.947 34.912,-7.833 74.972,-11.749 120.179,-11.749 h 17.456 c 41.178,0 76.09,4.476 104.736,13.427 28.646,8.952 52.48,20.366 71.503,34.241 19.022,13.875 34.017,29.541 44.983,46.997 10.966,17.456 19.134,34.688 24.505,51.697 5.371,17.008 8.728,32.898 10.071,47.668 1.343,14.771 2.014,26.632 2.014,35.584 0,13.428 -2.574,25.624 -7.721,36.59 -5.147,10.966 -12.085,20.254 -20.813,27.863 -8.728,7.609 -19.022,13.54 -30.884,17.792 -11.861,4.252 -24.729,6.378 -38.604,6.378 -10.743,0 -21.485,-2.126 -32.227,-6.378 -10.742,-4.252 -20.365,-9.735 -28.869,-16.449 -8.505,-6.714 -15.442,-14.435 -20.813,-23.163 -5.372,-8.728 -8.057,-17.568 -8.057,-26.52 0,-36.702 -6.602,-62.215 -19.806,-76.538 -13.204,-14.323 -32.562,-21.484 -58.075,-21.484 -12.085,0 -23.834,0.671 -35.248,2.014 -11.413,1.343 -21.484,5.035 -30.212,11.078 -8.728,6.042 -15.666,15.33 -20.813,27.862 -5.147,12.533 -7.721,30.213 -7.721,53.04 z"
                 fill="#ffffff"
                 transform="matrix(0.125101,0,0,0.125,4.6835,224.5)"
                 id="path994" /></g></g><path
             d="m 267.212,-703.613 c 0.447,18.799 5.93,35.695 16.449,50.689 10.518,14.995 24.394,29.206 41.626,42.634 17.232,13.427 36.814,26.519 58.746,39.276 21.932,12.756 44.424,26.184 67.475,40.283 23.05,14.099 45.542,29.429 67.474,45.99 21.932,16.561 41.626,35.36 59.082,56.396 17.456,21.037 31.555,44.759 42.297,71.167 10.742,26.408 16.561,56.397 17.456,89.966 v 5.371 c 0,36.703 -4.476,68.705 -13.427,96.008 -8.952,27.304 -20.813,50.802 -35.584,70.4961 -14.77,19.694 -32.003,35.9192 -51.697,48.6755 -19.694,12.7564 -40.395,22.9391 -62.103,30.5481 C 453.298,-8.50423 431.366,-3.13314 409.21,0 387.054,3.13314 366.13,4.9235 346.436,5.37109 h -6.714 c -38.046,0 -71.391,-3.80452 -100.037,-11.41357 -28.646,-7.60902 -53.263,-17.79172 -73.852,-30.54812 -20.59,-12.7563 -37.71,-27.4149 -51.362,-43.9758 -13.651,-16.5609 -24.5052,-33.6816 -32.5618,-51.3606 -8.0567,-17.68 -13.8754,-35.248 -17.4561,-52.704 -3.5807,-17.456 -5.3711,-33.793 -5.3711,-49.012 0,-15.665 2.6856,-29.317 8.0567,-40.954 5.3711,-11.637 12.4206,-21.149 21.1486,-28.534 8.7281,-7.385 18.7987,-12.868 30.2127,-16.449 11.413,-3.581 23.386,-5.371 35.919,-5.371 11.637,0 23.61,1.79 35.919,5.371 12.309,3.581 23.499,9.064 33.569,16.449 10.071,7.385 18.352,16.785 24.842,28.198 6.49,11.414 9.959,24.73 10.406,39.948 0.895,33.569 8.504,56.508 22.827,68.817 14.323,12.309 34.913,18.463 61.768,18.463 13.428,-0.448 25.848,-2.126 37.262,-5.035 11.413,-2.91 21.149,-8.057 29.205,-15.442 8.057,-7.386 14.435,-17.233 19.135,-29.541 4.699,-12.309 7.049,-27.863 7.049,-46.662 0,-23.274 -5.259,-44.311 -15.777,-63.11 -10.519,-18.799 -24.282,-36.255 -41.291,-52.368 -17.008,-16.114 -36.478,-31.444 -58.41,-45.99 -21.932,-14.547 -44.312,-29.094 -67.139,-43.64 -22.827,-14.547 -45.095,-29.765 -66.803,-45.655 -21.708,-15.889 -41.29,-33.233 -58.746,-52.032 -17.456,-18.799 -31.4434,-39.612 -41.9618,-62.439 -10.5184,-22.827 -16.0014,-48.787 -16.449,-77.881 v -10.742 c 0.4476,-47.892 6.8258,-87.728 19.1345,-119.507 12.3083,-31.779 30.4363,-57.068 54.3823,-75.867 23.946,-18.798 53.375,-32.114 88.287,-39.947 34.912,-7.833 74.972,-11.749 120.179,-11.749 h 17.456 c 41.178,0 76.09,4.476 104.736,13.427 28.646,8.952 52.48,20.366 71.503,34.241 19.022,13.875 34.017,29.541 44.983,46.997 10.966,17.456 19.134,34.688 24.505,51.697 5.371,17.008 8.728,32.898 10.071,47.668 1.343,14.771 2.014,26.632 2.014,35.584 0,13.428 -2.574,25.624 -7.721,36.59 -5.147,10.966 -12.085,20.254 -20.813,27.863 -8.728,7.609 -19.022,13.54 -30.884,17.792 -11.861,4.252 -24.729,6.378 -38.604,6.378 -10.743,0 -21.485,-2.126 -32.227,-6.378 -10.742,-4.252 -20.365,-9.735 -28.869,-16.449 -8.505,-6.714 -15.442,-14.435 -20.813,-23.163 -5.372,-8.728 -8.057,-17.568 -8.057,-26.52 0,-36.702 -6.602,-62.215 -19.806,-76.538 -13.204,-14.323 -32.562,-21.484 -58.075,-21.484 -12.085,0 -23.834,0.671 -35.248,2.014 -11.413,1.343 -21.484,5.035 -30.212,11.078 -8.728,6.042 -15.666,15.33 -20.813,27.862 -5.147,12.533 -7.721,30.213 -7.721,53.04 z"
             fill="#ffffff"
             transform="matrix(0.500201,0,0,0.5,438.795,918)"
             id="path1000" /></g></g><g
         clip-path="url(#clip8)"
         filter="url(#fx2)"
         transform="matrix(3.00123,0,0,3,222,22)"
         id="g1010"><g
           clip-path="url(#clip9)"
           id="g1008"><path
             d="m 267.212,-703.613 c 0.447,18.799 5.93,35.695 16.449,50.689 10.518,14.995 24.394,29.206 41.626,42.634 17.232,13.427 36.814,26.519 58.746,39.276 21.932,12.756 44.424,26.184 67.475,40.283 23.05,14.099 45.542,29.429 67.474,45.99 21.932,16.561 41.626,35.36 59.082,56.396 17.456,21.037 31.555,44.759 42.297,71.167 10.742,26.408 16.561,56.397 17.456,89.966 v 5.371 c 0,36.703 -4.476,68.705 -13.427,96.008 -8.952,27.304 -20.813,50.802 -35.584,70.4961 -14.77,19.694 -32.003,35.9192 -51.697,48.6755 -19.694,12.7564 -40.395,22.9391 -62.103,30.5481 C 453.298,-8.50423 431.366,-3.13314 409.21,0 387.054,3.13314 366.13,4.9235 346.436,5.37109 h -6.714 c -38.046,0 -71.391,-3.80452 -100.037,-11.41357 -28.646,-7.60902 -53.263,-17.79172 -73.852,-30.54812 -20.59,-12.7563 -37.71,-27.4149 -51.362,-43.9758 -13.651,-16.5609 -24.5052,-33.6816 -32.5618,-51.3606 -8.0567,-17.68 -13.8754,-35.248 -17.4561,-52.704 -3.5807,-17.456 -5.3711,-33.793 -5.3711,-49.012 0,-15.665 2.6856,-29.317 8.0567,-40.954 5.3711,-11.637 12.4206,-21.149 21.1486,-28.534 8.7281,-7.385 18.7987,-12.868 30.2127,-16.449 11.413,-3.581 23.386,-5.371 35.919,-5.371 11.637,0 23.61,1.79 35.919,5.371 12.309,3.581 23.499,9.064 33.569,16.449 10.071,7.385 18.352,16.785 24.842,28.198 6.49,11.414 9.959,24.73 10.406,39.948 0.895,33.569 8.504,56.508 22.827,68.817 14.323,12.309 34.913,18.463 61.768,18.463 13.428,-0.448 25.848,-2.126 37.262,-5.035 11.413,-2.91 21.149,-8.057 29.205,-15.442 8.057,-7.386 14.435,-17.233 19.135,-29.541 4.699,-12.309 7.049,-27.863 7.049,-46.662 0,-23.274 -5.259,-44.311 -15.777,-63.11 -10.519,-18.799 -24.282,-36.255 -41.291,-52.368 -17.008,-16.114 -36.478,-31.444 -58.41,-45.99 -21.932,-14.547 -44.312,-29.094 -67.139,-43.64 -22.827,-14.547 -45.095,-29.765 -66.803,-45.655 -21.708,-15.889 -41.29,-33.233 -58.746,-52.032 -17.456,-18.799 -31.4434,-39.612 -41.9618,-62.439 -10.5184,-22.827 -16.0014,-48.787 -16.449,-77.881 v -10.742 c 0.4476,-47.892 6.8258,-87.728 19.1345,-119.507 12.3083,-31.779 30.4363,-57.068 54.3823,-75.867 23.946,-18.798 53.375,-32.114 88.287,-39.947 34.912,-7.833 74.972,-11.749 120.179,-11.749 h 17.456 c 41.178,0 76.09,4.476 104.736,13.427 28.646,8.952 52.48,20.366 71.503,34.241 19.022,13.875 34.017,29.541 44.983,46.997 10.966,17.456 19.134,34.688 24.505,51.697 5.371,17.008 8.728,32.898 10.071,47.668 1.343,14.771 2.014,26.632 2.014,35.584 0,13.428 -2.574,25.624 -7.721,36.59 -5.147,10.966 -12.085,20.254 -20.813,27.863 -8.728,7.609 -19.022,13.54 -30.884,17.792 -11.861,4.252 -24.729,6.378 -38.604,6.378 -10.743,0 -21.485,-2.126 -32.227,-6.378 -10.742,-4.252 -20.365,-9.735 -28.869,-16.449 -8.505,-6.714 -15.442,-14.435 -20.813,-23.163 -5.372,-8.728 -8.057,-17.568 -8.057,-26.52 0,-36.702 -6.602,-62.215 -19.806,-76.538 -13.204,-14.323 -32.562,-21.484 -58.075,-21.484 -12.085,0 -23.834,0.671 -35.248,2.014 -11.413,1.343 -21.484,5.035 -30.212,11.078 -8.728,6.042 -15.666,15.33 -20.813,27.862 -5.147,12.533 -7.721,30.213 -7.721,53.04 z"
             fill="#ffffff"
             transform="matrix(0.333196,0,0,0.333333,291.508,611)"
             id="path1006" /></g></g><g
         aria-label="S"
         transform="translate(1071.03,1829)"
         id="text1012"
         style="font-size:1375px;font-family:'Concert One', 'Concert One_MSFontService', sans-serif;fill:#ffffff"><path
           d="m 267.21191,-703.61328 q 0.67139,28.19824 16.11329,51.02539 16.11328,22.15576 41.62597,42.29736 26.18408,20.1416 59.08203,39.61182 32.89795,18.79883 67.13867,40.2832 34.91211,20.81299 67.81006,45.6543 32.89795,24.84131 59.08203,56.39648 26.18409,31.55518 42.29737,71.167 16.11328,39.61181 17.45605,89.96582 v 5.37109 q 0,55.05371 -13.42773,96.0083 -13.42774,40.95459 -35.5835,70.495606 -22.15576,29.541016 -51.69678,49.01123 -29.54101,18.798829 -62.43896,30.212403 Q 442.44385,-4.699707 408.87451,0 375.97656,4.699707 346.43555,5.3710937 h -6.71387 q -57.06787,0 -100.03662,-11.4135742 Q 196.71631,-17.456055 165.83252,-36.254883 134.94873,-55.725098 114.13574,-80.566406 93.994141,-105.40771 81.90918,-131.5918 q -12.084961,-26.85547 -17.456055,-53.03955 -5.371094,-26.18408 -5.371094,-49.01123 0,-23.49853 8.056641,-40.95459 8.05664,-17.45605 20.812988,-28.19824 13.42773,-11.41357 30.2124,-16.78467 17.45606,-5.37109 36.25489,-5.37109 17.45605,0 35.58349,5.37109 18.79883,5.3711 33.56934,16.78467 15.44189,10.74219 24.84131,28.19824 10.0708,16.78467 10.74218,39.61182 1.34278,50.354 22.82715,69.15283 21.48438,18.12744 61.76758,18.12744 20.1416,-0.67138 36.92627,-4.69971 17.45605,-4.6997 29.54102,-15.44189 12.08496,-11.41357 18.79882,-29.54102 7.38526,-18.79882 7.38526,-46.99707 0,-34.9121 -16.11328,-63.11035 -15.4419,-28.19824 -40.95459,-52.36816 -25.5127,-24.16992 -58.41065,-45.6543 -32.89795,-22.15576 -67.13867,-43.64013 -34.24072,-22.15577 -67.13867,-45.6543 -32.22656,-24.16992 -58.41065,-52.36817 Q 102.05078,-575.37842 85.9375,-609.61914 70.495605,-643.85986 69.824219,-687.5 v -10.74219 q 0.671386,-71.83838 18.798828,-119.50683 18.798833,-47.66846 54.382323,-75.8667 36.25488,-28.19824 88.62305,-39.61182 52.36816,-12.08496 120.17822,-12.08496 h 17.45606 q 61.76757,0 104.73632,13.42773 42.96875,13.42774 71.167,34.24073 28.86962,20.81299 44.98291,46.99707 16.78466,26.18408 24.8413,51.69677 8.05664,25.5127 10.07081,47.66846 2.01416,22.15576 2.01416,35.5835 0,20.1416 -8.05665,36.92627 -7.38525,16.11328 -20.81298,27.52685 -12.75635,11.41358 -30.88379,18.12744 -17.45606,6.04248 -38.26905,6.04248 -16.11328,0 -32.22656,-6.04248 -16.11328,-6.71386 -28.86963,-16.78466 -12.75634,-10.0708 -20.81299,-22.82715 -8.05664,-13.42774 -8.05664,-26.85547 0,-55.05371 -20.1416,-76.53809 -19.47021,-21.48437 -57.73926,-21.48437 -18.12744,0 -35.58349,2.01416 -16.78467,2.01416 -30.2124,11.41357 -12.75635,8.72803 -20.81299,27.52686 -7.38526,18.79883 -7.38526,53.03955 z"
           id="path1020" /></g></g></g></svg>
