<?xml version="1.0" encoding="UTF-8" standalone="no"?>
<svg
   height="48"
   viewBox="0 -960 960 960"
   width="48"
   version="1.1"
   id="svg18979"
   sodipodi:docname="donation-logo.svg"
   inkscape:version="1.2 (dc2aedaf03, 2022-05-15)"
   xmlns:inkscape="http://www.inkscape.org/namespaces/inkscape"
   xmlns:sodipodi="http://sodipodi.sourceforge.net/DTD/sodipodi-0.dtd"
   xmlns="http://www.w3.org/2000/svg"
   xmlns:svg="http://www.w3.org/2000/svg">
  <defs
     id="defs18983" />
  <sodipodi:namedview
     id="namedview18981"
     pagecolor="#ffffff"
     bordercolor="#000000"
     borderopacity="0.25"
     inkscape:showpageshadow="2"
     inkscape:pageopacity="0.0"
     inkscape:pagecheckerboard="0"
     inkscape:deskcolor="#d1d1d1"
     showgrid="false"
     inkscape:zoom="6.2755727"
     inkscape:cx="21.830677"
     inkscape:cy="14.819365"
     inkscape:window-width="1098"
     inkscape:window-height="728"
     inkscape:window-x="184"
     inkscape:window-y="73"
     inkscape:window-maximized="0"
     inkscape:current-layer="svg18979" />
  <path
     d="M -287.07074,-551.31255 -105.554,-818.56818 q 16.396139,-24.1408 45.263343,-29.65594 28.867203,-5.51514 53.007994,10.88099 l 33.163108,22.52398 q 24.140794,16.39614 29.655934,45.26334 5.51513,28.86719 -10.881,53.00799 l -181.516749,267.25563 q -16.39613,24.14079 -45.26333,29.65593 -28.86721,5.51514 -53.008,-10.88099 l -33.16311,-22.52397 q -24.14079,-16.39613 -29.65593,-45.26334 -5.51513,-28.8672 10.881,-53.00799 z m 438.83636,422.05571 -231.11588,-276.69853 223.25235,-328.70493 80.957,54.98501 q 5.12077,3.47797 9.44658,8.1264 4.32582,4.64842 8.38664,9.68701 l 178.02222,252.04059 q 21.9744,30.60333 22.67499,63.14903 0.7006,32.54569 -14.53621,54.97955 -5.32824,7.84504 -13.50295,9.38815 -8.17536,1.5441 -15.97845,-3.75567 l -71.20314,-48.3603 q -25.36002,-17.22421 -42.88033,-33.39977 -17.52029,-16.17555 -35.62979,-39.87791 l -44.96081,-57.61805 q -4.52738,-5.92559 -11.54817,-7.13071 -7.0208,-1.20512 -12.6496,2.88528 -6.15414,4.86388 -7.39305,11.93442 -1.23957,7.07152 3.28781,12.99711 l 45.58665,60.89376 q 12.29382,15.47644 33.20964,36.09619 20.91583,20.61974 64.80818,50.43089 l 190.20018,129.18163 q 55.59697,37.76078 58.03692,77.18913 2.43996,39.428345 -33.33341,92.0991678 L 184.92873,-106.73286 q -9.12803,-3.34899 -17.9065,-9.31122 -8.77846,-5.96222 -15.25661,-13.21276 z M 513.2451,-458.15117 q -6.52435,-4.43125 -11.25753,-10.49662 -4.73318,-6.06537 -6.08122,-14.10759 -33.1859,-133.71495 -46.29772,-243.4722 -13.11183,-109.75725 27.62079,-169.7298 34.28812,-50.48401 91.90781,-61.40833 57.6187,-10.925 108.24316,23.45852 28.92896,19.64819 46.77208,55.28492 17.84312,35.63672 21.72783,78.18432 40.98303,-12.07398 80.68765,-8.62498 39.70462,3.44899 68.63358,23.09719 50.62445,34.38351 61.71095,91.97222 11.0855,57.58803 -23.20263,108.07204 -40.73263,59.97255 -147.59322,88.24601 -106.86059,28.27345 -243.33813,46.75508 -8.24293,1.52814 -15.62598,-0.63568 -7.38306,-2.16384 -13.90742,-6.5951 z"
     id="path18977"
     style="fill:#ffffff;fill-opacity:1;stroke-width:1.17909" />
</svg>
