<?xml version="1.0" encoding="UTF-8" standalone="no"?>
<svg
   t="1689857996574"
   class="icon"
   viewBox="0 0 1024 1024"
   version="1.1"
   p-id="5202"
   width="200"
   height="200"
   id="svg2630"
   sodipodi:docname="paypal-pay.svg"
   inkscape:version="1.2 (dc2aedaf03, 2022-05-15)"
   xmlns:inkscape="http://www.inkscape.org/namespaces/inkscape"
   xmlns:sodipodi="http://sodipodi.sourceforge.net/DTD/sodipodi-0.dtd"
   xmlns="http://www.w3.org/2000/svg"
   xmlns:svg="http://www.w3.org/2000/svg">
  <defs
     id="defs2634" />
  <sodipodi:namedview
     id="namedview2632"
     pagecolor="#ffffff"
     bordercolor="#000000"
     borderopacity="0.25"
     inkscape:showpageshadow="2"
     inkscape:pageopacity="0.0"
     inkscape:pagecheckerboard="0"
     inkscape:deskcolor="#d1d1d1"
     showgrid="false"
     inkscape:zoom="3.0122749"
     inkscape:cx="49.132302"
     inkscape:cy="123.16273"
     inkscape:window-width="1920"
     inkscape:window-height="1046"
     inkscape:window-x="-11"
     inkscape:window-y="-11"
     inkscape:window-maximized="1"
     inkscape:current-layer="svg2630" />
  <g
     id="g3176"
     transform="matrix(1.178473,0,0,1.178473,-101.37131,-100.21524)">
    <path
       d="M 241.534,764.95 H 188.01 c -3.692,0 -7.385,1.852 -7.385,7.408 l -22.149,138.886 c 0,1.852 1.846,3.704 3.692,3.704 h 25.842 c 3.692,0 7.38,-1.852 7.38,-7.408 l 7.384,-38.888 c 0,-3.705 3.692,-7.41 7.384,-7.41 h 18.458 c 35.066,0 57.216,-18.516 62.754,-51.848 1.846,-14.813 0,-25.927 -7.384,-35.184 -9.227,-5.556 -22.15,-9.26 -42.452,-9.26 z m 5.538,50 c -1.846,20.367 -18.456,20.367 -33.221,20.367 h -9.23 l 7.383,-35.184 c 0,-1.852 1.847,-5.552 3.688,-5.552 h 3.692 c 9.232,0 20.304,0 23.996,7.404 3.692,1.852 5.538,7.409 3.692,12.966 z m 158.73,0 h -25.84 c -1.846,0 -3.692,1.848 -3.692,3.7 l -1.846,7.41 -1.846,-1.853 c -7.381,-9.256 -18.458,-11.109 -31.376,-11.109 -29.53,0 -53.524,22.219 -57.216,53.701 -1.846,14.813 0,29.628 9.23,40.74 9.226,9.257 20.303,12.962 33.222,12.962 12.918,0 25.84,-3.705 35.067,-14.814 l -1.846,7.41 c 0,1.851 1.846,3.7 3.692,3.7 h 23.995 c 3.693,0 7.38,-1.849 7.38,-7.405 l 12.923,-88.89 c 1.846,-3.704 0,-5.551 -1.846,-5.551 z m -38.758,51.85 c -1.847,14.812 -14.765,24.074 -29.534,24.074 -7.38,0 -12.918,-1.852 -18.457,-7.408 -3.692,-3.706 -3.692,-11.11 -3.692,-18.519 1.846,-14.813 14.77,-24.074 29.533,-24.074 7.385,0 12.919,1.853 18.457,7.41 3.693,5.556 7.385,11.108 3.693,18.516 z m 179.033,-51.85 h -25.84 c -1.847,0 -3.693,1.848 -7.385,1.848 l -35.068,53.706 -14.764,-51.853 c 0,-1.853 -3.692,-3.7 -7.385,-3.7 h -25.837 c -1.846,0 -3.692,1.847 -3.692,3.7 v 1.852 l 29.529,85.184 -25.837,38.889 c -1.846,1.852 0,3.704 0,7.408 h 29.53 c 1.846,0 3.692,-1.852 7.384,-1.852 l 86.746,-127.777 c -3.692,-1.852 -5.535,-5.557 -7.38,-7.404 z"
       fill="#253b80"
       p-id="5203"
       id="path2618" />
    <path
       d="m 632.823,764.95 h -55.37 c -3.692,0 -7.38,1.852 -7.38,7.408 l -22.15,140.738 c 0,1.852 1.843,3.7 3.692,3.7 h 29.53 c 1.846,0 3.692,-1.848 3.692,-3.7 l 7.38,-40.74 c 0,-3.704 3.692,-7.409 7.385,-7.409 h 18.457 c 35.067,0 57.216,-18.517 62.754,-51.849 1.846,-14.817 0,-25.927 -7.384,-35.188 -9.226,-9.256 -22.149,-12.96 -40.606,-12.96 z m 7.384,50 c -1.846,20.367 -18.456,20.367 -33.22,20.367 h -9.23 l 7.383,-35.184 c 0,-1.852 1.847,-3.704 3.693,-3.704 h 3.687 c 9.23,0 20.303,0 23.995,7.408 3.692,0 3.692,5.557 3.692,11.114 z m 155.04,0 h -25.842 c -1.842,0 -3.688,1.848 -3.688,3.7 l -1.846,7.41 -1.846,-1.853 c -7.384,-9.256 -18.456,-11.109 -31.38,-11.109 -29.528,0 -53.524,22.219 -57.216,53.701 -1.846,14.813 0,29.628 9.23,40.74 9.227,9.257 20.304,12.962 33.222,12.962 12.918,0 25.842,-3.705 35.068,-14.814 l -1.846,7.41 c 0,1.851 1.846,3.7 3.692,3.7 h 23.994 c 3.692,0 7.386,-1.849 7.386,-7.405 l 12.918,-88.89 c 3.692,-3.704 3.692,-5.551 -1.846,-5.551 z m -35.068,51.85 c -1.846,14.812 -14.764,24.074 -29.534,24.074 -7.38,0 -12.918,-1.852 -18.456,-7.408 -3.688,-3.706 -3.688,-11.11 -3.688,-18.519 1.842,-14.813 14.764,-24.074 29.53,-24.074 7.384,0 12.918,1.853 18.456,7.41 3.692,5.556 3.692,11.108 3.692,18.516 z m 66.443,-98.146 -22.145,142.59 c 0,1.852 1.846,3.704 3.688,3.704 h 22.15 c 3.692,0 7.384,-1.852 7.384,-7.408 l 22.148,-140.738 c 0,-1.853 -1.846,-3.705 -3.692,-3.705 H 832.16 c -3.688,1.852 -5.538,3.705 -5.538,5.557 z"
       fill="#179bd7"
       p-id="5204"
       id="path2620" />
    <path
       d="m 426.106,690.878 11.072,-68.519 H 298.75 l 77.52,-503.69 c 0,-1.852 0,-1.852 1.846,-5.557 0,0 1.846,-1.852 5.538,-1.852 h 191.953 c 64.6,0 107.052,14.813 131.048,40.74 9.226,11.11 16.61,24.074 22.148,38.888 1.842,18.518 1.842,35.183 0,55.554 v 16.665 l 11.073,5.556 c 7.385,5.557 16.61,9.261 22.149,16.667 9.226,11.113 16.61,24.074 18.456,40.739 1.848,18.518 1.848,38.888 -1.846,57.406 -5.538,24.074 -11.072,44.445 -23.994,64.815 -9.226,16.665 -22.15,31.479 -38.76,40.74 -14.764,9.26 -33.222,18.517 -49.832,24.074 -22.149,5.553 -40.606,7.405 -60.909,7.405 h -22.15 c -22.148,0 -40.605,16.67 -44.297,38.891 v 7.406 L 520.236,685.32 v 5.557 c 0,0 0,1.852 -1.846,1.852 h -1.846 c 0,-3.704 -90.438,-1.852 -90.438,-1.852 z"
       fill="#253b80"
       p-id="5205"
       id="path2622" />
    <path
       d="m 765.717,248.294 c 0,5.556 -1.846,7.409 -1.846,12.96 -27.687,138.887 -116.279,183.331 -230.716,183.331 h -59.063 c -14.764,0 -23.991,9.261 -27.683,24.075 l -29.533,192.587 -7.381,55.558 c -1.846,7.404 5.535,14.813 12.92,16.665 h 107.052 c 12.918,0 22.148,-9.26 23.991,-22.222 v -5.556 l 20.303,-125.925 1.846,-7.405 c 1.846,-12.962 12.922,-22.222 23.995,-22.222 h 14.764 c 101.515,0 177.189,-42.593 203.03,-161.108 9.226,-49.997 5.537,-92.59 -20.303,-120.369 -11.072,-7.408 -18.458,-14.813 -31.376,-20.37 z"
       fill="#179bd7"
       p-id="5206"
       id="path2624" />
    <path
       d="m 738.03,237.185 c -5.539,0 -7.385,-1.853 -12.919,-1.853 -5.538,0 -9.23,-1.852 -12.922,-1.852 -16.61,-1.852 -35.068,-5.557 -51.678,-5.557 H 505.472 c -12.923,0 -22.15,9.262 -23.995,22.223 L 450.1,463.103 v 5.557 c 1.846,-14.814 14.765,-24.075 27.683,-24.075 h 59.063 c 114.433,0 204.876,-46.292 230.716,-183.33 0,-5.552 1.842,-7.405 1.842,-12.961 -7.38,-1.852 -14.764,-7.409 -22.144,-9.257 l -9.23,-1.852 c 0,1.852 0,0 0,0 z"
       fill="#222d65"
       p-id="5207"
       id="path2626" />
    <path
       d="m 481.477,251.998 c 1.846,-12.96 12.918,-22.223 23.995,-22.223 h 155.039 c 16.61,0 35.067,0 51.678,5.557 5.538,0 9.23,1.853 12.922,1.853 5.534,0 7.38,1.852 12.92,1.852 l 5.538,1.848 c 7.38,1.852 14.764,5.557 22.148,9.261 7.38,-49.997 0,-85.185 -27.687,-114.812 C 708.5,100.151 653.126,85.333 584.837,85.333 H 385.5 c -14.764,0 -23.995,9.26 -27.687,24.075 l -81.211,529.616 c -1.843,9.261 5.538,16.671 14.768,20.371 h 125.506 l 31.379,-196.292 c 1.846,0 33.222,-211.105 33.222,-211.105 z"
       fill="#253b80"
       p-id="5208"
       id="path2628" />
  </g>
</svg>
