<?xml version="1.0" encoding="UTF-8"?>
<!-- Created with Inkscape (http://www.inkscape.org/) -->
<svg id="svg1" width="26mm" height="5mm" version="1.1" viewBox="0 0 26 5" xmlns="http://www.w3.org/2000/svg">
 <g id="layer1">
  <path id="text1" transform="scale(.9886 1.0115)" d="m1.0822 1.2567q0.00349 0.14661 0.08378 0.2653 0.08378 0.1152 0.21643 0.21992 0.13614 0.10472 0.30719 0.20596 0.17105 0.097743 0.34908 0.20945 0.18152 0.10822 0.35257 0.23738 0.17105 0.12916 0.30719 0.29323 0.13614 0.16407 0.21992 0.37003 0.08378 0.20596 0.090761 0.46777v0.027926q0 0.28625-0.069816 0.49919-0.069817 0.21294-0.18501 0.36654t-0.26879 0.25483q-0.1536 0.097743-0.32465 0.15709-0.16756 0.059344-0.3421 0.08378-0.17105 0.024436-0.32465 0.027927h-0.034908q-0.29672 0-0.52013-0.059344-0.22341-0.059345-0.38399-0.15709-0.16058-0.10123-0.26879-0.23039-0.10472-0.12916-0.16756-0.2653-0.062835-0.13963-0.090761-0.27577-0.027927-0.13614-0.027927-0.25483 0-0.12218 0.04189-0.21294 0.04189-0.090761 0.10822-0.14661 0.069816-0.059344 0.15709-0.08727 0.090761-0.027927 0.1885-0.027927 0.090761 0 0.18501 0.027927 0.097743 0.027926 0.17454 0.08727 0.080289 0.055853 0.12916 0.14661 0.052362 0.08727 0.055853 0.20596 0.00698 0.26181 0.11869 0.35955 0.11171 0.094252 0.32116 0.094252 0.10472-0.00349 0.19199-0.024436 0.090761-0.024436 0.1536-0.080289 0.062835-0.059344 0.097743-0.1536 0.038399-0.097743 0.038399-0.24436 0-0.18152-0.083779-0.32814-0.08029-0.14661-0.21294-0.27228-0.13265-0.12567-0.3037-0.23738-0.17105-0.1152-0.34908-0.2269-0.17803-0.1152-0.34908-0.23738-0.16756-0.12567-0.3037-0.27228-0.13614-0.14661-0.21992-0.32465-0.080289-0.17803-0.08378-0.40493v-0.055853q0.0034908-0.37352 0.097743-0.62137 0.097743-0.24785 0.28276-0.39446 0.1885-0.14661 0.46079-0.20596 0.27228-0.062835 0.62486-0.062835h0.090761q0.32116 0 0.54457 0.069816 0.22341 0.069816 0.37003 0.17803 0.15011 0.10822 0.23388 0.24436 0.08727 0.13614 0.12916 0.26879 0.04189 0.13265 0.052362 0.24785 0.010472 0.1152 0.010472 0.18501 0 0.10472-0.04189 0.19199-0.038399 0.08378-0.10822 0.14312-0.066326 0.059344-0.16058 0.094252-0.090761 0.031417-0.19898 0.031417-0.08378 0-0.16756-0.031417-0.08378-0.034908-0.15011-0.08727-0.066325-0.052362-0.10822-0.11869-0.04189-0.069816-0.04189-0.13963 0-0.28625-0.10472-0.39795-0.10123-0.11171-0.30021-0.11171-0.094252 0-0.18501 0.010472-0.087269 0.010472-0.15709 0.059344-0.066326 0.045381-0.10822 0.14312-0.038399 0.097743-0.038399 0.27577zm4.0214 3.6863q-0.38399 0-0.66325-0.08727-0.27577-0.087271-0.46777-0.2269-0.1885-0.13963-0.3037-0.31417-0.1152-0.17803-0.17803-0.35955-0.059344-0.18152-0.080289-0.34908-0.017454-0.16756-0.017454-0.28974 0-0.052362 0.00698-0.12567 0.010472-0.076798 0.062835-0.14661 0.052362-0.069816 0.16407-0.11869 0.1152-0.048871 0.32465-0.048871 0.069816 0 0.17454 0.010472 0.10472 0.00698 0.20247 0.045381 0.097743 0.034908 0.16756 0.10472 0.069816 0.069816 0.069816 0.1885 0 0.1885 0.020945 0.33861 0.024436 0.15011 0.08378 0.25483 0.059344 0.10472 0.16407 0.16058 0.10472 0.055853 0.26879 0.055853 0.17105 0 0.26181-0.069816 0.094252-0.069816 0.13614-0.15709 0.048871-0.097743 0.055853-0.2269v-2.5623h-0.91459q-0.13963 0-0.27927-0.013963-0.13963-0.013964-0.25483-0.062835-0.11171-0.048871-0.18501-0.14661-0.069816-0.097743-0.069816-0.2653 0-0.17105 0.069816-0.27228 0.073307-0.10123 0.18501-0.15011 0.1152-0.052362 0.25483-0.066325t0.27927-0.013963h1.4243q0.19898 0 0.31417 0.069816 0.11869 0.069816 0.17803 0.18501 0.059344 0.11171 0.076798 0.25483t0.017454 0.29323v2.653q0 0.36304-0.10472 0.61438-0.10472 0.25134-0.2653 0.41541-0.15709 0.16058-0.34908 0.24785-0.1885 0.08727-0.36304 0.12916-0.17105 0.038399-0.30021 0.045381-0.12916 0.00698-0.16756 0.00698zm3.435-2.1364h1.1101l-0.51664-1.8711h-0.076798zm2.1922 0.3421q7e-3 0.23738 0.01745 0.48522 0.01047 0.24785 0.01047 0.47824v0.10472q0 0.13265-0.01047 0.25832-7e-3 0.12218-0.05236 0.22341-0.04538 0.097743-0.14312 0.15709-0.09774 0.059344-0.27578 0.059344-0.18152 0-0.27926-0.059344-0.097741-0.059344-0.14661-0.15709-0.045381-0.097743-0.055853-0.22341-0.0069816-0.12567-0.0069816-0.25832v-0.48871h-1.3963v0.48871q0 0.13265-0.010473 0.25832-0.00698 0.12567-0.055853 0.22341-0.045381 0.097743-0.14312 0.15709-0.097743 0.059344-0.27927 0.059344-0.18152 0-0.27927-0.059344-0.097742-0.059344-0.14312-0.15709-0.045381-0.10123-0.052362-0.22341-0.0069816-0.12567-0.0069816-0.25832v-0.10472q0-0.10822 0-0.23039 0.00349-0.12218 0.00698-0.24785 0.00349-0.12567 0.00698-0.24785 0.00349-0.12567 0.00698-0.23738 0.17455-0.6074 0.36654-1.2288 0.19199-0.62486 0.36654-1.2357 0.034908-0.12916 0.08378-0.24785 0.048871-0.12218 0.12916-0.20945 0.080289-0.090761 0.20596-0.14312 0.12567-0.055853 0.32116-0.055853h0.34908q0.19199 0 0.31766 0.055853 0.12916 0.052362 0.20945 0.14312 0.080289 0.08727 0.12567 0.20945 0.048871 0.11869 0.087271 0.24785zm4.6288-0.16058v1.131q0 0.1501-0.01047 0.29323-7e-3 0.14312-0.05934 0.25483-0.04887 0.11171-0.15709 0.18152-0.10822 0.066325-0.31068 0.066325-0.19549 0-0.3037-0.066325-0.10472-0.069816-0.1536-0.18152-0.04887-0.11171-0.05934-0.25483-7e-3 -0.14312-7e-3 -0.29323v-3.2953q0-0.15011 7e-3 -0.29323 0.01047-0.14312 0.05934-0.25483t0.1536-0.17803q0.10822-0.069816 0.3037-0.069816h1.152q0.43286 0.020945 0.77496 0.18152 0.14661 0.069816 0.28276 0.17454 0.13963 0.10472 0.24785 0.25832 0.11171 0.15011 0.17803 0.35955 0.06633 0.20596 0.06633 0.47824 0 0.37352-0.11869 0.65627-0.1152 0.27927-0.33861 0.47126-0.21992 0.1885-0.54108 0.28625-0.31766 0.094252-0.71911 0.094252zm0.47475-0.83081q0.17454-0.010472 0.31417-0.083779 0.05934-0.031417 0.1152-0.080289 0.05585-0.048871 0.10123-0.11869 0.04538-0.073307 0.06982-0.17105 0.02793-0.097743 0.02793-0.22341 0-0.11869-0.02793-0.20596-0.02443-0.090761-0.06632-0.1536-0.04189-0.066325-0.09425-0.11171-0.05236-0.045381-0.10822-0.076798-0.13265-0.066326-0.29672-0.080289h-0.50967v1.3056zm2.2341-1.3544q0-0.14661 0.01396-0.28625 0.01746-0.13963 0.07331-0.24785t0.16058-0.17454q0.10472-0.066325 0.28276-0.066325 0.18152 0 0.28625 0.066325t0.15709 0.17454q0.05585 0.10822 0.06982 0.24785 0.01745 0.13963 0.01745 0.28625v3.3302q0 0.14661-0.01745 0.28974-0.01396 0.13963-0.06982 0.25134-0.05236 0.10822-0.15709 0.17454-0.10472 0.066325-0.28625 0.066325-0.17803 0-0.28276-0.066325-0.10472-0.066326-0.16058-0.17454-0.055853-0.11171-0.073308-0.25134-0.013963-0.14312-0.013963-0.28974zm1.9688 1.4173q0-0.15011 0.01745-0.29323t0.07331-0.25483q0.05934-0.11171 0.16407-0.17803 0.10822-0.069816 0.28974-0.069816 0.17803 0 0.28276 0.069816 0.10472 0.066325 0.16058 0.17803 0.05585 0.11171 0.06982 0.25483 0.01745 0.14312 0.01745 0.29323v1.3614q0 0.10123 7e-3 0.19549 0.01047 0.090761 0.04189 0.16407 0.03142 0.069816 0.09076 0.1152 0.06283 0.04189 0.16756 0.04189 0.13963 0 0.2269-0.094252 0.09076-0.094252 0.13963-0.25832 0.05236-0.16407 0.06982-0.38399 0.01745-0.22341 0.01745-0.47824v-0.66326q0-0.15011 0.01745-0.29323t0.07331-0.25483q0.05934-0.11171 0.16407-0.17803 0.10822-0.069816 0.28974-0.069816 0.17803 0 0.28276 0.069816 0.10472 0.066325 0.16058 0.17803 0.05585 0.11171 0.06982 0.25483 0.01745 0.14312 0.01745 0.29323v1.906q0 0.15011-0.01047 0.29323-0.01047 0.13963-0.06284 0.25134-0.05236 0.10822-0.16058 0.17803-0.10472 0.066325-0.29672 0.066325-0.19199 0-0.30021-0.062835-0.10822-0.066325-0.16407-0.15709-0.05236-0.090761-0.06633-0.19199-0.01396-0.10123-0.01396-0.17454-0.02793 0.10123-0.08727 0.20596-0.05934 0.10472-0.1536 0.1885-0.09076 0.08378-0.21992 0.13963-0.12916 0.052362-0.30021 0.052362-0.19199 0-0.38399-0.062835-0.19201-0.062833-0.3456-0.20945-0.1536-0.14661-0.25134-0.38399-0.094252-0.23738-0.094252-0.58646zm4.6917 0.11869q0 0.069816 0.04538 0.12916 0.04538 0.059344 0.12218 0.1152 0.08029 0.052362 0.18152 0.10472 0.10472 0.052362 0.21643 0.10472 0.17105 0.08378 0.34908 0.18152 0.17803 0.094252 0.32465 0.22341t0.23738 0.30021q0.09425 0.16756 0.09425 0.39795 0 0.20945-0.06283 0.37003-0.05934 0.16058-0.16058 0.27927-0.10123 0.1152-0.23738 0.19199-0.13265 0.076798-0.28276 0.12218-0.14661 0.045381-0.30021 0.062835-0.1536 0.020945-0.28974 0.020945-0.26879 0-0.46777-0.045381-0.19898-0.045381-0.3421-0.11869-0.14312-0.076798-0.23738-0.17105-0.09076-0.097743-0.14312-0.20247-0.05236-0.10472-0.07331-0.20596-0.02094-0.10472-0.02094-0.19199 0-0.20945 0.1152-0.30719 0.11869-0.097743 0.35955-0.097743 0.17454 0 0.28625 0.094252t0.11869 0.3037q0.0035 0.069816 0.0384 0.11171 0.0384 0.04189 0.09425 0.069816 0.05934 0.024436 0.12916 0.034908 0.06982 0.00698 0.13614 0.00698 0.13614 0 0.21992-0.069816 0.08727-0.073307 0.08727-0.1885 0-0.097743-0.05934-0.18152-0.05585-0.08727-0.1501-0.16058-0.09426-0.073305-0.21644-0.13963-0.11869-0.069816-0.24436-0.13963-0.15709-0.08378-0.31766-0.17803-0.15709-0.094252-0.28625-0.20945-0.12916-0.1152-0.20945-0.25832-0.08029-0.14661-0.08029-0.33163 0-0.27228 0.08727-0.45381 0.09076-0.18501 0.26181-0.29672 0.17105-0.1152 0.41541-0.16407 0.24785-0.048871 0.56202-0.055853h0.05585q0.28276 0 0.47824 0.048871 0.19898 0.048871 0.32814 0.12916 0.13265 0.076798 0.20596 0.17454 0.0768 0.097743 0.11171 0.19898 0.0384 0.097743 0.04538 0.1885 0.01047 0.090761 0.01047 0.1536 0 0.10472-0.04538 0.17454-0.04189 0.066326-0.1152 0.10822-0.06982 0.038399-0.16058 0.055853-0.09076 0.013963-0.1885 0.017454-0.08378 0-0.1536-0.027926-0.06633-0.027927-0.1152-0.069816-0.04887-0.04189-0.0768-0.094252-0.02444-0.052362-0.02444-0.10123-7e-3 -0.13265-0.10822-0.20247-0.09774-0.069816-0.24087-0.069816-0.05934 0-0.1152 0.013963-0.05236 0.010472-0.09774 0.04189-0.04189 0.027927-0.06982 0.076798-0.02444 0.048871-0.02444 0.12567z" fill="#fff" stroke-width=".26809" aria-label="SJA Plus"/>
 </g>
</svg>
