<?xml version="1.0" encoding="UTF-8" standalone="no"?>
<svg
   t="1689857955759"
   class="icon"
   viewBox="0 0 1024 1024"
   version="1.1"
   p-id="4180"
   width="200"
   height="200"
   id="svg4279"
   sodipodi:docname="wechat-pay.svg"
   inkscape:version="1.2 (dc2aedaf03, 2022-05-15)"
   xmlns:inkscape="http://www.inkscape.org/namespaces/inkscape"
   xmlns:sodipodi="http://sodipodi.sourceforge.net/DTD/sodipodi-0.dtd"
   xmlns="http://www.w3.org/2000/svg"
   xmlns:svg="http://www.w3.org/2000/svg">
  <defs
     id="defs4283" />
  <sodipodi:namedview
     id="namedview4281"
     pagecolor="#ffffff"
     bordercolor="#000000"
     borderopacity="0.25"
     inkscape:showpageshadow="2"
     inkscape:pageopacity="0.0"
     inkscape:pagecheckerboard="0"
     inkscape:deskcolor="#d1d1d1"
     showgrid="false"
     inkscape:zoom="2.13"
     inkscape:cx="119.24883"
     inkscape:cy="158.68545"
     inkscape:window-width="1920"
     inkscape:window-height="1046"
     inkscape:window-x="-11"
     inkscape:window-y="-11"
     inkscape:window-maximized="1"
     inkscape:current-layer="svg4279" />
  <path
     d="m 373.10698,625.79394 c -4.62758,2.34799 -9.84914,3.70364 -15.3952,3.70364 -12.81897,0 -23.96734,-7.08867 -29.818,-17.5553 l -2.2435,-4.93702 -93.38101,-205.63734 c -1.00752,-2.2457 -1.63781,-4.76536 -1.63781,-7.22153 0,-9.48135 7.65483,-17.17083 17.10212,-17.17083 3.83679,0 7.37484,1.27335 10.23691,3.40854 l 110.18439,78.73022 c 8.05668,5.29682 17.66916,8.39377 28.00798,8.39377 6.18339,0 12.05982,-1.15225 17.54848,-3.16163 L 931.92511,232.87294 C 839.04669,123.00852 686.05897,51.2 512.93599,51.2 229.64268,51.2 0,243.26197 0,480.18634 c 0,129.2739 69.096185,245.625 177.2339,324.25999 8.6811,6.21039 14.35368,16.42188 14.35368,27.94905 0,3.80595 -0.81539,7.30619 -1.79714,10.93342 -8.63774,32.34405 -22.46894,84.1082 -23.11329,86.5349 -1.07663,4.0552 -2.76599,8.2962 -2.76599,12.5442 0,9.4743 7.66186,17.1579 17.10915,17.1579 3.72198,0 6.74337,-1.3815 9.87958,-3.1933 l 112.29434,-65.05731 c 8.44562,-4.90175 17.38915,-7.92699 27.23711,-7.92699 5.24028,0 10.30719,0.80774 15.08238,2.27274 52.38302,15.12031 108.90273,23.52701 167.42344,23.52701 283.28158,0 512.94414,-192.06666 512.94414,-428.99926 0,-71.75561 -21.1825,-139.34313 -58.42576,-198.78498 L 376.8477,623.62465 Z"
     fill="#00c800"
     p-id="4181"
     id="path4277"
     style="stroke-width:1.14692" />
</svg>
